G04 #@! TF.GenerationSoftware,KiCad,Pcbnew,(5.1.5)-3*
G04 #@! TF.CreationDate,2020-03-15T22:36:38-07:00*
G04 #@! TF.ProjectId,pihat,70696861-742e-46b6-9963-61645f706362,rev?*
G04 #@! TF.SameCoordinates,Original*
G04 #@! TF.FileFunction,OtherDrawing,Comment*
%FSLAX46Y46*%
G04 Gerber Fmt 4.6, Leading zero omitted, Abs format (unit mm)*
G04 Created by KiCad (PCBNEW (5.1.5)-3) date 2020-03-15 22:36:38*
%MOMM*%
%LPD*%
G04 APERTURE LIST*
%ADD10C,0.150000*%
%ADD11C,0.120000*%
G04 APERTURE END LIST*
D10*
X245357142Y-141071428D02*
X245404761Y-141119047D01*
X245452380Y-141261904D01*
X245452380Y-141357142D01*
X245404761Y-141500000D01*
X245309523Y-141595238D01*
X245214285Y-141642857D01*
X245023809Y-141690476D01*
X244880952Y-141690476D01*
X244690476Y-141642857D01*
X244595238Y-141595238D01*
X244500000Y-141500000D01*
X244452380Y-141357142D01*
X244452380Y-141261904D01*
X244500000Y-141119047D01*
X244547619Y-141071428D01*
X245166666Y-140690476D02*
X245166666Y-140214285D01*
X245452380Y-140785714D02*
X244452380Y-140452380D01*
X245452380Y-140119047D01*
X245452380Y-139785714D02*
X244452380Y-139785714D01*
X245166666Y-139452380D01*
X244452380Y-139119047D01*
X245452380Y-139119047D01*
X244928571Y-138642857D02*
X244928571Y-138309523D01*
X245452380Y-138166666D02*
X245452380Y-138642857D01*
X244452380Y-138642857D01*
X244452380Y-138166666D01*
X245452380Y-137166666D02*
X244976190Y-137500000D01*
X245452380Y-137738095D02*
X244452380Y-137738095D01*
X244452380Y-137357142D01*
X244500000Y-137261904D01*
X244547619Y-137214285D01*
X244642857Y-137166666D01*
X244785714Y-137166666D01*
X244880952Y-137214285D01*
X244928571Y-137261904D01*
X244976190Y-137357142D01*
X244976190Y-137738095D01*
X245166666Y-136785714D02*
X245166666Y-136309523D01*
X245452380Y-136880952D02*
X244452380Y-136547619D01*
X245452380Y-136214285D01*
D11*
X141764190Y-147204761D02*
X141197523Y-146252380D01*
X140792761Y-147204761D02*
X140792761Y-145204761D01*
X141440380Y-145204761D01*
X141602285Y-145300000D01*
X141683238Y-145395238D01*
X141764190Y-145585714D01*
X141764190Y-145871428D01*
X141683238Y-146061904D01*
X141602285Y-146157142D01*
X141440380Y-146252380D01*
X140792761Y-146252380D01*
X142411809Y-146633333D02*
X143221333Y-146633333D01*
X142249904Y-147204761D02*
X142816571Y-145204761D01*
X143383238Y-147204761D01*
X143868952Y-147109523D02*
X144111809Y-147204761D01*
X144516571Y-147204761D01*
X144678476Y-147109523D01*
X144759428Y-147014285D01*
X144840380Y-146823809D01*
X144840380Y-146633333D01*
X144759428Y-146442857D01*
X144678476Y-146347619D01*
X144516571Y-146252380D01*
X144192761Y-146157142D01*
X144030857Y-146061904D01*
X143949904Y-145966666D01*
X143868952Y-145776190D01*
X143868952Y-145585714D01*
X143949904Y-145395238D01*
X144030857Y-145300000D01*
X144192761Y-145204761D01*
X144597523Y-145204761D01*
X144840380Y-145300000D01*
X145568952Y-147204761D02*
X145568952Y-145204761D01*
X146216571Y-145204761D01*
X146378476Y-145300000D01*
X146459428Y-145395238D01*
X146540380Y-145585714D01*
X146540380Y-145871428D01*
X146459428Y-146061904D01*
X146378476Y-146157142D01*
X146216571Y-146252380D01*
X145568952Y-146252380D01*
X147835619Y-146157142D02*
X148078476Y-146252380D01*
X148159428Y-146347619D01*
X148240380Y-146538095D01*
X148240380Y-146823809D01*
X148159428Y-147014285D01*
X148078476Y-147109523D01*
X147916571Y-147204761D01*
X147268952Y-147204761D01*
X147268952Y-145204761D01*
X147835619Y-145204761D01*
X147997523Y-145300000D01*
X148078476Y-145395238D01*
X148159428Y-145585714D01*
X148159428Y-145776190D01*
X148078476Y-145966666D01*
X147997523Y-146061904D01*
X147835619Y-146157142D01*
X147268952Y-146157142D01*
X148968952Y-146157142D02*
X149535619Y-146157142D01*
X149778476Y-147204761D02*
X148968952Y-147204761D01*
X148968952Y-145204761D01*
X149778476Y-145204761D01*
X151478476Y-147204761D02*
X150911809Y-146252380D01*
X150507047Y-147204761D02*
X150507047Y-145204761D01*
X151154666Y-145204761D01*
X151316571Y-145300000D01*
X151397523Y-145395238D01*
X151478476Y-145585714D01*
X151478476Y-145871428D01*
X151397523Y-146061904D01*
X151316571Y-146157142D01*
X151154666Y-146252380D01*
X150507047Y-146252380D01*
X153178476Y-147204761D02*
X152611809Y-146252380D01*
X152207047Y-147204761D02*
X152207047Y-145204761D01*
X152854666Y-145204761D01*
X153016571Y-145300000D01*
X153097523Y-145395238D01*
X153178476Y-145585714D01*
X153178476Y-145871428D01*
X153097523Y-146061904D01*
X153016571Y-146157142D01*
X152854666Y-146252380D01*
X152207047Y-146252380D01*
X154230857Y-146252380D02*
X154230857Y-147204761D01*
X153664190Y-145204761D02*
X154230857Y-146252380D01*
X154797523Y-145204761D01*
X155364190Y-146442857D02*
X156659428Y-146442857D01*
X157468952Y-147204761D02*
X157468952Y-145204761D01*
X158116571Y-145204761D01*
X158278476Y-145300000D01*
X158359428Y-145395238D01*
X158440380Y-145585714D01*
X158440380Y-145871428D01*
X158359428Y-146061904D01*
X158278476Y-146157142D01*
X158116571Y-146252380D01*
X157468952Y-146252380D01*
X159168952Y-147204761D02*
X159168952Y-145204761D01*
X162002285Y-145871428D02*
X162002285Y-147204761D01*
X161597523Y-145109523D02*
X161192761Y-146538095D01*
X162245142Y-146538095D01*
X163216571Y-145204761D02*
X163378476Y-145204761D01*
X163540380Y-145300000D01*
X163621333Y-145395238D01*
X163702285Y-145585714D01*
X163783238Y-145966666D01*
X163783238Y-146442857D01*
X163702285Y-146823809D01*
X163621333Y-147014285D01*
X163540380Y-147109523D01*
X163378476Y-147204761D01*
X163216571Y-147204761D01*
X163054666Y-147109523D01*
X162973714Y-147014285D01*
X162892761Y-146823809D01*
X162811809Y-146442857D01*
X162811809Y-145966666D01*
X162892761Y-145585714D01*
X162973714Y-145395238D01*
X163054666Y-145300000D01*
X163216571Y-145204761D01*
X164511809Y-146442857D02*
X165807047Y-146442857D01*
X166616571Y-147204761D02*
X166616571Y-145204761D01*
X167264190Y-145204761D01*
X167426095Y-145300000D01*
X167507047Y-145395238D01*
X167588000Y-145585714D01*
X167588000Y-145871428D01*
X167507047Y-146061904D01*
X167426095Y-146157142D01*
X167264190Y-146252380D01*
X166616571Y-146252380D01*
X168316571Y-147204761D02*
X168316571Y-145204761D01*
X169126095Y-147204761D02*
X169126095Y-145204761D01*
X170097523Y-147204761D01*
X170097523Y-145204761D01*
X172121333Y-146633333D02*
X172930857Y-146633333D01*
X171959428Y-147204761D02*
X172526095Y-145204761D01*
X173092761Y-147204761D01*
X173659428Y-147204761D02*
X173659428Y-145204761D01*
X174064190Y-145204761D01*
X174307047Y-145300000D01*
X174468952Y-145490476D01*
X174549904Y-145680952D01*
X174630857Y-146061904D01*
X174630857Y-146347619D01*
X174549904Y-146728571D01*
X174468952Y-146919047D01*
X174307047Y-147109523D01*
X174064190Y-147204761D01*
X173659428Y-147204761D01*
X175359428Y-147204761D02*
X175359428Y-145204761D01*
X175764190Y-145204761D01*
X176007047Y-145300000D01*
X176168952Y-145490476D01*
X176249904Y-145680952D01*
X176330857Y-146061904D01*
X176330857Y-146347619D01*
X176249904Y-146728571D01*
X176168952Y-146919047D01*
X176007047Y-147109523D01*
X175764190Y-147204761D01*
X175359428Y-147204761D01*
X177383238Y-145204761D02*
X177707047Y-145204761D01*
X177868952Y-145300000D01*
X178030857Y-145490476D01*
X178111809Y-145871428D01*
X178111809Y-146538095D01*
X178030857Y-146919047D01*
X177868952Y-147109523D01*
X177707047Y-147204761D01*
X177383238Y-147204761D01*
X177221333Y-147109523D01*
X177059428Y-146919047D01*
X176978476Y-146538095D01*
X176978476Y-145871428D01*
X177059428Y-145490476D01*
X177221333Y-145300000D01*
X177383238Y-145204761D01*
X178840380Y-147204761D02*
X178840380Y-145204761D01*
X179811809Y-147204761D01*
X179811809Y-145204761D01*
X182483238Y-146157142D02*
X182726095Y-146252380D01*
X182807047Y-146347619D01*
X182888000Y-146538095D01*
X182888000Y-146823809D01*
X182807047Y-147014285D01*
X182726095Y-147109523D01*
X182564190Y-147204761D01*
X181916571Y-147204761D01*
X181916571Y-145204761D01*
X182483238Y-145204761D01*
X182645142Y-145300000D01*
X182726095Y-145395238D01*
X182807047Y-145585714D01*
X182807047Y-145776190D01*
X182726095Y-145966666D01*
X182645142Y-146061904D01*
X182483238Y-146157142D01*
X181916571Y-146157142D01*
X183940380Y-145204761D02*
X184264190Y-145204761D01*
X184426095Y-145300000D01*
X184588000Y-145490476D01*
X184668952Y-145871428D01*
X184668952Y-146538095D01*
X184588000Y-146919047D01*
X184426095Y-147109523D01*
X184264190Y-147204761D01*
X183940380Y-147204761D01*
X183778476Y-147109523D01*
X183616571Y-146919047D01*
X183535619Y-146538095D01*
X183535619Y-145871428D01*
X183616571Y-145490476D01*
X183778476Y-145300000D01*
X183940380Y-145204761D01*
X185316571Y-146633333D02*
X186126095Y-146633333D01*
X185154666Y-147204761D02*
X185721333Y-145204761D01*
X186288000Y-147204761D01*
X187826095Y-147204761D02*
X187259428Y-146252380D01*
X186854666Y-147204761D02*
X186854666Y-145204761D01*
X187502285Y-145204761D01*
X187664190Y-145300000D01*
X187745142Y-145395238D01*
X187826095Y-145585714D01*
X187826095Y-145871428D01*
X187745142Y-146061904D01*
X187664190Y-146157142D01*
X187502285Y-146252380D01*
X186854666Y-146252380D01*
X188554666Y-147204761D02*
X188554666Y-145204761D01*
X188959428Y-145204761D01*
X189202285Y-145300000D01*
X189364190Y-145490476D01*
X189445142Y-145680952D01*
X189526095Y-146061904D01*
X189526095Y-146347619D01*
X189445142Y-146728571D01*
X189364190Y-146919047D01*
X189202285Y-147109523D01*
X188959428Y-147204761D01*
X188554666Y-147204761D01*
X140549904Y-148324761D02*
X141116571Y-150324761D01*
X141683238Y-148324761D01*
X142249904Y-150324761D02*
X142249904Y-148324761D01*
X143059428Y-149277142D02*
X143626095Y-149277142D01*
X143868952Y-150324761D02*
X143059428Y-150324761D01*
X143059428Y-148324761D01*
X143868952Y-148324761D01*
X144435619Y-148324761D02*
X144840380Y-150324761D01*
X145164190Y-148896190D01*
X145488000Y-150324761D01*
X145892761Y-148324761D01*
X148402285Y-149277142D02*
X147835619Y-149277142D01*
X147835619Y-150324761D02*
X147835619Y-148324761D01*
X148645142Y-148324761D01*
X150264190Y-150324761D02*
X149697523Y-149372380D01*
X149292761Y-150324761D02*
X149292761Y-148324761D01*
X149940380Y-148324761D01*
X150102285Y-148420000D01*
X150183238Y-148515238D01*
X150264190Y-148705714D01*
X150264190Y-148991428D01*
X150183238Y-149181904D01*
X150102285Y-149277142D01*
X149940380Y-149372380D01*
X149292761Y-149372380D01*
X151316571Y-148324761D02*
X151640380Y-148324761D01*
X151802285Y-148420000D01*
X151964190Y-148610476D01*
X152045142Y-148991428D01*
X152045142Y-149658095D01*
X151964190Y-150039047D01*
X151802285Y-150229523D01*
X151640380Y-150324761D01*
X151316571Y-150324761D01*
X151154666Y-150229523D01*
X150992761Y-150039047D01*
X150911809Y-149658095D01*
X150911809Y-148991428D01*
X150992761Y-148610476D01*
X151154666Y-148420000D01*
X151316571Y-148324761D01*
X152773714Y-150324761D02*
X152773714Y-148324761D01*
X153340380Y-149753333D01*
X153907047Y-148324761D01*
X153907047Y-150324761D01*
X155768952Y-148324761D02*
X156740380Y-148324761D01*
X156254666Y-150324761D02*
X156254666Y-148324761D01*
X157630857Y-148324761D02*
X157954666Y-148324761D01*
X158116571Y-148420000D01*
X158278476Y-148610476D01*
X158359428Y-148991428D01*
X158359428Y-149658095D01*
X158278476Y-150039047D01*
X158116571Y-150229523D01*
X157954666Y-150324761D01*
X157630857Y-150324761D01*
X157468952Y-150229523D01*
X157307047Y-150039047D01*
X157226095Y-149658095D01*
X157226095Y-148991428D01*
X157307047Y-148610476D01*
X157468952Y-148420000D01*
X157630857Y-148324761D01*
X159088000Y-150324761D02*
X159088000Y-148324761D01*
X159735619Y-148324761D01*
X159897523Y-148420000D01*
X159978476Y-148515238D01*
X160059428Y-148705714D01*
X160059428Y-148991428D01*
X159978476Y-149181904D01*
X159897523Y-149277142D01*
X159735619Y-149372380D01*
X159088000Y-149372380D01*
X140792761Y-153444761D02*
X140792761Y-151444761D01*
X141764190Y-153444761D01*
X141764190Y-151444761D01*
X142897523Y-151444761D02*
X143221333Y-151444761D01*
X143383238Y-151540000D01*
X143545142Y-151730476D01*
X143626095Y-152111428D01*
X143626095Y-152778095D01*
X143545142Y-153159047D01*
X143383238Y-153349523D01*
X143221333Y-153444761D01*
X142897523Y-153444761D01*
X142735619Y-153349523D01*
X142573714Y-153159047D01*
X142492761Y-152778095D01*
X142492761Y-152111428D01*
X142573714Y-151730476D01*
X142735619Y-151540000D01*
X142897523Y-151444761D01*
X144111809Y-151444761D02*
X145083238Y-151444761D01*
X144597523Y-153444761D02*
X144597523Y-151444761D01*
X145649904Y-152397142D02*
X146216571Y-152397142D01*
X146459428Y-153444761D02*
X145649904Y-153444761D01*
X145649904Y-151444761D01*
X146459428Y-151444761D01*
X147188000Y-153254285D02*
X147268952Y-153349523D01*
X147188000Y-153444761D01*
X147107047Y-153349523D01*
X147188000Y-153254285D01*
X147188000Y-153444761D01*
X147188000Y-152206666D02*
X147268952Y-152301904D01*
X147188000Y-152397142D01*
X147107047Y-152301904D01*
X147188000Y-152206666D01*
X147188000Y-152397142D01*
X149292761Y-153444761D02*
X149292761Y-151444761D01*
X149940380Y-151444761D01*
X150102285Y-151540000D01*
X150183238Y-151635238D01*
X150264190Y-151825714D01*
X150264190Y-152111428D01*
X150183238Y-152301904D01*
X150102285Y-152397142D01*
X149940380Y-152492380D01*
X149292761Y-152492380D01*
X151883238Y-153444761D02*
X150911809Y-153444761D01*
X151397523Y-153444761D02*
X151397523Y-151444761D01*
X151235619Y-151730476D01*
X151073714Y-151920952D01*
X150911809Y-152016190D01*
X153826095Y-153349523D02*
X154068952Y-153444761D01*
X154473714Y-153444761D01*
X154635619Y-153349523D01*
X154716571Y-153254285D01*
X154797523Y-153063809D01*
X154797523Y-152873333D01*
X154716571Y-152682857D01*
X154635619Y-152587619D01*
X154473714Y-152492380D01*
X154149904Y-152397142D01*
X153988000Y-152301904D01*
X153907047Y-152206666D01*
X153826095Y-152016190D01*
X153826095Y-151825714D01*
X153907047Y-151635238D01*
X153988000Y-151540000D01*
X154149904Y-151444761D01*
X154554666Y-151444761D01*
X154797523Y-151540000D01*
X155526095Y-153444761D02*
X155526095Y-151444761D01*
X155526095Y-152397142D02*
X156497523Y-152397142D01*
X156497523Y-153444761D02*
X156497523Y-151444761D01*
X157630857Y-151444761D02*
X157954666Y-151444761D01*
X158116571Y-151540000D01*
X158278476Y-151730476D01*
X158359428Y-152111428D01*
X158359428Y-152778095D01*
X158278476Y-153159047D01*
X158116571Y-153349523D01*
X157954666Y-153444761D01*
X157630857Y-153444761D01*
X157468952Y-153349523D01*
X157307047Y-153159047D01*
X157226095Y-152778095D01*
X157226095Y-152111428D01*
X157307047Y-151730476D01*
X157468952Y-151540000D01*
X157630857Y-151444761D01*
X159088000Y-151444761D02*
X159088000Y-153063809D01*
X159168952Y-153254285D01*
X159249904Y-153349523D01*
X159411809Y-153444761D01*
X159735619Y-153444761D01*
X159897523Y-153349523D01*
X159978476Y-153254285D01*
X160059428Y-153063809D01*
X160059428Y-151444761D01*
X161678476Y-153444761D02*
X160868952Y-153444761D01*
X160868952Y-151444761D01*
X162245142Y-153444761D02*
X162245142Y-151444761D01*
X162649904Y-151444761D01*
X162892761Y-151540000D01*
X163054666Y-151730476D01*
X163135619Y-151920952D01*
X163216571Y-152301904D01*
X163216571Y-152587619D01*
X163135619Y-152968571D01*
X163054666Y-153159047D01*
X162892761Y-153349523D01*
X162649904Y-153444761D01*
X162245142Y-153444761D01*
X165807047Y-152397142D02*
X166049904Y-152492380D01*
X166130857Y-152587619D01*
X166211809Y-152778095D01*
X166211809Y-153063809D01*
X166130857Y-153254285D01*
X166049904Y-153349523D01*
X165888000Y-153444761D01*
X165240380Y-153444761D01*
X165240380Y-151444761D01*
X165807047Y-151444761D01*
X165968952Y-151540000D01*
X166049904Y-151635238D01*
X166130857Y-151825714D01*
X166130857Y-152016190D01*
X166049904Y-152206666D01*
X165968952Y-152301904D01*
X165807047Y-152397142D01*
X165240380Y-152397142D01*
X166940380Y-152397142D02*
X167507047Y-152397142D01*
X167749904Y-153444761D02*
X166940380Y-153444761D01*
X166940380Y-151444761D01*
X167749904Y-151444761D01*
X170340380Y-152397142D02*
X169773714Y-152397142D01*
X169773714Y-153444761D02*
X169773714Y-151444761D01*
X170583238Y-151444761D01*
X171230857Y-153444761D02*
X171230857Y-151444761D01*
X171797523Y-151444761D02*
X172768952Y-151444761D01*
X172283238Y-153444761D02*
X172283238Y-151444761D01*
X173092761Y-151444761D02*
X174064190Y-151444761D01*
X173578476Y-153444761D02*
X173578476Y-151444761D01*
X174630857Y-152397142D02*
X175197523Y-152397142D01*
X175440380Y-153444761D02*
X174630857Y-153444761D01*
X174630857Y-151444761D01*
X175440380Y-151444761D01*
X176168952Y-153444761D02*
X176168952Y-151444761D01*
X176573714Y-151444761D01*
X176816571Y-151540000D01*
X176978476Y-151730476D01*
X177059428Y-151920952D01*
X177140380Y-152301904D01*
X177140380Y-152587619D01*
X177059428Y-152968571D01*
X176978476Y-153159047D01*
X176816571Y-153349523D01*
X176573714Y-153444761D01*
X176168952Y-153444761D01*
X179488000Y-151444761D02*
X179811809Y-151444761D01*
X179973714Y-151540000D01*
X180135619Y-151730476D01*
X180216571Y-152111428D01*
X180216571Y-152778095D01*
X180135619Y-153159047D01*
X179973714Y-153349523D01*
X179811809Y-153444761D01*
X179488000Y-153444761D01*
X179326095Y-153349523D01*
X179164190Y-153159047D01*
X179083238Y-152778095D01*
X179083238Y-152111428D01*
X179164190Y-151730476D01*
X179326095Y-151540000D01*
X179488000Y-151444761D01*
X180945142Y-153444761D02*
X180945142Y-151444761D01*
X181916571Y-153444761D01*
X181916571Y-151444761D01*
X183778476Y-151444761D02*
X184749904Y-151444761D01*
X184264190Y-153444761D02*
X184264190Y-151444761D01*
X185316571Y-153444761D02*
X185316571Y-151444761D01*
X185316571Y-152397142D02*
X186288000Y-152397142D01*
X186288000Y-153444761D02*
X186288000Y-151444761D01*
X187097523Y-152397142D02*
X187664190Y-152397142D01*
X187907047Y-153444761D02*
X187097523Y-153444761D01*
X187097523Y-151444761D01*
X187907047Y-151444761D01*
X190902285Y-153444761D02*
X190335619Y-152492380D01*
X189930857Y-153444761D02*
X189930857Y-151444761D01*
X190578476Y-151444761D01*
X190740380Y-151540000D01*
X190821333Y-151635238D01*
X190902285Y-151825714D01*
X190902285Y-152111428D01*
X190821333Y-152301904D01*
X190740380Y-152397142D01*
X190578476Y-152492380D01*
X189930857Y-152492380D01*
X191630857Y-152397142D02*
X192197523Y-152397142D01*
X192440380Y-153444761D02*
X191630857Y-153444761D01*
X191630857Y-151444761D01*
X192440380Y-151444761D01*
X192926095Y-151444761D02*
X193492761Y-153444761D01*
X194059428Y-151444761D01*
X194626095Y-152397142D02*
X195192761Y-152397142D01*
X195435619Y-153444761D02*
X194626095Y-153444761D01*
X194626095Y-151444761D01*
X195435619Y-151444761D01*
X197135619Y-153444761D02*
X196568952Y-152492380D01*
X196164190Y-153444761D02*
X196164190Y-151444761D01*
X196811809Y-151444761D01*
X196973714Y-151540000D01*
X197054666Y-151635238D01*
X197135619Y-151825714D01*
X197135619Y-152111428D01*
X197054666Y-152301904D01*
X196973714Y-152397142D01*
X196811809Y-152492380D01*
X196164190Y-152492380D01*
X197783238Y-153349523D02*
X198026095Y-153444761D01*
X198430857Y-153444761D01*
X198592761Y-153349523D01*
X198673714Y-153254285D01*
X198754666Y-153063809D01*
X198754666Y-152873333D01*
X198673714Y-152682857D01*
X198592761Y-152587619D01*
X198430857Y-152492380D01*
X198107047Y-152397142D01*
X197945142Y-152301904D01*
X197864190Y-152206666D01*
X197783238Y-152016190D01*
X197783238Y-151825714D01*
X197864190Y-151635238D01*
X197945142Y-151540000D01*
X198107047Y-151444761D01*
X198511809Y-151444761D01*
X198754666Y-151540000D01*
X199483238Y-152397142D02*
X200049904Y-152397142D01*
X200292761Y-153444761D02*
X199483238Y-153444761D01*
X199483238Y-151444761D01*
X200292761Y-151444761D01*
X202640380Y-151444761D02*
X202964190Y-151444761D01*
X203126095Y-151540000D01*
X203288000Y-151730476D01*
X203368952Y-152111428D01*
X203368952Y-152778095D01*
X203288000Y-153159047D01*
X203126095Y-153349523D01*
X202964190Y-153444761D01*
X202640380Y-153444761D01*
X202478476Y-153349523D01*
X202316571Y-153159047D01*
X202235619Y-152778095D01*
X202235619Y-152111428D01*
X202316571Y-151730476D01*
X202478476Y-151540000D01*
X202640380Y-151444761D01*
X204664190Y-152397142D02*
X204097523Y-152397142D01*
X204097523Y-153444761D02*
X204097523Y-151444761D01*
X204907047Y-151444761D01*
X206607047Y-151444761D02*
X207578476Y-151444761D01*
X207092761Y-153444761D02*
X207092761Y-151444761D01*
X208145142Y-153444761D02*
X208145142Y-151444761D01*
X208145142Y-152397142D02*
X209116571Y-152397142D01*
X209116571Y-153444761D02*
X209116571Y-151444761D01*
X209926095Y-152397142D02*
X210492761Y-152397142D01*
X210735619Y-153444761D02*
X209926095Y-153444761D01*
X209926095Y-151444761D01*
X210735619Y-151444761D01*
X213326095Y-152397142D02*
X213568952Y-152492380D01*
X213649904Y-152587619D01*
X213730857Y-152778095D01*
X213730857Y-153063809D01*
X213649904Y-153254285D01*
X213568952Y-153349523D01*
X213407047Y-153444761D01*
X212759428Y-153444761D01*
X212759428Y-151444761D01*
X213326095Y-151444761D01*
X213488000Y-151540000D01*
X213568952Y-151635238D01*
X213649904Y-151825714D01*
X213649904Y-152016190D01*
X213568952Y-152206666D01*
X213488000Y-152301904D01*
X213326095Y-152397142D01*
X212759428Y-152397142D01*
X214783238Y-151444761D02*
X215107047Y-151444761D01*
X215268952Y-151540000D01*
X215430857Y-151730476D01*
X215511809Y-152111428D01*
X215511809Y-152778095D01*
X215430857Y-153159047D01*
X215268952Y-153349523D01*
X215107047Y-153444761D01*
X214783238Y-153444761D01*
X214621333Y-153349523D01*
X214459428Y-153159047D01*
X214378476Y-152778095D01*
X214378476Y-152111428D01*
X214459428Y-151730476D01*
X214621333Y-151540000D01*
X214783238Y-151444761D01*
X216159428Y-152873333D02*
X216968952Y-152873333D01*
X215997523Y-153444761D02*
X216564190Y-151444761D01*
X217130857Y-153444761D01*
X218668952Y-153444761D02*
X218102285Y-152492380D01*
X217697523Y-153444761D02*
X217697523Y-151444761D01*
X218345142Y-151444761D01*
X218507047Y-151540000D01*
X218588000Y-151635238D01*
X218668952Y-151825714D01*
X218668952Y-152111428D01*
X218588000Y-152301904D01*
X218507047Y-152397142D01*
X218345142Y-152492380D01*
X217697523Y-152492380D01*
X219397523Y-153444761D02*
X219397523Y-151444761D01*
X219802285Y-151444761D01*
X220045142Y-151540000D01*
X220207047Y-151730476D01*
X220288000Y-151920952D01*
X220368952Y-152301904D01*
X220368952Y-152587619D01*
X220288000Y-152968571D01*
X220207047Y-153159047D01*
X220045142Y-153349523D01*
X219802285Y-153444761D01*
X219397523Y-153444761D01*
X140711809Y-159113333D02*
X141521333Y-159113333D01*
X140549904Y-159684761D02*
X141116571Y-157684761D01*
X141683238Y-159684761D01*
X142249904Y-159684761D02*
X142249904Y-157684761D01*
X142654666Y-157684761D01*
X142897523Y-157780000D01*
X143059428Y-157970476D01*
X143140380Y-158160952D01*
X143221333Y-158541904D01*
X143221333Y-158827619D01*
X143140380Y-159208571D01*
X143059428Y-159399047D01*
X142897523Y-159589523D01*
X142654666Y-159684761D01*
X142249904Y-159684761D01*
X143949904Y-159684761D02*
X143949904Y-157684761D01*
X144354666Y-157684761D01*
X144597523Y-157780000D01*
X144759428Y-157970476D01*
X144840380Y-158160952D01*
X144921333Y-158541904D01*
X144921333Y-158827619D01*
X144840380Y-159208571D01*
X144759428Y-159399047D01*
X144597523Y-159589523D01*
X144354666Y-159684761D01*
X143949904Y-159684761D01*
X146945142Y-158637142D02*
X147511809Y-158637142D01*
X147754666Y-159684761D02*
X146945142Y-159684761D01*
X146945142Y-157684761D01*
X147754666Y-157684761D01*
X148483238Y-159684761D02*
X148483238Y-157684761D01*
X148888000Y-157684761D01*
X149130857Y-157780000D01*
X149292761Y-157970476D01*
X149373714Y-158160952D01*
X149454666Y-158541904D01*
X149454666Y-158827619D01*
X149373714Y-159208571D01*
X149292761Y-159399047D01*
X149130857Y-159589523D01*
X148888000Y-159684761D01*
X148483238Y-159684761D01*
X151073714Y-157780000D02*
X150911809Y-157684761D01*
X150668952Y-157684761D01*
X150426095Y-157780000D01*
X150264190Y-157970476D01*
X150183238Y-158160952D01*
X150102285Y-158541904D01*
X150102285Y-158827619D01*
X150183238Y-159208571D01*
X150264190Y-159399047D01*
X150426095Y-159589523D01*
X150668952Y-159684761D01*
X150830857Y-159684761D01*
X151073714Y-159589523D01*
X151154666Y-159494285D01*
X151154666Y-158827619D01*
X150830857Y-158827619D01*
X151883238Y-158637142D02*
X152449904Y-158637142D01*
X152692761Y-159684761D02*
X151883238Y-159684761D01*
X151883238Y-157684761D01*
X152692761Y-157684761D01*
X155688000Y-159494285D02*
X155607047Y-159589523D01*
X155364190Y-159684761D01*
X155202285Y-159684761D01*
X154959428Y-159589523D01*
X154797523Y-159399047D01*
X154716571Y-159208571D01*
X154635619Y-158827619D01*
X154635619Y-158541904D01*
X154716571Y-158160952D01*
X154797523Y-157970476D01*
X154959428Y-157780000D01*
X155202285Y-157684761D01*
X155364190Y-157684761D01*
X155607047Y-157780000D01*
X155688000Y-157875238D01*
X156416571Y-157684761D02*
X156416571Y-159303809D01*
X156497523Y-159494285D01*
X156578476Y-159589523D01*
X156740380Y-159684761D01*
X157064190Y-159684761D01*
X157226095Y-159589523D01*
X157307047Y-159494285D01*
X157388000Y-159303809D01*
X157388000Y-157684761D01*
X157954666Y-157684761D02*
X158926095Y-157684761D01*
X158440380Y-159684761D02*
X158440380Y-157684761D01*
X159411809Y-159589523D02*
X159654666Y-159684761D01*
X160059428Y-159684761D01*
X160221333Y-159589523D01*
X160302285Y-159494285D01*
X160383238Y-159303809D01*
X160383238Y-159113333D01*
X160302285Y-158922857D01*
X160221333Y-158827619D01*
X160059428Y-158732380D01*
X159735619Y-158637142D01*
X159573714Y-158541904D01*
X159492761Y-158446666D01*
X159411809Y-158256190D01*
X159411809Y-158065714D01*
X159492761Y-157875238D01*
X159573714Y-157780000D01*
X159735619Y-157684761D01*
X160140380Y-157684761D01*
X160383238Y-157780000D01*
X162973714Y-158637142D02*
X162407047Y-158637142D01*
X162407047Y-159684761D02*
X162407047Y-157684761D01*
X163216571Y-157684761D01*
X164835619Y-159684761D02*
X164268952Y-158732380D01*
X163864190Y-159684761D02*
X163864190Y-157684761D01*
X164511809Y-157684761D01*
X164673714Y-157780000D01*
X164754666Y-157875238D01*
X164835619Y-158065714D01*
X164835619Y-158351428D01*
X164754666Y-158541904D01*
X164673714Y-158637142D01*
X164511809Y-158732380D01*
X163864190Y-158732380D01*
X165888000Y-157684761D02*
X166211809Y-157684761D01*
X166373714Y-157780000D01*
X166535619Y-157970476D01*
X166616571Y-158351428D01*
X166616571Y-159018095D01*
X166535619Y-159399047D01*
X166373714Y-159589523D01*
X166211809Y-159684761D01*
X165888000Y-159684761D01*
X165726095Y-159589523D01*
X165564190Y-159399047D01*
X165483238Y-159018095D01*
X165483238Y-158351428D01*
X165564190Y-157970476D01*
X165726095Y-157780000D01*
X165888000Y-157684761D01*
X167345142Y-159684761D02*
X167345142Y-157684761D01*
X167911809Y-159113333D01*
X168478476Y-157684761D01*
X168478476Y-159684761D01*
X171554666Y-159494285D02*
X171473714Y-159589523D01*
X171230857Y-159684761D01*
X171068952Y-159684761D01*
X170826095Y-159589523D01*
X170664190Y-159399047D01*
X170583238Y-159208571D01*
X170502285Y-158827619D01*
X170502285Y-158541904D01*
X170583238Y-158160952D01*
X170664190Y-157970476D01*
X170826095Y-157780000D01*
X171068952Y-157684761D01*
X171230857Y-157684761D01*
X171473714Y-157780000D01*
X171554666Y-157875238D01*
X172202285Y-159113333D02*
X173011809Y-159113333D01*
X172040380Y-159684761D02*
X172607047Y-157684761D01*
X173173714Y-159684761D01*
X173740380Y-159684761D02*
X173740380Y-157684761D01*
X174307047Y-159113333D01*
X174873714Y-157684761D01*
X174873714Y-159684761D01*
X175683238Y-158637142D02*
X176249904Y-158637142D01*
X176492761Y-159684761D02*
X175683238Y-159684761D01*
X175683238Y-157684761D01*
X176492761Y-157684761D01*
X178192761Y-159684761D02*
X177626095Y-158732380D01*
X177221333Y-159684761D02*
X177221333Y-157684761D01*
X177868952Y-157684761D01*
X178030857Y-157780000D01*
X178111809Y-157875238D01*
X178192761Y-158065714D01*
X178192761Y-158351428D01*
X178111809Y-158541904D01*
X178030857Y-158637142D01*
X177868952Y-158732380D01*
X177221333Y-158732380D01*
X178840380Y-159113333D02*
X179649904Y-159113333D01*
X178678476Y-159684761D02*
X179245142Y-157684761D01*
X179811809Y-159684761D01*
X181592761Y-159113333D02*
X182402285Y-159113333D01*
X181430857Y-159684761D02*
X181997523Y-157684761D01*
X182564190Y-159684761D01*
X183130857Y-159684761D02*
X183130857Y-157684761D01*
X184102285Y-159684761D01*
X184102285Y-157684761D01*
X184911809Y-159684761D02*
X184911809Y-157684761D01*
X185316571Y-157684761D01*
X185559428Y-157780000D01*
X185721333Y-157970476D01*
X185802285Y-158160952D01*
X185883238Y-158541904D01*
X185883238Y-158827619D01*
X185802285Y-159208571D01*
X185721333Y-159399047D01*
X185559428Y-159589523D01*
X185316571Y-159684761D01*
X184911809Y-159684761D01*
X187907047Y-159684761D02*
X187907047Y-157684761D01*
X188311809Y-157684761D01*
X188554666Y-157780000D01*
X188716571Y-157970476D01*
X188797523Y-158160952D01*
X188878476Y-158541904D01*
X188878476Y-158827619D01*
X188797523Y-159208571D01*
X188716571Y-159399047D01*
X188554666Y-159589523D01*
X188311809Y-159684761D01*
X187907047Y-159684761D01*
X189607047Y-159684761D02*
X189607047Y-157684761D01*
X190335619Y-159589523D02*
X190578476Y-159684761D01*
X190983238Y-159684761D01*
X191145142Y-159589523D01*
X191226095Y-159494285D01*
X191307047Y-159303809D01*
X191307047Y-159113333D01*
X191226095Y-158922857D01*
X191145142Y-158827619D01*
X190983238Y-158732380D01*
X190659428Y-158637142D01*
X190497523Y-158541904D01*
X190416571Y-158446666D01*
X190335619Y-158256190D01*
X190335619Y-158065714D01*
X190416571Y-157875238D01*
X190497523Y-157780000D01*
X190659428Y-157684761D01*
X191064190Y-157684761D01*
X191307047Y-157780000D01*
X192035619Y-159684761D02*
X192035619Y-157684761D01*
X192683238Y-157684761D01*
X192845142Y-157780000D01*
X192926095Y-157875238D01*
X193007047Y-158065714D01*
X193007047Y-158351428D01*
X192926095Y-158541904D01*
X192845142Y-158637142D01*
X192683238Y-158732380D01*
X192035619Y-158732380D01*
X194545142Y-159684761D02*
X193735619Y-159684761D01*
X193735619Y-157684761D01*
X195030857Y-159113333D02*
X195840380Y-159113333D01*
X194868952Y-159684761D02*
X195435619Y-157684761D01*
X196002285Y-159684761D01*
X196892761Y-158732380D02*
X196892761Y-159684761D01*
X196326095Y-157684761D02*
X196892761Y-158732380D01*
X197459428Y-157684761D01*
X199321333Y-159684761D02*
X199321333Y-157684761D01*
X199968952Y-157684761D01*
X200130857Y-157780000D01*
X200211809Y-157875238D01*
X200292761Y-158065714D01*
X200292761Y-158351428D01*
X200211809Y-158541904D01*
X200130857Y-158637142D01*
X199968952Y-158732380D01*
X199321333Y-158732380D01*
X201345142Y-157684761D02*
X201668952Y-157684761D01*
X201830857Y-157780000D01*
X201992761Y-157970476D01*
X202073714Y-158351428D01*
X202073714Y-159018095D01*
X201992761Y-159399047D01*
X201830857Y-159589523D01*
X201668952Y-159684761D01*
X201345142Y-159684761D01*
X201183238Y-159589523D01*
X201021333Y-159399047D01*
X200940380Y-159018095D01*
X200940380Y-158351428D01*
X201021333Y-157970476D01*
X201183238Y-157780000D01*
X201345142Y-157684761D01*
X203773714Y-159684761D02*
X203207047Y-158732380D01*
X202802285Y-159684761D02*
X202802285Y-157684761D01*
X203449904Y-157684761D01*
X203611809Y-157780000D01*
X203692761Y-157875238D01*
X203773714Y-158065714D01*
X203773714Y-158351428D01*
X203692761Y-158541904D01*
X203611809Y-158637142D01*
X203449904Y-158732380D01*
X202802285Y-158732380D01*
X204259428Y-157684761D02*
X205230857Y-157684761D01*
X204745142Y-159684761D02*
X204745142Y-157684761D01*
X205716571Y-159589523D02*
X205959428Y-159684761D01*
X206364190Y-159684761D01*
X206526095Y-159589523D01*
X206607047Y-159494285D01*
X206688000Y-159303809D01*
X206688000Y-159113333D01*
X206607047Y-158922857D01*
X206526095Y-158827619D01*
X206364190Y-158732380D01*
X206040380Y-158637142D01*
X205878476Y-158541904D01*
X205797523Y-158446666D01*
X205716571Y-158256190D01*
X205716571Y-158065714D01*
X205797523Y-157875238D01*
X205878476Y-157780000D01*
X206040380Y-157684761D01*
X206445142Y-157684761D01*
X206688000Y-157780000D01*
X208630857Y-159113333D02*
X209440380Y-159113333D01*
X208468952Y-159684761D02*
X209035619Y-157684761D01*
X209602285Y-159684761D01*
X210088000Y-159589523D02*
X210330857Y-159684761D01*
X210735619Y-159684761D01*
X210897523Y-159589523D01*
X210978476Y-159494285D01*
X211059428Y-159303809D01*
X211059428Y-159113333D01*
X210978476Y-158922857D01*
X210897523Y-158827619D01*
X210735619Y-158732380D01*
X210411809Y-158637142D01*
X210249904Y-158541904D01*
X210168952Y-158446666D01*
X210088000Y-158256190D01*
X210088000Y-158065714D01*
X210168952Y-157875238D01*
X210249904Y-157780000D01*
X210411809Y-157684761D01*
X210816571Y-157684761D01*
X211059428Y-157780000D01*
X214054666Y-159684761D02*
X213488000Y-158732380D01*
X213083238Y-159684761D02*
X213083238Y-157684761D01*
X213730857Y-157684761D01*
X213892761Y-157780000D01*
X213973714Y-157875238D01*
X214054666Y-158065714D01*
X214054666Y-158351428D01*
X213973714Y-158541904D01*
X213892761Y-158637142D01*
X213730857Y-158732380D01*
X213083238Y-158732380D01*
X214783238Y-158637142D02*
X215349904Y-158637142D01*
X215592761Y-159684761D02*
X214783238Y-159684761D01*
X214783238Y-157684761D01*
X215592761Y-157684761D01*
X217454666Y-159875238D02*
X217292761Y-159780000D01*
X217130857Y-159589523D01*
X216888000Y-159303809D01*
X216726095Y-159208571D01*
X216564190Y-159208571D01*
X216645142Y-159684761D02*
X216483238Y-159589523D01*
X216321333Y-159399047D01*
X216240380Y-159018095D01*
X216240380Y-158351428D01*
X216321333Y-157970476D01*
X216483238Y-157780000D01*
X216645142Y-157684761D01*
X216968952Y-157684761D01*
X217130857Y-157780000D01*
X217292761Y-157970476D01*
X217373714Y-158351428D01*
X217373714Y-159018095D01*
X217292761Y-159399047D01*
X217130857Y-159589523D01*
X216968952Y-159684761D01*
X216645142Y-159684761D01*
X218102285Y-157684761D02*
X218102285Y-159303809D01*
X218183238Y-159494285D01*
X218264190Y-159589523D01*
X218426095Y-159684761D01*
X218749904Y-159684761D01*
X218911809Y-159589523D01*
X218992761Y-159494285D01*
X219073714Y-159303809D01*
X219073714Y-157684761D01*
X219883238Y-159684761D02*
X219883238Y-157684761D01*
X221664190Y-159684761D02*
X221097523Y-158732380D01*
X220692761Y-159684761D02*
X220692761Y-157684761D01*
X221340380Y-157684761D01*
X221502285Y-157780000D01*
X221583238Y-157875238D01*
X221664190Y-158065714D01*
X221664190Y-158351428D01*
X221583238Y-158541904D01*
X221502285Y-158637142D01*
X221340380Y-158732380D01*
X220692761Y-158732380D01*
X222392761Y-158637142D02*
X222959428Y-158637142D01*
X223202285Y-159684761D02*
X222392761Y-159684761D01*
X222392761Y-157684761D01*
X223202285Y-157684761D01*
X223930857Y-159684761D02*
X223930857Y-157684761D01*
X224335619Y-157684761D01*
X224578476Y-157780000D01*
X224740380Y-157970476D01*
X224821333Y-158160952D01*
X224902285Y-158541904D01*
X224902285Y-158827619D01*
X224821333Y-159208571D01*
X224740380Y-159399047D01*
X224578476Y-159589523D01*
X224335619Y-159684761D01*
X223930857Y-159684761D01*
M02*
