G04 #@! TF.GenerationSoftware,KiCad,Pcbnew,(5.1.5)-3*
G04 #@! TF.CreationDate,2020-03-15T22:36:38-07:00*
G04 #@! TF.ProjectId,pihat,70696861-742e-46b6-9963-61645f706362,rev?*
G04 #@! TF.SameCoordinates,Original*
G04 #@! TF.FileFunction,Legend,Top*
G04 #@! TF.FilePolarity,Positive*
%FSLAX46Y46*%
G04 Gerber Fmt 4.6, Leading zero omitted, Abs format (unit mm)*
G04 Created by KiCad (PCBNEW (5.1.5)-3) date 2020-03-15 22:36:38*
%MOMM*%
%LPD*%
G04 APERTURE LIST*
%ADD10C,0.120000*%
%ADD11C,0.150000*%
G04 APERTURE END LIST*
D10*
X229985000Y-125380000D02*
X219785000Y-125380000D01*
X229985000Y-107180000D02*
X229985000Y-125380000D01*
X219785000Y-107180000D02*
X229985000Y-107180000D01*
X219785000Y-125380000D02*
X219785000Y-107180000D01*
X235640000Y-128920000D02*
X235640000Y-129120000D01*
X245640000Y-128920000D02*
X245640000Y-129120000D01*
X235640000Y-118720000D02*
X240640000Y-118720000D01*
X235640000Y-128920000D02*
X235640000Y-118720000D01*
X245640000Y-129120000D02*
X235640000Y-129120000D01*
X245640000Y-118720000D02*
X245640000Y-128920000D01*
X240640000Y-118720000D02*
X245640000Y-118720000D01*
X244190000Y-123970000D02*
G75*
G03X244190000Y-123970000I-3550000J0D01*
G01*
X237280436Y-132495000D02*
X238484564Y-132495000D01*
X237280436Y-130675000D02*
X238484564Y-130675000D01*
X254610000Y-119500000D02*
X251160000Y-119500000D01*
X254610000Y-119500000D02*
X256560000Y-119500000D01*
X254610000Y-124620000D02*
X252660000Y-124620000D01*
X254610000Y-124620000D02*
X256560000Y-124620000D01*
X219610000Y-138613922D02*
X219610000Y-139131078D01*
X221030000Y-138613922D02*
X221030000Y-139131078D01*
X252778922Y-129120000D02*
X253296078Y-129120000D01*
X252778922Y-127700000D02*
X253296078Y-127700000D01*
X248333922Y-129120000D02*
X248851078Y-129120000D01*
X248333922Y-127700000D02*
X248851078Y-127700000D01*
X217220000Y-104206078D02*
X217220000Y-103688922D01*
X215800000Y-104206078D02*
X215800000Y-103688922D01*
X213410000Y-104098578D02*
X213410000Y-103581422D01*
X211990000Y-104098578D02*
X211990000Y-103581422D01*
X213260000Y-116388922D02*
X213260000Y-116906078D01*
X214680000Y-116388922D02*
X214680000Y-116906078D01*
X208963922Y-121500000D02*
X209481078Y-121500000D01*
X208963922Y-120080000D02*
X209481078Y-120080000D01*
X213260000Y-107498922D02*
X213260000Y-108016078D01*
X214680000Y-107498922D02*
X214680000Y-108016078D01*
X208963922Y-112610000D02*
X209481078Y-112610000D01*
X208963922Y-111190000D02*
X209481078Y-111190000D01*
X238484564Y-133850000D02*
X237280436Y-133850000D01*
X238484564Y-135670000D02*
X237280436Y-135670000D01*
X247350000Y-117777936D02*
X247350000Y-118982064D01*
X249170000Y-117777936D02*
X249170000Y-118982064D01*
X233130000Y-137240000D02*
X231480000Y-137240000D01*
X233130000Y-147520000D02*
X233130000Y-137240000D01*
X227830000Y-147520000D02*
X233130000Y-147520000D01*
X227830000Y-137240000D02*
X227830000Y-147520000D01*
X229480000Y-137240000D02*
X227830000Y-137240000D01*
X231480000Y-137240000D02*
G75*
G02X229480000Y-137240000I-1000000J0D01*
G01*
X233715354Y-109160000D02*
X233715354Y-110160000D01*
X233215354Y-109660000D02*
X234215354Y-109660000D01*
X243776000Y-111936000D02*
X243776000Y-113134000D01*
X243736000Y-111673000D02*
X243736000Y-113397000D01*
X243696000Y-111473000D02*
X243696000Y-113597000D01*
X243656000Y-111305000D02*
X243656000Y-113765000D01*
X243616000Y-111157000D02*
X243616000Y-113913000D01*
X243576000Y-111025000D02*
X243576000Y-114045000D01*
X243536000Y-110905000D02*
X243536000Y-114165000D01*
X243496000Y-110793000D02*
X243496000Y-114277000D01*
X243456000Y-110689000D02*
X243456000Y-114381000D01*
X243416000Y-110591000D02*
X243416000Y-114479000D01*
X243376000Y-110498000D02*
X243376000Y-114572000D01*
X243336000Y-110410000D02*
X243336000Y-114660000D01*
X243296000Y-110326000D02*
X243296000Y-114744000D01*
X243256000Y-110246000D02*
X243256000Y-114824000D01*
X243216000Y-110170000D02*
X243216000Y-114900000D01*
X243176000Y-110096000D02*
X243176000Y-114974000D01*
X243136000Y-110025000D02*
X243136000Y-115045000D01*
X243096000Y-109956000D02*
X243096000Y-115114000D01*
X243056000Y-109890000D02*
X243056000Y-115180000D01*
X243016000Y-109826000D02*
X243016000Y-115244000D01*
X242976000Y-109765000D02*
X242976000Y-115305000D01*
X242936000Y-109705000D02*
X242936000Y-115365000D01*
X242896000Y-109646000D02*
X242896000Y-115424000D01*
X242856000Y-109590000D02*
X242856000Y-115480000D01*
X242816000Y-109535000D02*
X242816000Y-115535000D01*
X242776000Y-109481000D02*
X242776000Y-115589000D01*
X242736000Y-109429000D02*
X242736000Y-115641000D01*
X242696000Y-109379000D02*
X242696000Y-115691000D01*
X242656000Y-109329000D02*
X242656000Y-115741000D01*
X242616000Y-109281000D02*
X242616000Y-115789000D01*
X242576000Y-109234000D02*
X242576000Y-115836000D01*
X242536000Y-109188000D02*
X242536000Y-115882000D01*
X242496000Y-109143000D02*
X242496000Y-115927000D01*
X242456000Y-109099000D02*
X242456000Y-115971000D01*
X242416000Y-113776000D02*
X242416000Y-116013000D01*
X242416000Y-109057000D02*
X242416000Y-111294000D01*
X242376000Y-113776000D02*
X242376000Y-116055000D01*
X242376000Y-109015000D02*
X242376000Y-111294000D01*
X242336000Y-113776000D02*
X242336000Y-116096000D01*
X242336000Y-108974000D02*
X242336000Y-111294000D01*
X242296000Y-113776000D02*
X242296000Y-116136000D01*
X242296000Y-108934000D02*
X242296000Y-111294000D01*
X242256000Y-113776000D02*
X242256000Y-116175000D01*
X242256000Y-108895000D02*
X242256000Y-111294000D01*
X242216000Y-113776000D02*
X242216000Y-116214000D01*
X242216000Y-108856000D02*
X242216000Y-111294000D01*
X242176000Y-113776000D02*
X242176000Y-116251000D01*
X242176000Y-108819000D02*
X242176000Y-111294000D01*
X242136000Y-113776000D02*
X242136000Y-116288000D01*
X242136000Y-108782000D02*
X242136000Y-111294000D01*
X242096000Y-113776000D02*
X242096000Y-116324000D01*
X242096000Y-108746000D02*
X242096000Y-111294000D01*
X242056000Y-113776000D02*
X242056000Y-116359000D01*
X242056000Y-108711000D02*
X242056000Y-111294000D01*
X242016000Y-113776000D02*
X242016000Y-116393000D01*
X242016000Y-108677000D02*
X242016000Y-111294000D01*
X241976000Y-113776000D02*
X241976000Y-116427000D01*
X241976000Y-108643000D02*
X241976000Y-111294000D01*
X241936000Y-113776000D02*
X241936000Y-116460000D01*
X241936000Y-108610000D02*
X241936000Y-111294000D01*
X241896000Y-113776000D02*
X241896000Y-116492000D01*
X241896000Y-108578000D02*
X241896000Y-111294000D01*
X241856000Y-113776000D02*
X241856000Y-116524000D01*
X241856000Y-108546000D02*
X241856000Y-111294000D01*
X241816000Y-113776000D02*
X241816000Y-116555000D01*
X241816000Y-108515000D02*
X241816000Y-111294000D01*
X241776000Y-113776000D02*
X241776000Y-116585000D01*
X241776000Y-108485000D02*
X241776000Y-111294000D01*
X241736000Y-113776000D02*
X241736000Y-116615000D01*
X241736000Y-108455000D02*
X241736000Y-111294000D01*
X241696000Y-113776000D02*
X241696000Y-116645000D01*
X241696000Y-108425000D02*
X241696000Y-111294000D01*
X241656000Y-113776000D02*
X241656000Y-116673000D01*
X241656000Y-108397000D02*
X241656000Y-111294000D01*
X241616000Y-113776000D02*
X241616000Y-116701000D01*
X241616000Y-108369000D02*
X241616000Y-111294000D01*
X241576000Y-113776000D02*
X241576000Y-116729000D01*
X241576000Y-108341000D02*
X241576000Y-111294000D01*
X241536000Y-113776000D02*
X241536000Y-116756000D01*
X241536000Y-108314000D02*
X241536000Y-111294000D01*
X241496000Y-113776000D02*
X241496000Y-116782000D01*
X241496000Y-108288000D02*
X241496000Y-111294000D01*
X241456000Y-113776000D02*
X241456000Y-116808000D01*
X241456000Y-108262000D02*
X241456000Y-111294000D01*
X241416000Y-113776000D02*
X241416000Y-116833000D01*
X241416000Y-108237000D02*
X241416000Y-111294000D01*
X241376000Y-113776000D02*
X241376000Y-116858000D01*
X241376000Y-108212000D02*
X241376000Y-111294000D01*
X241336000Y-113776000D02*
X241336000Y-116882000D01*
X241336000Y-108188000D02*
X241336000Y-111294000D01*
X241296000Y-113776000D02*
X241296000Y-116906000D01*
X241296000Y-108164000D02*
X241296000Y-111294000D01*
X241256000Y-113776000D02*
X241256000Y-116930000D01*
X241256000Y-108140000D02*
X241256000Y-111294000D01*
X241216000Y-113776000D02*
X241216000Y-116952000D01*
X241216000Y-108118000D02*
X241216000Y-111294000D01*
X241176000Y-113776000D02*
X241176000Y-116975000D01*
X241176000Y-108095000D02*
X241176000Y-111294000D01*
X241136000Y-113776000D02*
X241136000Y-116997000D01*
X241136000Y-108073000D02*
X241136000Y-111294000D01*
X241096000Y-113776000D02*
X241096000Y-117018000D01*
X241096000Y-108052000D02*
X241096000Y-111294000D01*
X241056000Y-113776000D02*
X241056000Y-117039000D01*
X241056000Y-108031000D02*
X241056000Y-111294000D01*
X241016000Y-113776000D02*
X241016000Y-117060000D01*
X241016000Y-108010000D02*
X241016000Y-111294000D01*
X240976000Y-113776000D02*
X240976000Y-117080000D01*
X240976000Y-107990000D02*
X240976000Y-111294000D01*
X240936000Y-113776000D02*
X240936000Y-117099000D01*
X240936000Y-107971000D02*
X240936000Y-111294000D01*
X240896000Y-113776000D02*
X240896000Y-117119000D01*
X240896000Y-107951000D02*
X240896000Y-111294000D01*
X240856000Y-113776000D02*
X240856000Y-117138000D01*
X240856000Y-107932000D02*
X240856000Y-111294000D01*
X240816000Y-113776000D02*
X240816000Y-117156000D01*
X240816000Y-107914000D02*
X240816000Y-111294000D01*
X240776000Y-113776000D02*
X240776000Y-117174000D01*
X240776000Y-107896000D02*
X240776000Y-111294000D01*
X240736000Y-113776000D02*
X240736000Y-117192000D01*
X240736000Y-107878000D02*
X240736000Y-111294000D01*
X240696000Y-113776000D02*
X240696000Y-117209000D01*
X240696000Y-107861000D02*
X240696000Y-111294000D01*
X240656000Y-113776000D02*
X240656000Y-117225000D01*
X240656000Y-107845000D02*
X240656000Y-111294000D01*
X240616000Y-113776000D02*
X240616000Y-117242000D01*
X240616000Y-107828000D02*
X240616000Y-111294000D01*
X240576000Y-113776000D02*
X240576000Y-117258000D01*
X240576000Y-107812000D02*
X240576000Y-111294000D01*
X240536000Y-113776000D02*
X240536000Y-117273000D01*
X240536000Y-107797000D02*
X240536000Y-111294000D01*
X240496000Y-113776000D02*
X240496000Y-117289000D01*
X240496000Y-107781000D02*
X240496000Y-111294000D01*
X240456000Y-113776000D02*
X240456000Y-117303000D01*
X240456000Y-107767000D02*
X240456000Y-111294000D01*
X240416000Y-113776000D02*
X240416000Y-117318000D01*
X240416000Y-107752000D02*
X240416000Y-111294000D01*
X240376000Y-113776000D02*
X240376000Y-117332000D01*
X240376000Y-107738000D02*
X240376000Y-111294000D01*
X240336000Y-113776000D02*
X240336000Y-117346000D01*
X240336000Y-107724000D02*
X240336000Y-111294000D01*
X240296000Y-113776000D02*
X240296000Y-117359000D01*
X240296000Y-107711000D02*
X240296000Y-111294000D01*
X240256000Y-113776000D02*
X240256000Y-117372000D01*
X240256000Y-107698000D02*
X240256000Y-111294000D01*
X240216000Y-113776000D02*
X240216000Y-117385000D01*
X240216000Y-107685000D02*
X240216000Y-111294000D01*
X240176000Y-113776000D02*
X240176000Y-117397000D01*
X240176000Y-107673000D02*
X240176000Y-111294000D01*
X240136000Y-113776000D02*
X240136000Y-117409000D01*
X240136000Y-107661000D02*
X240136000Y-111294000D01*
X240096000Y-113776000D02*
X240096000Y-117420000D01*
X240096000Y-107650000D02*
X240096000Y-111294000D01*
X240056000Y-113776000D02*
X240056000Y-117432000D01*
X240056000Y-107638000D02*
X240056000Y-111294000D01*
X240016000Y-113776000D02*
X240016000Y-117442000D01*
X240016000Y-107628000D02*
X240016000Y-111294000D01*
X239976000Y-113776000D02*
X239976000Y-117453000D01*
X239976000Y-107617000D02*
X239976000Y-111294000D01*
X239936000Y-107607000D02*
X239936000Y-117463000D01*
X239896000Y-107597000D02*
X239896000Y-117473000D01*
X239856000Y-107588000D02*
X239856000Y-117482000D01*
X239816000Y-107579000D02*
X239816000Y-117491000D01*
X239776000Y-107570000D02*
X239776000Y-117500000D01*
X239736000Y-107561000D02*
X239736000Y-117509000D01*
X239696000Y-107553000D02*
X239696000Y-117517000D01*
X239656000Y-107545000D02*
X239656000Y-117525000D01*
X239616000Y-107538000D02*
X239616000Y-117532000D01*
X239576000Y-107531000D02*
X239576000Y-117539000D01*
X239536000Y-107524000D02*
X239536000Y-117546000D01*
X239496000Y-107517000D02*
X239496000Y-117553000D01*
X239456000Y-107511000D02*
X239456000Y-117559000D01*
X239416000Y-107505000D02*
X239416000Y-117565000D01*
X239375000Y-107500000D02*
X239375000Y-117570000D01*
X239335000Y-107495000D02*
X239335000Y-117575000D01*
X239295000Y-107490000D02*
X239295000Y-117580000D01*
X239255000Y-107485000D02*
X239255000Y-117585000D01*
X239215000Y-107481000D02*
X239215000Y-117589000D01*
X239175000Y-107477000D02*
X239175000Y-117593000D01*
X239135000Y-107473000D02*
X239135000Y-117597000D01*
X239095000Y-107470000D02*
X239095000Y-117600000D01*
X239055000Y-107467000D02*
X239055000Y-117603000D01*
X239015000Y-107465000D02*
X239015000Y-117605000D01*
X238975000Y-107462000D02*
X238975000Y-117608000D01*
X238935000Y-107460000D02*
X238935000Y-117610000D01*
X238895000Y-107458000D02*
X238895000Y-117612000D01*
X238855000Y-107457000D02*
X238855000Y-117613000D01*
X238815000Y-107456000D02*
X238815000Y-117614000D01*
X238775000Y-107455000D02*
X238775000Y-117615000D01*
X238735000Y-107455000D02*
X238735000Y-117615000D01*
X238695000Y-107455000D02*
X238695000Y-117615000D01*
X243815000Y-112535000D02*
G75*
G03X243815000Y-112535000I-5120000J0D01*
G01*
X230415000Y-130295000D02*
X226965000Y-130295000D01*
X230415000Y-130295000D02*
X232365000Y-130295000D01*
X230415000Y-135415000D02*
X228465000Y-135415000D01*
X230415000Y-135415000D02*
X232365000Y-135415000D01*
X205140000Y-136090000D02*
X203810000Y-136090000D01*
X205140000Y-134760000D02*
X205140000Y-136090000D01*
X205140000Y-133490000D02*
X202480000Y-133490000D01*
X202480000Y-133490000D02*
X202480000Y-125810000D01*
X205140000Y-133490000D02*
X205140000Y-125810000D01*
X205140000Y-125810000D02*
X202480000Y-125810000D01*
X202480000Y-114380000D02*
X203810000Y-114380000D01*
X202480000Y-115710000D02*
X202480000Y-114380000D01*
X202480000Y-116980000D02*
X205140000Y-116980000D01*
X205140000Y-116980000D02*
X205140000Y-122120000D01*
X202480000Y-116980000D02*
X202480000Y-122120000D01*
X202480000Y-122120000D02*
X205140000Y-122120000D01*
X202480000Y-104220000D02*
X203810000Y-104220000D01*
X202480000Y-105550000D02*
X202480000Y-104220000D01*
X202480000Y-106820000D02*
X205140000Y-106820000D01*
X205140000Y-106820000D02*
X205140000Y-111960000D01*
X202480000Y-106820000D02*
X202480000Y-111960000D01*
X202480000Y-111960000D02*
X205140000Y-111960000D01*
X209400000Y-106510000D02*
X210860000Y-106510000D01*
X209400000Y-109670000D02*
X211560000Y-109670000D01*
X209400000Y-109670000D02*
X209400000Y-108740000D01*
X209400000Y-106510000D02*
X209400000Y-107440000D01*
X209400000Y-115400000D02*
X210860000Y-115400000D01*
X209400000Y-118560000D02*
X211560000Y-118560000D01*
X209400000Y-118560000D02*
X209400000Y-117630000D01*
X209400000Y-115400000D02*
X209400000Y-116330000D01*
X248520000Y-141840000D02*
X248520000Y-148040000D01*
X248520000Y-148040000D02*
X248710000Y-148040000D01*
X254060000Y-134430000D02*
X254060000Y-133920000D01*
X254060000Y-133920000D02*
X255550000Y-133920000D01*
X255550000Y-133920000D02*
X255550000Y-141840000D01*
X255550000Y-141840000D02*
X254500000Y-141840000D01*
X254060000Y-138420000D02*
X254060000Y-137630000D01*
X248520000Y-141840000D02*
X247470000Y-141840000D01*
X247470000Y-141840000D02*
X247470000Y-133920000D01*
X247470000Y-133920000D02*
X248960000Y-133920000D01*
X248960000Y-133920000D02*
X248960000Y-134420000D01*
X248960000Y-137730000D02*
X248960000Y-138420000D01*
X254310000Y-148040000D02*
X254500000Y-148040000D01*
X254500000Y-148040000D02*
X254500000Y-141840000D01*
X248950000Y-138420000D02*
X250790000Y-138420000D01*
X252230000Y-138420000D02*
X254070000Y-138420000D01*
X248710000Y-148040000D02*
X248710000Y-149540000D01*
X248710000Y-149540000D02*
X250350000Y-149540000D01*
X250350000Y-149540000D02*
X250350000Y-148040000D01*
X250790000Y-138420000D02*
X250790000Y-137730000D01*
X251140000Y-135920000D02*
X251880000Y-135920000D01*
X252230000Y-137030000D02*
X252230000Y-138420000D01*
X252670000Y-148040000D02*
X252670000Y-149540000D01*
X252670000Y-149540000D02*
X254310000Y-149540000D01*
X254310000Y-149540000D02*
X254310000Y-148040000D01*
X250350000Y-148040000D02*
X252670000Y-148040000D01*
X249530000Y-134420000D02*
X247920000Y-134420000D01*
X247920000Y-134420000D02*
X247920000Y-136030000D01*
X218595000Y-133690000D02*
X218595000Y-130750000D01*
X218595000Y-130750000D02*
X213155000Y-130750000D01*
X213155000Y-130750000D02*
X213155000Y-133690000D01*
X213155000Y-133690000D02*
X218595000Y-133690000D01*
X219615000Y-132220000D02*
X218595000Y-132220000D01*
X212135000Y-132220000D02*
X213155000Y-132220000D01*
X217695000Y-133690000D02*
X217695000Y-130750000D01*
X217575000Y-133690000D02*
X217575000Y-130750000D01*
X217815000Y-133690000D02*
X217815000Y-130750000D01*
X223570000Y-138613922D02*
X223570000Y-139131078D01*
X222150000Y-138613922D02*
X222150000Y-139131078D01*
X261362335Y-136221392D02*
G75*
G03X258130000Y-136064484I-1672335J-1078608D01*
G01*
X261362335Y-138378608D02*
G75*
G02X258130000Y-138535516I-1672335J1078608D01*
G01*
X260731130Y-136220163D02*
G75*
G03X258649039Y-136220000I-1041130J-1079837D01*
G01*
X260731130Y-138379837D02*
G75*
G02X258649039Y-138380000I-1041130J1079837D01*
G01*
X258130000Y-136064000D02*
X258130000Y-136220000D01*
X258130000Y-138380000D02*
X258130000Y-138536000D01*
X261520000Y-132726252D02*
X261520000Y-132203748D01*
X262940000Y-132726252D02*
X262940000Y-132203748D01*
X228172665Y-104088608D02*
G75*
G03X231405000Y-104245516I1672335J1078608D01*
G01*
X228172665Y-101931392D02*
G75*
G02X231405000Y-101774484I1672335J-1078608D01*
G01*
X228803870Y-104089837D02*
G75*
G03X230885961Y-104090000I1041130J1079837D01*
G01*
X228803870Y-101930163D02*
G75*
G02X230885961Y-101930000I1041130J-1079837D01*
G01*
X231405000Y-104246000D02*
X231405000Y-104090000D01*
X231405000Y-101930000D02*
X231405000Y-101774000D01*
X225416252Y-102450000D02*
X224893748Y-102450000D01*
X225416252Y-101030000D02*
X224893748Y-101030000D01*
X261320000Y-118462064D02*
X261320000Y-117257936D01*
X263140000Y-118462064D02*
X263140000Y-117257936D01*
X263140000Y-125419564D02*
X263140000Y-124215436D01*
X261320000Y-125419564D02*
X261320000Y-124215436D01*
X254043733Y-131075000D02*
X254386267Y-131075000D01*
X254043733Y-132095000D02*
X254386267Y-132095000D01*
D11*
X222733095Y-116432380D02*
X222733095Y-117241904D01*
X222780714Y-117337142D01*
X222828333Y-117384761D01*
X222923571Y-117432380D01*
X223114047Y-117432380D01*
X223209285Y-117384761D01*
X223256904Y-117337142D01*
X223304523Y-117241904D01*
X223304523Y-116432380D01*
X224209285Y-116765714D02*
X224209285Y-117432380D01*
X223971190Y-116384761D02*
X223733095Y-117099047D01*
X224352142Y-117099047D01*
X237933333Y-114892380D02*
X237457142Y-114892380D01*
X237457142Y-113892380D01*
X238790476Y-114892380D02*
X238219047Y-114892380D01*
X238504761Y-114892380D02*
X238504761Y-113892380D01*
X238409523Y-114035238D01*
X238314285Y-114130476D01*
X238219047Y-114178095D01*
X239901904Y-144737380D02*
X239901904Y-143737380D01*
X240282857Y-143737380D01*
X240378095Y-143785000D01*
X240425714Y-143832619D01*
X240473333Y-143927857D01*
X240473333Y-144070714D01*
X240425714Y-144165952D01*
X240378095Y-144213571D01*
X240282857Y-144261190D01*
X239901904Y-144261190D01*
X241330476Y-143737380D02*
X241140000Y-143737380D01*
X241044761Y-143785000D01*
X240997142Y-143832619D01*
X240901904Y-143975476D01*
X240854285Y-144165952D01*
X240854285Y-144546904D01*
X240901904Y-144642142D01*
X240949523Y-144689761D01*
X241044761Y-144737380D01*
X241235238Y-144737380D01*
X241330476Y-144689761D01*
X241378095Y-144642142D01*
X241425714Y-144546904D01*
X241425714Y-144308809D01*
X241378095Y-144213571D01*
X241330476Y-144165952D01*
X241235238Y-144118333D01*
X241044761Y-144118333D01*
X240949523Y-144165952D01*
X240901904Y-144213571D01*
X240854285Y-144308809D01*
X222121904Y-147277380D02*
X222121904Y-146277380D01*
X222502857Y-146277380D01*
X222598095Y-146325000D01*
X222645714Y-146372619D01*
X222693333Y-146467857D01*
X222693333Y-146610714D01*
X222645714Y-146705952D01*
X222598095Y-146753571D01*
X222502857Y-146801190D01*
X222121904Y-146801190D01*
X223598095Y-146277380D02*
X223121904Y-146277380D01*
X223074285Y-146753571D01*
X223121904Y-146705952D01*
X223217142Y-146658333D01*
X223455238Y-146658333D01*
X223550476Y-146705952D01*
X223598095Y-146753571D01*
X223645714Y-146848809D01*
X223645714Y-147086904D01*
X223598095Y-147182142D01*
X223550476Y-147229761D01*
X223455238Y-147277380D01*
X223217142Y-147277380D01*
X223121904Y-147229761D01*
X223074285Y-147182142D01*
X219581904Y-144102380D02*
X219581904Y-143102380D01*
X219962857Y-143102380D01*
X220058095Y-143150000D01*
X220105714Y-143197619D01*
X220153333Y-143292857D01*
X220153333Y-143435714D01*
X220105714Y-143530952D01*
X220058095Y-143578571D01*
X219962857Y-143626190D01*
X219581904Y-143626190D01*
X221010476Y-143435714D02*
X221010476Y-144102380D01*
X220772380Y-143054761D02*
X220534285Y-143769047D01*
X221153333Y-143769047D01*
X237996904Y-142197380D02*
X237996904Y-141197380D01*
X238377857Y-141197380D01*
X238473095Y-141245000D01*
X238520714Y-141292619D01*
X238568333Y-141387857D01*
X238568333Y-141530714D01*
X238520714Y-141625952D01*
X238473095Y-141673571D01*
X238377857Y-141721190D01*
X237996904Y-141721190D01*
X238901666Y-141197380D02*
X239520714Y-141197380D01*
X239187380Y-141578333D01*
X239330238Y-141578333D01*
X239425476Y-141625952D01*
X239473095Y-141673571D01*
X239520714Y-141768809D01*
X239520714Y-142006904D01*
X239473095Y-142102142D01*
X239425476Y-142149761D01*
X239330238Y-142197380D01*
X239044523Y-142197380D01*
X238949285Y-142149761D01*
X238901666Y-142102142D01*
X236091904Y-139657380D02*
X236091904Y-138657380D01*
X236472857Y-138657380D01*
X236568095Y-138705000D01*
X236615714Y-138752619D01*
X236663333Y-138847857D01*
X236663333Y-138990714D01*
X236615714Y-139085952D01*
X236568095Y-139133571D01*
X236472857Y-139181190D01*
X236091904Y-139181190D01*
X237044285Y-138752619D02*
X237091904Y-138705000D01*
X237187142Y-138657380D01*
X237425238Y-138657380D01*
X237520476Y-138705000D01*
X237568095Y-138752619D01*
X237615714Y-138847857D01*
X237615714Y-138943095D01*
X237568095Y-139085952D01*
X236996666Y-139657380D01*
X237615714Y-139657380D01*
X237525357Y-128878333D02*
X237477738Y-128830714D01*
X237430119Y-128687857D01*
X237430119Y-128592619D01*
X237477738Y-128449761D01*
X237572976Y-128354523D01*
X237668214Y-128306904D01*
X237858690Y-128259285D01*
X238001547Y-128259285D01*
X238192023Y-128306904D01*
X238287261Y-128354523D01*
X238382500Y-128449761D01*
X238430119Y-128592619D01*
X238430119Y-128687857D01*
X238382500Y-128830714D01*
X238334880Y-128878333D01*
X238430119Y-129783095D02*
X238430119Y-129306904D01*
X237953928Y-129259285D01*
X238001547Y-129306904D01*
X238049166Y-129402142D01*
X238049166Y-129640238D01*
X238001547Y-129735476D01*
X237953928Y-129783095D01*
X237858690Y-129830714D01*
X237620595Y-129830714D01*
X237525357Y-129783095D01*
X237477738Y-129735476D01*
X237430119Y-129640238D01*
X237430119Y-129402142D01*
X237477738Y-129306904D01*
X237525357Y-129259285D01*
X248768095Y-122147380D02*
X248768095Y-122956904D01*
X248815714Y-123052142D01*
X248863333Y-123099761D01*
X248958571Y-123147380D01*
X249149047Y-123147380D01*
X249244285Y-123099761D01*
X249291904Y-123052142D01*
X249339523Y-122956904D01*
X249339523Y-122147380D01*
X250339523Y-123147380D02*
X249768095Y-123147380D01*
X250053809Y-123147380D02*
X250053809Y-122147380D01*
X249958571Y-122290238D01*
X249863333Y-122385476D01*
X249768095Y-122433095D01*
X220772380Y-136196666D02*
X220296190Y-136530000D01*
X220772380Y-136768095D02*
X219772380Y-136768095D01*
X219772380Y-136387142D01*
X219820000Y-136291904D01*
X219867619Y-136244285D01*
X219962857Y-136196666D01*
X220105714Y-136196666D01*
X220200952Y-136244285D01*
X220248571Y-136291904D01*
X220296190Y-136387142D01*
X220296190Y-136768095D01*
X220772380Y-135720476D02*
X220772380Y-135530000D01*
X220724761Y-135434761D01*
X220677142Y-135387142D01*
X220534285Y-135291904D01*
X220343809Y-135244285D01*
X219962857Y-135244285D01*
X219867619Y-135291904D01*
X219820000Y-135339523D01*
X219772380Y-135434761D01*
X219772380Y-135625238D01*
X219820000Y-135720476D01*
X219867619Y-135768095D01*
X219962857Y-135815714D01*
X220200952Y-135815714D01*
X220296190Y-135768095D01*
X220343809Y-135720476D01*
X220391428Y-135625238D01*
X220391428Y-135434761D01*
X220343809Y-135339523D01*
X220296190Y-135291904D01*
X220200952Y-135244285D01*
X253173333Y-127212380D02*
X252840000Y-126736190D01*
X252601904Y-127212380D02*
X252601904Y-126212380D01*
X252982857Y-126212380D01*
X253078095Y-126260000D01*
X253125714Y-126307619D01*
X253173333Y-126402857D01*
X253173333Y-126545714D01*
X253125714Y-126640952D01*
X253078095Y-126688571D01*
X252982857Y-126736190D01*
X252601904Y-126736190D01*
X253744761Y-126640952D02*
X253649523Y-126593333D01*
X253601904Y-126545714D01*
X253554285Y-126450476D01*
X253554285Y-126402857D01*
X253601904Y-126307619D01*
X253649523Y-126260000D01*
X253744761Y-126212380D01*
X253935238Y-126212380D01*
X254030476Y-126260000D01*
X254078095Y-126307619D01*
X254125714Y-126402857D01*
X254125714Y-126450476D01*
X254078095Y-126545714D01*
X254030476Y-126593333D01*
X253935238Y-126640952D01*
X253744761Y-126640952D01*
X253649523Y-126688571D01*
X253601904Y-126736190D01*
X253554285Y-126831428D01*
X253554285Y-127021904D01*
X253601904Y-127117142D01*
X253649523Y-127164761D01*
X253744761Y-127212380D01*
X253935238Y-127212380D01*
X254030476Y-127164761D01*
X254078095Y-127117142D01*
X254125714Y-127021904D01*
X254125714Y-126831428D01*
X254078095Y-126736190D01*
X254030476Y-126688571D01*
X253935238Y-126640952D01*
X248425833Y-127212380D02*
X248092500Y-126736190D01*
X247854404Y-127212380D02*
X247854404Y-126212380D01*
X248235357Y-126212380D01*
X248330595Y-126260000D01*
X248378214Y-126307619D01*
X248425833Y-126402857D01*
X248425833Y-126545714D01*
X248378214Y-126640952D01*
X248330595Y-126688571D01*
X248235357Y-126736190D01*
X247854404Y-126736190D01*
X248759166Y-126212380D02*
X249425833Y-126212380D01*
X248997261Y-127212380D01*
X215312380Y-104114166D02*
X214836190Y-104447500D01*
X215312380Y-104685595D02*
X214312380Y-104685595D01*
X214312380Y-104304642D01*
X214360000Y-104209404D01*
X214407619Y-104161785D01*
X214502857Y-104114166D01*
X214645714Y-104114166D01*
X214740952Y-104161785D01*
X214788571Y-104209404D01*
X214836190Y-104304642D01*
X214836190Y-104685595D01*
X214312380Y-103257023D02*
X214312380Y-103447500D01*
X214360000Y-103542738D01*
X214407619Y-103590357D01*
X214550476Y-103685595D01*
X214740952Y-103733214D01*
X215121904Y-103733214D01*
X215217142Y-103685595D01*
X215264761Y-103637976D01*
X215312380Y-103542738D01*
X215312380Y-103352261D01*
X215264761Y-103257023D01*
X215217142Y-103209404D01*
X215121904Y-103161785D01*
X214883809Y-103161785D01*
X214788571Y-103209404D01*
X214740952Y-103257023D01*
X214693333Y-103352261D01*
X214693333Y-103542738D01*
X214740952Y-103637976D01*
X214788571Y-103685595D01*
X214883809Y-103733214D01*
X211502380Y-104006666D02*
X211026190Y-104340000D01*
X211502380Y-104578095D02*
X210502380Y-104578095D01*
X210502380Y-104197142D01*
X210550000Y-104101904D01*
X210597619Y-104054285D01*
X210692857Y-104006666D01*
X210835714Y-104006666D01*
X210930952Y-104054285D01*
X210978571Y-104101904D01*
X211026190Y-104197142D01*
X211026190Y-104578095D01*
X210502380Y-103101904D02*
X210502380Y-103578095D01*
X210978571Y-103625714D01*
X210930952Y-103578095D01*
X210883333Y-103482857D01*
X210883333Y-103244761D01*
X210930952Y-103149523D01*
X210978571Y-103101904D01*
X211073809Y-103054285D01*
X211311904Y-103054285D01*
X211407142Y-103101904D01*
X211454761Y-103149523D01*
X211502380Y-103244761D01*
X211502380Y-103482857D01*
X211454761Y-103578095D01*
X211407142Y-103625714D01*
X216072380Y-116814166D02*
X215596190Y-117147500D01*
X216072380Y-117385595D02*
X215072380Y-117385595D01*
X215072380Y-117004642D01*
X215120000Y-116909404D01*
X215167619Y-116861785D01*
X215262857Y-116814166D01*
X215405714Y-116814166D01*
X215500952Y-116861785D01*
X215548571Y-116909404D01*
X215596190Y-117004642D01*
X215596190Y-117385595D01*
X215405714Y-115957023D02*
X216072380Y-115957023D01*
X215024761Y-116195119D02*
X215739047Y-116433214D01*
X215739047Y-115814166D01*
X209055833Y-119592380D02*
X208722500Y-119116190D01*
X208484404Y-119592380D02*
X208484404Y-118592380D01*
X208865357Y-118592380D01*
X208960595Y-118640000D01*
X209008214Y-118687619D01*
X209055833Y-118782857D01*
X209055833Y-118925714D01*
X209008214Y-119020952D01*
X208960595Y-119068571D01*
X208865357Y-119116190D01*
X208484404Y-119116190D01*
X209389166Y-118592380D02*
X210008214Y-118592380D01*
X209674880Y-118973333D01*
X209817738Y-118973333D01*
X209912976Y-119020952D01*
X209960595Y-119068571D01*
X210008214Y-119163809D01*
X210008214Y-119401904D01*
X209960595Y-119497142D01*
X209912976Y-119544761D01*
X209817738Y-119592380D01*
X209532023Y-119592380D01*
X209436785Y-119544761D01*
X209389166Y-119497142D01*
X216072380Y-107924166D02*
X215596190Y-108257500D01*
X216072380Y-108495595D02*
X215072380Y-108495595D01*
X215072380Y-108114642D01*
X215120000Y-108019404D01*
X215167619Y-107971785D01*
X215262857Y-107924166D01*
X215405714Y-107924166D01*
X215500952Y-107971785D01*
X215548571Y-108019404D01*
X215596190Y-108114642D01*
X215596190Y-108495595D01*
X215167619Y-107543214D02*
X215120000Y-107495595D01*
X215072380Y-107400357D01*
X215072380Y-107162261D01*
X215120000Y-107067023D01*
X215167619Y-107019404D01*
X215262857Y-106971785D01*
X215358095Y-106971785D01*
X215500952Y-107019404D01*
X216072380Y-107590833D01*
X216072380Y-106971785D01*
X209055833Y-110702380D02*
X208722500Y-110226190D01*
X208484404Y-110702380D02*
X208484404Y-109702380D01*
X208865357Y-109702380D01*
X208960595Y-109750000D01*
X209008214Y-109797619D01*
X209055833Y-109892857D01*
X209055833Y-110035714D01*
X209008214Y-110130952D01*
X208960595Y-110178571D01*
X208865357Y-110226190D01*
X208484404Y-110226190D01*
X210008214Y-110702380D02*
X209436785Y-110702380D01*
X209722500Y-110702380D02*
X209722500Y-109702380D01*
X209627261Y-109845238D01*
X209532023Y-109940476D01*
X209436785Y-109988095D01*
X237715833Y-136937142D02*
X237668214Y-136984761D01*
X237525357Y-137032380D01*
X237430119Y-137032380D01*
X237287261Y-136984761D01*
X237192023Y-136889523D01*
X237144404Y-136794285D01*
X237096785Y-136603809D01*
X237096785Y-136460952D01*
X237144404Y-136270476D01*
X237192023Y-136175238D01*
X237287261Y-136080000D01*
X237430119Y-136032380D01*
X237525357Y-136032380D01*
X237668214Y-136080000D01*
X237715833Y-136127619D01*
X238572976Y-136365714D02*
X238572976Y-137032380D01*
X238334880Y-135984761D02*
X238096785Y-136699047D01*
X238715833Y-136699047D01*
X250437142Y-118546666D02*
X250484761Y-118594285D01*
X250532380Y-118737142D01*
X250532380Y-118832380D01*
X250484761Y-118975238D01*
X250389523Y-119070476D01*
X250294285Y-119118095D01*
X250103809Y-119165714D01*
X249960952Y-119165714D01*
X249770476Y-119118095D01*
X249675238Y-119070476D01*
X249580000Y-118975238D01*
X249532380Y-118832380D01*
X249532380Y-118737142D01*
X249580000Y-118594285D01*
X249627619Y-118546666D01*
X249627619Y-118165714D02*
X249580000Y-118118095D01*
X249532380Y-118022857D01*
X249532380Y-117784761D01*
X249580000Y-117689523D01*
X249627619Y-117641904D01*
X249722857Y-117594285D01*
X249818095Y-117594285D01*
X249960952Y-117641904D01*
X250532380Y-118213333D01*
X250532380Y-117594285D01*
X229718095Y-135692380D02*
X229718095Y-136501904D01*
X229765714Y-136597142D01*
X229813333Y-136644761D01*
X229908571Y-136692380D01*
X230099047Y-136692380D01*
X230194285Y-136644761D01*
X230241904Y-136597142D01*
X230289523Y-136501904D01*
X230289523Y-135692380D01*
X230670476Y-135692380D02*
X231289523Y-135692380D01*
X230956190Y-136073333D01*
X231099047Y-136073333D01*
X231194285Y-136120952D01*
X231241904Y-136168571D01*
X231289523Y-136263809D01*
X231289523Y-136501904D01*
X231241904Y-136597142D01*
X231194285Y-136644761D01*
X231099047Y-136692380D01*
X230813333Y-136692380D01*
X230718095Y-136644761D01*
X230670476Y-136597142D01*
X238528333Y-106642142D02*
X238480714Y-106689761D01*
X238337857Y-106737380D01*
X238242619Y-106737380D01*
X238099761Y-106689761D01*
X238004523Y-106594523D01*
X237956904Y-106499285D01*
X237909285Y-106308809D01*
X237909285Y-106165952D01*
X237956904Y-105975476D01*
X238004523Y-105880238D01*
X238099761Y-105785000D01*
X238242619Y-105737380D01*
X238337857Y-105737380D01*
X238480714Y-105785000D01*
X238528333Y-105832619D01*
X238861666Y-105737380D02*
X239480714Y-105737380D01*
X239147380Y-106118333D01*
X239290238Y-106118333D01*
X239385476Y-106165952D01*
X239433095Y-106213571D01*
X239480714Y-106308809D01*
X239480714Y-106546904D01*
X239433095Y-106642142D01*
X239385476Y-106689761D01*
X239290238Y-106737380D01*
X239004523Y-106737380D01*
X238909285Y-106689761D01*
X238861666Y-106642142D01*
X224638095Y-130402380D02*
X224638095Y-131211904D01*
X224685714Y-131307142D01*
X224733333Y-131354761D01*
X224828571Y-131402380D01*
X225019047Y-131402380D01*
X225114285Y-131354761D01*
X225161904Y-131307142D01*
X225209523Y-131211904D01*
X225209523Y-130402380D01*
X225638095Y-130497619D02*
X225685714Y-130450000D01*
X225780952Y-130402380D01*
X226019047Y-130402380D01*
X226114285Y-130450000D01*
X226161904Y-130497619D01*
X226209523Y-130592857D01*
X226209523Y-130688095D01*
X226161904Y-130830952D01*
X225590476Y-131402380D01*
X226209523Y-131402380D01*
X203476666Y-136542380D02*
X203476666Y-137256666D01*
X203429047Y-137399523D01*
X203333809Y-137494761D01*
X203190952Y-137542380D01*
X203095714Y-137542380D01*
X203857619Y-136542380D02*
X204476666Y-136542380D01*
X204143333Y-136923333D01*
X204286190Y-136923333D01*
X204381428Y-136970952D01*
X204429047Y-137018571D01*
X204476666Y-137113809D01*
X204476666Y-137351904D01*
X204429047Y-137447142D01*
X204381428Y-137494761D01*
X204286190Y-137542380D01*
X204000476Y-137542380D01*
X203905238Y-137494761D01*
X203857619Y-137447142D01*
X202190476Y-101652380D02*
X202190476Y-100652380D01*
X202523809Y-101366666D01*
X202857142Y-100652380D01*
X202857142Y-101652380D01*
X203333333Y-101652380D02*
X203333333Y-100652380D01*
X203904761Y-101652380D02*
X203476190Y-101080952D01*
X203904761Y-100652380D02*
X203333333Y-101223809D01*
X204857142Y-101652380D02*
X204285714Y-101652380D01*
X204571428Y-101652380D02*
X204571428Y-100652380D01*
X204476190Y-100795238D01*
X204380952Y-100890476D01*
X204285714Y-100938095D01*
X203476666Y-112832380D02*
X203476666Y-113546666D01*
X203429047Y-113689523D01*
X203333809Y-113784761D01*
X203190952Y-113832380D01*
X203095714Y-113832380D01*
X203905238Y-112927619D02*
X203952857Y-112880000D01*
X204048095Y-112832380D01*
X204286190Y-112832380D01*
X204381428Y-112880000D01*
X204429047Y-112927619D01*
X204476666Y-113022857D01*
X204476666Y-113118095D01*
X204429047Y-113260952D01*
X203857619Y-113832380D01*
X204476666Y-113832380D01*
X203476666Y-102672380D02*
X203476666Y-103386666D01*
X203429047Y-103529523D01*
X203333809Y-103624761D01*
X203190952Y-103672380D01*
X203095714Y-103672380D01*
X204476666Y-103672380D02*
X203905238Y-103672380D01*
X204190952Y-103672380D02*
X204190952Y-102672380D01*
X204095714Y-102815238D01*
X204000476Y-102910476D01*
X203905238Y-102958095D01*
X210064761Y-106097619D02*
X209969523Y-106050000D01*
X209874285Y-105954761D01*
X209731428Y-105811904D01*
X209636190Y-105764285D01*
X209540952Y-105764285D01*
X209588571Y-106002380D02*
X209493333Y-105954761D01*
X209398095Y-105859523D01*
X209350476Y-105669047D01*
X209350476Y-105335714D01*
X209398095Y-105145238D01*
X209493333Y-105050000D01*
X209588571Y-105002380D01*
X209779047Y-105002380D01*
X209874285Y-105050000D01*
X209969523Y-105145238D01*
X210017142Y-105335714D01*
X210017142Y-105669047D01*
X209969523Y-105859523D01*
X209874285Y-105954761D01*
X209779047Y-106002380D01*
X209588571Y-106002380D01*
X210969523Y-106002380D02*
X210398095Y-106002380D01*
X210683809Y-106002380D02*
X210683809Y-105002380D01*
X210588571Y-105145238D01*
X210493333Y-105240476D01*
X210398095Y-105288095D01*
X210064761Y-114987619D02*
X209969523Y-114940000D01*
X209874285Y-114844761D01*
X209731428Y-114701904D01*
X209636190Y-114654285D01*
X209540952Y-114654285D01*
X209588571Y-114892380D02*
X209493333Y-114844761D01*
X209398095Y-114749523D01*
X209350476Y-114559047D01*
X209350476Y-114225714D01*
X209398095Y-114035238D01*
X209493333Y-113940000D01*
X209588571Y-113892380D01*
X209779047Y-113892380D01*
X209874285Y-113940000D01*
X209969523Y-114035238D01*
X210017142Y-114225714D01*
X210017142Y-114559047D01*
X209969523Y-114749523D01*
X209874285Y-114844761D01*
X209779047Y-114892380D01*
X209588571Y-114892380D01*
X210398095Y-113987619D02*
X210445714Y-113940000D01*
X210540952Y-113892380D01*
X210779047Y-113892380D01*
X210874285Y-113940000D01*
X210921904Y-113987619D01*
X210969523Y-114082857D01*
X210969523Y-114178095D01*
X210921904Y-114320952D01*
X210350476Y-114892380D01*
X210969523Y-114892380D01*
X260190476Y-143252380D02*
X260190476Y-142252380D01*
X260523809Y-142966666D01*
X260857142Y-142252380D01*
X260857142Y-143252380D01*
X261333333Y-143252380D02*
X261333333Y-142252380D01*
X261904761Y-143252380D02*
X261476190Y-142680952D01*
X261904761Y-142252380D02*
X261333333Y-142823809D01*
X262761904Y-142585714D02*
X262761904Y-143252380D01*
X262523809Y-142204761D02*
X262285714Y-142919047D01*
X262904761Y-142919047D01*
X202190476Y-143252380D02*
X202190476Y-142252380D01*
X202523809Y-142966666D01*
X202857142Y-142252380D01*
X202857142Y-143252380D01*
X203333333Y-143252380D02*
X203333333Y-142252380D01*
X203904761Y-143252380D02*
X203476190Y-142680952D01*
X203904761Y-142252380D02*
X203333333Y-142823809D01*
X204238095Y-142252380D02*
X204857142Y-142252380D01*
X204523809Y-142633333D01*
X204666666Y-142633333D01*
X204761904Y-142680952D01*
X204809523Y-142728571D01*
X204857142Y-142823809D01*
X204857142Y-143061904D01*
X204809523Y-143157142D01*
X204761904Y-143204761D01*
X204666666Y-143252380D01*
X204380952Y-143252380D01*
X204285714Y-143204761D01*
X204238095Y-143157142D01*
X260190476Y-101652380D02*
X260190476Y-100652380D01*
X260523809Y-101366666D01*
X260857142Y-100652380D01*
X260857142Y-101652380D01*
X261333333Y-101652380D02*
X261333333Y-100652380D01*
X261904761Y-101652380D02*
X261476190Y-101080952D01*
X261904761Y-100652380D02*
X261333333Y-101223809D01*
X262285714Y-100747619D02*
X262333333Y-100700000D01*
X262428571Y-100652380D01*
X262666666Y-100652380D01*
X262761904Y-100700000D01*
X262809523Y-100747619D01*
X262857142Y-100842857D01*
X262857142Y-100938095D01*
X262809523Y-101080952D01*
X262238095Y-101652380D01*
X262857142Y-101652380D01*
X248561666Y-132282380D02*
X248561666Y-132996666D01*
X248514047Y-133139523D01*
X248418809Y-133234761D01*
X248275952Y-133282380D01*
X248180714Y-133282380D01*
X249466428Y-132615714D02*
X249466428Y-133282380D01*
X249228333Y-132234761D02*
X248990238Y-132949047D01*
X249609285Y-132949047D01*
X255776904Y-115527380D02*
X255776904Y-114527380D01*
X256015000Y-114527380D01*
X256157857Y-114575000D01*
X256253095Y-114670238D01*
X256300714Y-114765476D01*
X256348333Y-114955952D01*
X256348333Y-115098809D01*
X256300714Y-115289285D01*
X256253095Y-115384523D01*
X256157857Y-115479761D01*
X256015000Y-115527380D01*
X255776904Y-115527380D01*
X257300714Y-115527380D02*
X256729285Y-115527380D01*
X257015000Y-115527380D02*
X257015000Y-114527380D01*
X256919761Y-114670238D01*
X256824523Y-114765476D01*
X256729285Y-114813095D01*
X215136904Y-132672380D02*
X215136904Y-131672380D01*
X215375000Y-131672380D01*
X215517857Y-131720000D01*
X215613095Y-131815238D01*
X215660714Y-131910476D01*
X215708333Y-132100952D01*
X215708333Y-132243809D01*
X215660714Y-132434285D01*
X215613095Y-132529523D01*
X215517857Y-132624761D01*
X215375000Y-132672380D01*
X215136904Y-132672380D01*
X216089285Y-131767619D02*
X216136904Y-131720000D01*
X216232142Y-131672380D01*
X216470238Y-131672380D01*
X216565476Y-131720000D01*
X216613095Y-131767619D01*
X216660714Y-131862857D01*
X216660714Y-131958095D01*
X216613095Y-132100952D01*
X216041666Y-132672380D01*
X216660714Y-132672380D01*
X216327380Y-128671904D02*
X215327380Y-128671904D01*
X216327380Y-128100476D02*
X215755952Y-128529047D01*
X215327380Y-128100476D02*
X215898809Y-128671904D01*
X222121904Y-128227380D02*
X222121904Y-127227380D01*
X222502857Y-127227380D01*
X222598095Y-127275000D01*
X222645714Y-127322619D01*
X222693333Y-127417857D01*
X222693333Y-127560714D01*
X222645714Y-127655952D01*
X222598095Y-127703571D01*
X222502857Y-127751190D01*
X222121904Y-127751190D01*
X223026666Y-127227380D02*
X223693333Y-127227380D01*
X223264761Y-128227380D01*
X223947380Y-136037857D02*
X223471190Y-136371190D01*
X223947380Y-136609285D02*
X222947380Y-136609285D01*
X222947380Y-136228333D01*
X222995000Y-136133095D01*
X223042619Y-136085476D01*
X223137857Y-136037857D01*
X223280714Y-136037857D01*
X223375952Y-136085476D01*
X223423571Y-136133095D01*
X223471190Y-136228333D01*
X223471190Y-136609285D01*
X223947380Y-135085476D02*
X223947380Y-135656904D01*
X223947380Y-135371190D02*
X222947380Y-135371190D01*
X223090238Y-135466428D01*
X223185476Y-135561666D01*
X223233095Y-135656904D01*
X223947380Y-134133095D02*
X223947380Y-134704523D01*
X223947380Y-134418809D02*
X222947380Y-134418809D01*
X223090238Y-134514047D01*
X223185476Y-134609285D01*
X223233095Y-134704523D01*
X257681904Y-134792380D02*
X257681904Y-133792380D01*
X257920000Y-133792380D01*
X258062857Y-133840000D01*
X258158095Y-133935238D01*
X258205714Y-134030476D01*
X258253333Y-134220952D01*
X258253333Y-134363809D01*
X258205714Y-134554285D01*
X258158095Y-134649523D01*
X258062857Y-134744761D01*
X257920000Y-134792380D01*
X257681904Y-134792380D01*
X258586666Y-133792380D02*
X259205714Y-133792380D01*
X258872380Y-134173333D01*
X259015238Y-134173333D01*
X259110476Y-134220952D01*
X259158095Y-134268571D01*
X259205714Y-134363809D01*
X259205714Y-134601904D01*
X259158095Y-134697142D01*
X259110476Y-134744761D01*
X259015238Y-134792380D01*
X258729523Y-134792380D01*
X258634285Y-134744761D01*
X258586666Y-134697142D01*
X261032380Y-133107857D02*
X260556190Y-133441190D01*
X261032380Y-133679285D02*
X260032380Y-133679285D01*
X260032380Y-133298333D01*
X260080000Y-133203095D01*
X260127619Y-133155476D01*
X260222857Y-133107857D01*
X260365714Y-133107857D01*
X260460952Y-133155476D01*
X260508571Y-133203095D01*
X260556190Y-133298333D01*
X260556190Y-133679285D01*
X261032380Y-132155476D02*
X261032380Y-132726904D01*
X261032380Y-132441190D02*
X260032380Y-132441190D01*
X260175238Y-132536428D01*
X260270476Y-132631666D01*
X260318095Y-132726904D01*
X260032380Y-131536428D02*
X260032380Y-131441190D01*
X260080000Y-131345952D01*
X260127619Y-131298333D01*
X260222857Y-131250714D01*
X260413333Y-131203095D01*
X260651428Y-131203095D01*
X260841904Y-131250714D01*
X260937142Y-131298333D01*
X260984761Y-131345952D01*
X261032380Y-131441190D01*
X261032380Y-131536428D01*
X260984761Y-131631666D01*
X260937142Y-131679285D01*
X260841904Y-131726904D01*
X260651428Y-131774523D01*
X260413333Y-131774523D01*
X260222857Y-131726904D01*
X260127619Y-131679285D01*
X260080000Y-131631666D01*
X260032380Y-131536428D01*
X232916904Y-106422380D02*
X232916904Y-105422380D01*
X233155000Y-105422380D01*
X233297857Y-105470000D01*
X233393095Y-105565238D01*
X233440714Y-105660476D01*
X233488333Y-105850952D01*
X233488333Y-105993809D01*
X233440714Y-106184285D01*
X233393095Y-106279523D01*
X233297857Y-106374761D01*
X233155000Y-106422380D01*
X232916904Y-106422380D01*
X234345476Y-105755714D02*
X234345476Y-106422380D01*
X234107380Y-105374761D02*
X233869285Y-106089047D01*
X234488333Y-106089047D01*
X224512142Y-103842380D02*
X224178809Y-103366190D01*
X223940714Y-103842380D02*
X223940714Y-102842380D01*
X224321666Y-102842380D01*
X224416904Y-102890000D01*
X224464523Y-102937619D01*
X224512142Y-103032857D01*
X224512142Y-103175714D01*
X224464523Y-103270952D01*
X224416904Y-103318571D01*
X224321666Y-103366190D01*
X223940714Y-103366190D01*
X225464523Y-103842380D02*
X224893095Y-103842380D01*
X225178809Y-103842380D02*
X225178809Y-102842380D01*
X225083571Y-102985238D01*
X224988333Y-103080476D01*
X224893095Y-103128095D01*
X225845476Y-102937619D02*
X225893095Y-102890000D01*
X225988333Y-102842380D01*
X226226428Y-102842380D01*
X226321666Y-102890000D01*
X226369285Y-102937619D01*
X226416904Y-103032857D01*
X226416904Y-103128095D01*
X226369285Y-103270952D01*
X225797857Y-103842380D01*
X226416904Y-103842380D01*
X260243333Y-114797142D02*
X260195714Y-114844761D01*
X260052857Y-114892380D01*
X259957619Y-114892380D01*
X259814761Y-114844761D01*
X259719523Y-114749523D01*
X259671904Y-114654285D01*
X259624285Y-114463809D01*
X259624285Y-114320952D01*
X259671904Y-114130476D01*
X259719523Y-114035238D01*
X259814761Y-113940000D01*
X259957619Y-113892380D01*
X260052857Y-113892380D01*
X260195714Y-113940000D01*
X260243333Y-113987619D01*
X261195714Y-114892380D02*
X260624285Y-114892380D01*
X260910000Y-114892380D02*
X260910000Y-113892380D01*
X260814761Y-114035238D01*
X260719523Y-114130476D01*
X260624285Y-114178095D01*
X259523333Y-126227142D02*
X259475714Y-126274761D01*
X259332857Y-126322380D01*
X259237619Y-126322380D01*
X259094761Y-126274761D01*
X258999523Y-126179523D01*
X258951904Y-126084285D01*
X258904285Y-125893809D01*
X258904285Y-125750952D01*
X258951904Y-125560476D01*
X258999523Y-125465238D01*
X259094761Y-125370000D01*
X259237619Y-125322380D01*
X259332857Y-125322380D01*
X259475714Y-125370000D01*
X259523333Y-125417619D01*
X260380476Y-125322380D02*
X260190000Y-125322380D01*
X260094761Y-125370000D01*
X260047142Y-125417619D01*
X259951904Y-125560476D01*
X259904285Y-125750952D01*
X259904285Y-126131904D01*
X259951904Y-126227142D01*
X259999523Y-126274761D01*
X260094761Y-126322380D01*
X260285238Y-126322380D01*
X260380476Y-126274761D01*
X260428095Y-126227142D01*
X260475714Y-126131904D01*
X260475714Y-125893809D01*
X260428095Y-125798571D01*
X260380476Y-125750952D01*
X260285238Y-125703333D01*
X260094761Y-125703333D01*
X259999523Y-125750952D01*
X259951904Y-125798571D01*
X259904285Y-125893809D01*
X253881666Y-130083571D02*
X253548333Y-130083571D01*
X253548333Y-130607380D02*
X253548333Y-129607380D01*
X254024523Y-129607380D01*
X254929285Y-130607380D02*
X254357857Y-130607380D01*
X254643571Y-130607380D02*
X254643571Y-129607380D01*
X254548333Y-129750238D01*
X254453095Y-129845476D01*
X254357857Y-129893095D01*
M02*
