G04 #@! TF.GenerationSoftware,KiCad,Pcbnew,(5.1.5)-3*
G04 #@! TF.CreationDate,2020-03-15T22:36:38-07:00*
G04 #@! TF.ProjectId,pihat,70696861-742e-46b6-9963-61645f706362,rev?*
G04 #@! TF.SameCoordinates,Original*
G04 #@! TF.FileFunction,Copper,L2,Bot*
G04 #@! TF.FilePolarity,Positive*
%FSLAX46Y46*%
G04 Gerber Fmt 4.6, Leading zero omitted, Abs format (unit mm)*
G04 Created by KiCad (PCBNEW (5.1.5)-3) date 2020-03-15 22:36:38*
%MOMM*%
%LPD*%
G04 APERTURE LIST*
%ADD10C,1.300000*%
%ADD11C,0.150000*%
%ADD12C,0.500000*%
%ADD13O,1.600000X1.600000*%
%ADD14R,1.600000X1.600000*%
%ADD15C,2.000000*%
%ADD16R,2.000000X2.000000*%
%ADD17O,1.700000X1.700000*%
%ADD18R,1.700000X1.700000*%
%ADD19C,2.700000*%
%ADD20R,2.200000X2.200000*%
%ADD21O,2.200000X2.200000*%
%ADD22R,1.800000X1.800000*%
%ADD23C,1.800000*%
%ADD24C,0.900000*%
%ADD25C,0.400000*%
%ADD26C,0.600000*%
%ADD27C,0.300000*%
%ADD28C,0.900000*%
%ADD29C,0.254000*%
G04 APERTURE END LIST*
D10*
X228685000Y-108890000D03*
X221085000Y-111430000D03*
X228685000Y-124130000D03*
X221085000Y-124130000D03*
G04 #@! TA.AperFunction,Conductor*
D11*
G36*
X255334504Y-120411204D02*
G01*
X255358773Y-120414804D01*
X255382571Y-120420765D01*
X255405671Y-120429030D01*
X255427849Y-120439520D01*
X255448893Y-120452133D01*
X255468598Y-120466747D01*
X255486777Y-120483223D01*
X255503253Y-120501402D01*
X255517867Y-120521107D01*
X255530480Y-120542151D01*
X255540970Y-120564329D01*
X255549235Y-120587429D01*
X255555196Y-120611227D01*
X255558796Y-120635496D01*
X255560000Y-120660000D01*
X255560000Y-123460000D01*
X255558796Y-123484504D01*
X255555196Y-123508773D01*
X255549235Y-123532571D01*
X255540970Y-123555671D01*
X255530480Y-123577849D01*
X255517867Y-123598893D01*
X255503253Y-123618598D01*
X255486777Y-123636777D01*
X255468598Y-123653253D01*
X255448893Y-123667867D01*
X255427849Y-123680480D01*
X255405671Y-123690970D01*
X255382571Y-123699235D01*
X255358773Y-123705196D01*
X255334504Y-123708796D01*
X255310000Y-123710000D01*
X253910000Y-123710000D01*
X253885496Y-123708796D01*
X253861227Y-123705196D01*
X253837429Y-123699235D01*
X253814329Y-123690970D01*
X253792151Y-123680480D01*
X253771107Y-123667867D01*
X253751402Y-123653253D01*
X253733223Y-123636777D01*
X253716747Y-123618598D01*
X253702133Y-123598893D01*
X253689520Y-123577849D01*
X253679030Y-123555671D01*
X253670765Y-123532571D01*
X253664804Y-123508773D01*
X253661204Y-123484504D01*
X253660000Y-123460000D01*
X253660000Y-120660000D01*
X253661204Y-120635496D01*
X253664804Y-120611227D01*
X253670765Y-120587429D01*
X253679030Y-120564329D01*
X253689520Y-120542151D01*
X253702133Y-120521107D01*
X253716747Y-120501402D01*
X253733223Y-120483223D01*
X253751402Y-120466747D01*
X253771107Y-120452133D01*
X253792151Y-120439520D01*
X253814329Y-120429030D01*
X253837429Y-120420765D01*
X253861227Y-120414804D01*
X253885496Y-120411204D01*
X253910000Y-120410000D01*
X255310000Y-120410000D01*
X255334504Y-120411204D01*
G37*
G04 #@! TD.AperFunction*
D12*
X255310000Y-123460000D03*
X253910000Y-123460000D03*
X255310000Y-122060000D03*
X253910000Y-122060000D03*
X255310000Y-120660000D03*
X253910000Y-120660000D03*
D13*
X234290000Y-138570000D03*
X226670000Y-146190000D03*
X234290000Y-141110000D03*
X226670000Y-143650000D03*
X234290000Y-143650000D03*
X226670000Y-141110000D03*
X234290000Y-146190000D03*
D14*
X226670000Y-138570000D03*
D15*
X241195000Y-112535000D03*
D16*
X236195000Y-112535000D03*
D17*
X203810000Y-127140000D03*
X203810000Y-129680000D03*
X203810000Y-132220000D03*
D18*
X203810000Y-134760000D03*
D17*
X203810000Y-120790000D03*
X203810000Y-118250000D03*
D18*
X203810000Y-115710000D03*
D17*
X203810000Y-110630000D03*
X203810000Y-108090000D03*
D18*
X203810000Y-105550000D03*
X208370000Y-98770000D03*
D17*
X208370000Y-96230000D03*
X210910000Y-98770000D03*
X210910000Y-96230000D03*
X213450000Y-98770000D03*
X213450000Y-96230000D03*
X215990000Y-98770000D03*
X215990000Y-96230000D03*
X218530000Y-98770000D03*
X218530000Y-96230000D03*
X221070000Y-98770000D03*
X221070000Y-96230000D03*
X223610000Y-98770000D03*
X223610000Y-96230000D03*
X226150000Y-98770000D03*
X226150000Y-96230000D03*
X228690000Y-98770000D03*
X228690000Y-96230000D03*
X231230000Y-98770000D03*
X231230000Y-96230000D03*
X233770000Y-98770000D03*
X233770000Y-96230000D03*
X236310000Y-98770000D03*
X236310000Y-96230000D03*
X238850000Y-98770000D03*
X238850000Y-96230000D03*
X241390000Y-98770000D03*
X241390000Y-96230000D03*
X243930000Y-98770000D03*
X243930000Y-96230000D03*
X246470000Y-98770000D03*
X246470000Y-96230000D03*
X249010000Y-98770000D03*
X249010000Y-96230000D03*
X251550000Y-98770000D03*
X251550000Y-96230000D03*
X254090000Y-98770000D03*
X254090000Y-96230000D03*
X256630000Y-98770000D03*
X256630000Y-96230000D03*
G04 #@! TA.AperFunction,ComponentPad*
D11*
G36*
X250654503Y-134681204D02*
G01*
X250678772Y-134684804D01*
X250702570Y-134690765D01*
X250725670Y-134699030D01*
X250747849Y-134709520D01*
X250768892Y-134722133D01*
X250788598Y-134736748D01*
X250806776Y-134753224D01*
X250823252Y-134771402D01*
X250837867Y-134791108D01*
X250850480Y-134812151D01*
X250860970Y-134834330D01*
X250869235Y-134857430D01*
X250875196Y-134881228D01*
X250878796Y-134905497D01*
X250880000Y-134930001D01*
X250880000Y-137129999D01*
X250878796Y-137154503D01*
X250875196Y-137178772D01*
X250869235Y-137202570D01*
X250860970Y-137225670D01*
X250850480Y-137247849D01*
X250837867Y-137268892D01*
X250823252Y-137288598D01*
X250806776Y-137306776D01*
X250788598Y-137323252D01*
X250768892Y-137337867D01*
X250747849Y-137350480D01*
X250725670Y-137360970D01*
X250702570Y-137369235D01*
X250678772Y-137375196D01*
X250654503Y-137378796D01*
X250629999Y-137380000D01*
X248430001Y-137380000D01*
X248405497Y-137378796D01*
X248381228Y-137375196D01*
X248357430Y-137369235D01*
X248334330Y-137360970D01*
X248312151Y-137350480D01*
X248291108Y-137337867D01*
X248271402Y-137323252D01*
X248253224Y-137306776D01*
X248236748Y-137288598D01*
X248222133Y-137268892D01*
X248209520Y-137247849D01*
X248199030Y-137225670D01*
X248190765Y-137202570D01*
X248184804Y-137178772D01*
X248181204Y-137154503D01*
X248180000Y-137129999D01*
X248180000Y-134930001D01*
X248181204Y-134905497D01*
X248184804Y-134881228D01*
X248190765Y-134857430D01*
X248199030Y-134834330D01*
X248209520Y-134812151D01*
X248222133Y-134791108D01*
X248236748Y-134771402D01*
X248253224Y-134753224D01*
X248271402Y-134736748D01*
X248291108Y-134722133D01*
X248312151Y-134709520D01*
X248334330Y-134699030D01*
X248357430Y-134690765D01*
X248381228Y-134684804D01*
X248405497Y-134681204D01*
X248430001Y-134680000D01*
X250629999Y-134680000D01*
X250654503Y-134681204D01*
G37*
G04 #@! TD.AperFunction*
D19*
X253490000Y-136030000D03*
D20*
X220955000Y-132220000D03*
D21*
X210795000Y-132220000D03*
D22*
X258420000Y-137300000D03*
D23*
X260960000Y-137300000D03*
D22*
X231115000Y-103010000D03*
D23*
X228575000Y-103010000D03*
D24*
X212700000Y-120790000D03*
X212700000Y-125870000D03*
X212700000Y-111900000D03*
X241910000Y-134760000D03*
X227940000Y-136030000D03*
X262230000Y-114440000D03*
X252070000Y-116980000D03*
X255880000Y-128410000D03*
X262230000Y-121425000D03*
X241910000Y-131585000D03*
X222860000Y-141745000D03*
X207620000Y-109360000D03*
X207620000Y-119520000D03*
X262230000Y-128410000D03*
X259690000Y-120790000D03*
X222860000Y-101740000D03*
D25*
X212700000Y-111900000D02*
X211430000Y-110630000D01*
X208890000Y-108090000D02*
X203810000Y-108090000D01*
X211430000Y-110630000D02*
X208890000Y-108090000D01*
X203810000Y-118250000D02*
X205715000Y-118250000D01*
X205715000Y-118250000D02*
X207620000Y-116345000D01*
X207620000Y-116345000D02*
X207620000Y-114440000D01*
X207620000Y-114440000D02*
X208255000Y-113805000D01*
X208255000Y-113805000D02*
X212700000Y-113805000D01*
D26*
X212700000Y-125870000D02*
X212700000Y-120790000D01*
D25*
X217240001Y-97480001D02*
X217680001Y-97920001D01*
X214700001Y-97480001D02*
X217240001Y-97480001D01*
X217680001Y-97920001D02*
X218530000Y-98770000D01*
X213450000Y-96230000D02*
X214700001Y-97480001D01*
X222760001Y-97079999D02*
X223610000Y-96230000D01*
X222359999Y-97480001D02*
X222760001Y-97079999D01*
X219819999Y-97480001D02*
X222359999Y-97480001D01*
X218530000Y-98770000D02*
X219819999Y-97480001D01*
X232480001Y-100344999D02*
X232480001Y-97480001D01*
X231115000Y-103010000D02*
X231115000Y-101710000D01*
X232480001Y-97480001D02*
X231230000Y-96230000D01*
X231115000Y-101710000D02*
X232480001Y-100344999D01*
D26*
X219050000Y-113465000D02*
X221085000Y-111430000D01*
X219050000Y-113465000D02*
X212995000Y-113465000D01*
X212700000Y-120790000D02*
X212700000Y-113170000D01*
X212995000Y-113465000D02*
X212700000Y-113170000D01*
X212700000Y-113170000D02*
X212700000Y-111900000D01*
D25*
X203810000Y-110630000D02*
X206350000Y-110630000D01*
X207620000Y-109360000D02*
X206350000Y-110630000D01*
X203810000Y-120790000D02*
X206350000Y-120790000D01*
X206350000Y-120790000D02*
X207620000Y-119520000D01*
D27*
X209659999Y-97480001D02*
X210910000Y-96230000D01*
X207119999Y-97480001D02*
X209659999Y-97480001D01*
D28*
X207167919Y-96230000D02*
X208370000Y-96230000D01*
X208469998Y-101740000D02*
X206869999Y-100140001D01*
X222860000Y-101740000D02*
X208469998Y-101740000D01*
X228685000Y-108890000D02*
X226200000Y-108890000D01*
X222860000Y-105550000D02*
X222860000Y-101740000D01*
X226200000Y-108890000D02*
X222860000Y-105550000D01*
D26*
X206869999Y-96527920D02*
X207167919Y-96230000D01*
X206869999Y-100140001D02*
X206869999Y-96527920D01*
D28*
X258420000Y-128410000D02*
X255245000Y-131585000D01*
X259690000Y-120790000D02*
X259690000Y-127140000D01*
X259055000Y-127775000D02*
X258420000Y-128410000D01*
X259690000Y-127140000D02*
X259055000Y-127775000D01*
X259690000Y-127140000D02*
X260960000Y-128410000D01*
X260960000Y-128410000D02*
X262230000Y-128410000D01*
D29*
G36*
X258293000Y-101740000D02*
G01*
X258295440Y-101764776D01*
X258302667Y-101788601D01*
X258314403Y-101810557D01*
X258330197Y-101829803D01*
X258349443Y-101845597D01*
X258371399Y-101857333D01*
X258395224Y-101864560D01*
X258420000Y-101867000D01*
X263373000Y-101867000D01*
X263373000Y-142253000D01*
X257150000Y-142253000D01*
X257125224Y-142255440D01*
X257101399Y-142262667D01*
X257079443Y-142274403D01*
X257060197Y-142290197D01*
X257044403Y-142309443D01*
X257032667Y-142331399D01*
X257025440Y-142355224D01*
X257023000Y-142380000D01*
X257023000Y-148603000D01*
X246032732Y-148603000D01*
X246038647Y-148595747D01*
X246072998Y-148544045D01*
X246108081Y-148492807D01*
X246112630Y-148484394D01*
X246228993Y-148265546D01*
X246252653Y-148208141D01*
X246277108Y-148151084D01*
X246279936Y-148141947D01*
X246351576Y-147904666D01*
X246363630Y-147843787D01*
X246376544Y-147783034D01*
X246377544Y-147773522D01*
X246401731Y-147526844D01*
X246401731Y-147526837D01*
X246405000Y-147493647D01*
X246405000Y-138200000D01*
X256881928Y-138200000D01*
X256894188Y-138324482D01*
X256930498Y-138444180D01*
X256989463Y-138554494D01*
X257068815Y-138651185D01*
X257165506Y-138730537D01*
X257275820Y-138789502D01*
X257395518Y-138825812D01*
X257520000Y-138838072D01*
X258134250Y-138835000D01*
X258293000Y-138676250D01*
X258293000Y-137427000D01*
X257043750Y-137427000D01*
X256885000Y-137585750D01*
X256881928Y-138200000D01*
X246405000Y-138200000D01*
X246405000Y-137380000D01*
X247541928Y-137380000D01*
X247554188Y-137504482D01*
X247590498Y-137624180D01*
X247649463Y-137734494D01*
X247728815Y-137831185D01*
X247825506Y-137910537D01*
X247935820Y-137969502D01*
X248055518Y-138005812D01*
X248180000Y-138018072D01*
X249244250Y-138015000D01*
X249403000Y-137856250D01*
X249403000Y-136157000D01*
X247703750Y-136157000D01*
X247545000Y-136315750D01*
X247541928Y-137380000D01*
X246405000Y-137380000D01*
X246405000Y-134680000D01*
X247541928Y-134680000D01*
X247545000Y-135744250D01*
X247703750Y-135903000D01*
X249403000Y-135903000D01*
X249403000Y-134203750D01*
X249657000Y-134203750D01*
X249657000Y-135903000D01*
X249677000Y-135903000D01*
X249677000Y-136157000D01*
X249657000Y-136157000D01*
X249657000Y-137856250D01*
X249815750Y-138015000D01*
X250880000Y-138018072D01*
X251004482Y-138005812D01*
X251124180Y-137969502D01*
X251234494Y-137910537D01*
X251331185Y-137831185D01*
X251410537Y-137734494D01*
X251469502Y-137624180D01*
X251505812Y-137504482D01*
X251518072Y-137380000D01*
X251515000Y-136315750D01*
X251356252Y-136157002D01*
X251505000Y-136157002D01*
X251505000Y-136225505D01*
X251581282Y-136609003D01*
X251730915Y-136970250D01*
X251948149Y-137295364D01*
X252224636Y-137571851D01*
X252549750Y-137789085D01*
X252910997Y-137938718D01*
X253294495Y-138015000D01*
X253685505Y-138015000D01*
X254069003Y-137938718D01*
X254430250Y-137789085D01*
X254755364Y-137571851D01*
X255031851Y-137295364D01*
X255249085Y-136970250D01*
X255398718Y-136609003D01*
X255440291Y-136400000D01*
X256881928Y-136400000D01*
X256885000Y-137014250D01*
X257043750Y-137173000D01*
X258293000Y-137173000D01*
X258293000Y-135923750D01*
X258547000Y-135923750D01*
X258547000Y-137173000D01*
X258567000Y-137173000D01*
X258567000Y-137427000D01*
X258547000Y-137427000D01*
X258547000Y-138676250D01*
X258705750Y-138835000D01*
X259320000Y-138838072D01*
X259444482Y-138825812D01*
X259564180Y-138789502D01*
X259674494Y-138730537D01*
X259771185Y-138651185D01*
X259850537Y-138554494D01*
X259909502Y-138444180D01*
X259915056Y-138425873D01*
X259981495Y-138492312D01*
X260232905Y-138660299D01*
X260512257Y-138776011D01*
X260808816Y-138835000D01*
X261111184Y-138835000D01*
X261407743Y-138776011D01*
X261687095Y-138660299D01*
X261938505Y-138492312D01*
X262152312Y-138278505D01*
X262320299Y-138027095D01*
X262436011Y-137747743D01*
X262495000Y-137451184D01*
X262495000Y-137148816D01*
X262436011Y-136852257D01*
X262320299Y-136572905D01*
X262152312Y-136321495D01*
X261938505Y-136107688D01*
X261687095Y-135939701D01*
X261407743Y-135823989D01*
X261111184Y-135765000D01*
X260808816Y-135765000D01*
X260512257Y-135823989D01*
X260232905Y-135939701D01*
X259981495Y-136107688D01*
X259915056Y-136174127D01*
X259909502Y-136155820D01*
X259850537Y-136045506D01*
X259771185Y-135948815D01*
X259674494Y-135869463D01*
X259564180Y-135810498D01*
X259444482Y-135774188D01*
X259320000Y-135761928D01*
X258705750Y-135765000D01*
X258547000Y-135923750D01*
X258293000Y-135923750D01*
X258134250Y-135765000D01*
X257520000Y-135761928D01*
X257395518Y-135774188D01*
X257275820Y-135810498D01*
X257165506Y-135869463D01*
X257068815Y-135948815D01*
X256989463Y-136045506D01*
X256930498Y-136155820D01*
X256894188Y-136275518D01*
X256881928Y-136400000D01*
X255440291Y-136400000D01*
X255475000Y-136225505D01*
X255475000Y-135834495D01*
X255398718Y-135450997D01*
X255249085Y-135089750D01*
X255031851Y-134764636D01*
X254755364Y-134488149D01*
X254430250Y-134270915D01*
X254069003Y-134121282D01*
X253685505Y-134045000D01*
X253294495Y-134045000D01*
X252910997Y-134121282D01*
X252549750Y-134270915D01*
X252224636Y-134488149D01*
X251948149Y-134764636D01*
X251730915Y-135089750D01*
X251581282Y-135450997D01*
X251505000Y-135834495D01*
X251505000Y-135902998D01*
X251356252Y-135902998D01*
X251515000Y-135744250D01*
X251518072Y-134680000D01*
X251505812Y-134555518D01*
X251469502Y-134435820D01*
X251410537Y-134325506D01*
X251331185Y-134228815D01*
X251234494Y-134149463D01*
X251124180Y-134090498D01*
X251004482Y-134054188D01*
X250880000Y-134041928D01*
X249815750Y-134045000D01*
X249657000Y-134203750D01*
X249403000Y-134203750D01*
X249244250Y-134045000D01*
X248180000Y-134041928D01*
X248055518Y-134054188D01*
X247935820Y-134090498D01*
X247825506Y-134149463D01*
X247728815Y-134228815D01*
X247649463Y-134325506D01*
X247590498Y-134435820D01*
X247554188Y-134555518D01*
X247541928Y-134680000D01*
X246405000Y-134680000D01*
X246405000Y-131585000D01*
X254154752Y-131585000D01*
X254175700Y-131797697D01*
X254237742Y-132002220D01*
X254338492Y-132190709D01*
X254474078Y-132355922D01*
X254639291Y-132491508D01*
X254827780Y-132592258D01*
X255032303Y-132654300D01*
X255245000Y-132675248D01*
X255457697Y-132654300D01*
X255662220Y-132592258D01*
X255850709Y-132491508D01*
X255974526Y-132389895D01*
X259224895Y-129139527D01*
X259224900Y-129139521D01*
X259690000Y-128674421D01*
X260155109Y-129139531D01*
X260189078Y-129180922D01*
X260230469Y-129214891D01*
X260230473Y-129214895D01*
X260269706Y-129247092D01*
X260354290Y-129316509D01*
X260542780Y-129417259D01*
X260665113Y-129454368D01*
X260747302Y-129479300D01*
X260767078Y-129481248D01*
X260906706Y-129495000D01*
X260906713Y-129495000D01*
X260959999Y-129500248D01*
X261013285Y-129495000D01*
X262336863Y-129495000D01*
X262389404Y-129484549D01*
X262442697Y-129479300D01*
X262493942Y-129463755D01*
X262546483Y-129453304D01*
X262595974Y-129432804D01*
X262647220Y-129417259D01*
X262694448Y-129392015D01*
X262743940Y-129371515D01*
X262788483Y-129341752D01*
X262835710Y-129316509D01*
X262877103Y-129282538D01*
X262921647Y-129252775D01*
X262959531Y-129214891D01*
X263000922Y-129180922D01*
X263034891Y-129139531D01*
X263072775Y-129101647D01*
X263102538Y-129057103D01*
X263136509Y-129015710D01*
X263161752Y-128968483D01*
X263191515Y-128923940D01*
X263212015Y-128874448D01*
X263237259Y-128827220D01*
X263252804Y-128775974D01*
X263273304Y-128726483D01*
X263283755Y-128673942D01*
X263299300Y-128622697D01*
X263304549Y-128569404D01*
X263315000Y-128516863D01*
X263315000Y-128463294D01*
X263320249Y-128410000D01*
X263315000Y-128356706D01*
X263315000Y-128303137D01*
X263304549Y-128250596D01*
X263299300Y-128197303D01*
X263283755Y-128146058D01*
X263273304Y-128093517D01*
X263252804Y-128044026D01*
X263237259Y-127992780D01*
X263212015Y-127945552D01*
X263191515Y-127896060D01*
X263161752Y-127851517D01*
X263136509Y-127804290D01*
X263102538Y-127762897D01*
X263072775Y-127718353D01*
X263034891Y-127680469D01*
X263000922Y-127639078D01*
X262959531Y-127605109D01*
X262921647Y-127567225D01*
X262877103Y-127537462D01*
X262835710Y-127503491D01*
X262788483Y-127478248D01*
X262743940Y-127448485D01*
X262694448Y-127427985D01*
X262647220Y-127402741D01*
X262595974Y-127387196D01*
X262546483Y-127366696D01*
X262493942Y-127356245D01*
X262442697Y-127340700D01*
X262389404Y-127335451D01*
X262336863Y-127325000D01*
X261409422Y-127325000D01*
X260775000Y-126690579D01*
X260775000Y-120683137D01*
X260764549Y-120630596D01*
X260759300Y-120577303D01*
X260743755Y-120526058D01*
X260733304Y-120473517D01*
X260712804Y-120424026D01*
X260697259Y-120372780D01*
X260672015Y-120325552D01*
X260651515Y-120276060D01*
X260621752Y-120231517D01*
X260596509Y-120184290D01*
X260562538Y-120142897D01*
X260532775Y-120098353D01*
X260494891Y-120060469D01*
X260460922Y-120019078D01*
X260419531Y-119985109D01*
X260381647Y-119947225D01*
X260337103Y-119917462D01*
X260295710Y-119883491D01*
X260248484Y-119858248D01*
X260203940Y-119828485D01*
X260154444Y-119807983D01*
X260107219Y-119782741D01*
X260055977Y-119767197D01*
X260006483Y-119746696D01*
X259953939Y-119736244D01*
X259902696Y-119720700D01*
X259849405Y-119715451D01*
X259796863Y-119705000D01*
X259743293Y-119705000D01*
X259690000Y-119699751D01*
X259636706Y-119705000D01*
X259583137Y-119705000D01*
X259530596Y-119715451D01*
X259477303Y-119720700D01*
X259426058Y-119736245D01*
X259373517Y-119746696D01*
X259324026Y-119767196D01*
X259272780Y-119782741D01*
X259225552Y-119807985D01*
X259176060Y-119828485D01*
X259131517Y-119858248D01*
X259084290Y-119883491D01*
X259042897Y-119917462D01*
X258998353Y-119947225D01*
X258960469Y-119985109D01*
X258919078Y-120019078D01*
X258885109Y-120060469D01*
X258847225Y-120098353D01*
X258817462Y-120142897D01*
X258783491Y-120184290D01*
X258758248Y-120231516D01*
X258728485Y-120276060D01*
X258707983Y-120325556D01*
X258682741Y-120372781D01*
X258667197Y-120424023D01*
X258646696Y-120473517D01*
X258636244Y-120526061D01*
X258620700Y-120577304D01*
X258615451Y-120630595D01*
X258605000Y-120683137D01*
X258605000Y-120736707D01*
X258605001Y-126690578D01*
X257690479Y-127605100D01*
X257690473Y-127605105D01*
X254440105Y-130855474D01*
X254338492Y-130979291D01*
X254237742Y-131167780D01*
X254175700Y-131372303D01*
X254154752Y-131585000D01*
X246405000Y-131585000D01*
X246405000Y-130916353D01*
X246401607Y-130881904D01*
X246401607Y-130865423D01*
X246400607Y-130855911D01*
X246372978Y-130609595D01*
X246360072Y-130548876D01*
X246348011Y-130487966D01*
X246345183Y-130478830D01*
X246270238Y-130242572D01*
X246245786Y-130185521D01*
X246222121Y-130128106D01*
X246217572Y-130119692D01*
X246098164Y-129902490D01*
X246063062Y-129851225D01*
X246028730Y-129799552D01*
X246022634Y-129792182D01*
X245863312Y-129602310D01*
X245818954Y-129558872D01*
X245775209Y-129514820D01*
X245767797Y-129508775D01*
X245574630Y-129353463D01*
X245522643Y-129319444D01*
X245471205Y-129284749D01*
X245462761Y-129280258D01*
X245243106Y-129165427D01*
X245185554Y-129142175D01*
X245128312Y-129118112D01*
X245119156Y-129115348D01*
X245119151Y-129115346D01*
X245119146Y-129115345D01*
X244881380Y-129045365D01*
X244820349Y-129033723D01*
X244759575Y-129021248D01*
X244750061Y-129020314D01*
X244750057Y-129020314D01*
X244503217Y-128997850D01*
X244441135Y-128998284D01*
X244379052Y-128997850D01*
X244369534Y-128998783D01*
X244123030Y-129024691D01*
X244062176Y-129037183D01*
X244001226Y-129048810D01*
X243992076Y-129051572D01*
X243992072Y-129051573D01*
X243992069Y-129051574D01*
X243992070Y-129051574D01*
X243755294Y-129124869D01*
X243698084Y-129148918D01*
X243640498Y-129172184D01*
X243632053Y-129176674D01*
X243414023Y-129294562D01*
X243362532Y-129329293D01*
X243310600Y-129363277D01*
X243303188Y-129369321D01*
X243112209Y-129527314D01*
X243068462Y-129571367D01*
X243024104Y-129614806D01*
X243018008Y-129622175D01*
X242861353Y-129814253D01*
X242827002Y-129865956D01*
X242791919Y-129917193D01*
X242787370Y-129925607D01*
X242671007Y-130144454D01*
X242647347Y-130201859D01*
X242622892Y-130258916D01*
X242620064Y-130268053D01*
X242548424Y-130505334D01*
X242536370Y-130566213D01*
X242523456Y-130626966D01*
X242522456Y-130636478D01*
X242498269Y-130883156D01*
X242498269Y-130883164D01*
X242495000Y-130916354D01*
X242495001Y-147493647D01*
X242498394Y-147528095D01*
X242498394Y-147544577D01*
X242499393Y-147554089D01*
X242527022Y-147800405D01*
X242539930Y-147861130D01*
X242551989Y-147922034D01*
X242554817Y-147931170D01*
X242629762Y-148167428D01*
X242654214Y-148224479D01*
X242677879Y-148281894D01*
X242682428Y-148290308D01*
X242801836Y-148507510D01*
X242836926Y-148558757D01*
X242866321Y-148603000D01*
X207747000Y-148603000D01*
X207747000Y-146539039D01*
X225278096Y-146539039D01*
X225318754Y-146673087D01*
X225438963Y-146927420D01*
X225606481Y-147153414D01*
X225814869Y-147342385D01*
X226056119Y-147487070D01*
X226320960Y-147581909D01*
X226543000Y-147460624D01*
X226543000Y-146317000D01*
X226797000Y-146317000D01*
X226797000Y-147460624D01*
X227019040Y-147581909D01*
X227283881Y-147487070D01*
X227525131Y-147342385D01*
X227733519Y-147153414D01*
X227901037Y-146927420D01*
X228021246Y-146673087D01*
X228061904Y-146539039D01*
X227939915Y-146317000D01*
X226797000Y-146317000D01*
X226543000Y-146317000D01*
X225400085Y-146317000D01*
X225278096Y-146539039D01*
X207747000Y-146539039D01*
X207747000Y-142380000D01*
X207744560Y-142355224D01*
X207737333Y-142331399D01*
X207725597Y-142309443D01*
X207709803Y-142290197D01*
X207690557Y-142274403D01*
X207668601Y-142262667D01*
X207644776Y-142255440D01*
X207620000Y-142253000D01*
X201397000Y-142253000D01*
X201397000Y-137770000D01*
X225231928Y-137770000D01*
X225231928Y-139370000D01*
X225244188Y-139494482D01*
X225280498Y-139614180D01*
X225339463Y-139724494D01*
X225418815Y-139821185D01*
X225515506Y-139900537D01*
X225625820Y-139959502D01*
X225745518Y-139995812D01*
X225753961Y-139996643D01*
X225555363Y-140195241D01*
X225398320Y-140430273D01*
X225290147Y-140691426D01*
X225235000Y-140968665D01*
X225235000Y-141251335D01*
X225290147Y-141528574D01*
X225398320Y-141789727D01*
X225555363Y-142024759D01*
X225755241Y-142224637D01*
X225987759Y-142380000D01*
X225755241Y-142535363D01*
X225555363Y-142735241D01*
X225398320Y-142970273D01*
X225290147Y-143231426D01*
X225235000Y-143508665D01*
X225235000Y-143791335D01*
X225290147Y-144068574D01*
X225398320Y-144329727D01*
X225555363Y-144564759D01*
X225755241Y-144764637D01*
X225990273Y-144921680D01*
X226000865Y-144926067D01*
X225814869Y-145037615D01*
X225606481Y-145226586D01*
X225438963Y-145452580D01*
X225318754Y-145706913D01*
X225278096Y-145840961D01*
X225400085Y-146063000D01*
X226543000Y-146063000D01*
X226543000Y-146043000D01*
X226797000Y-146043000D01*
X226797000Y-146063000D01*
X227939915Y-146063000D01*
X228061904Y-145840961D01*
X228021246Y-145706913D01*
X227901037Y-145452580D01*
X227733519Y-145226586D01*
X227525131Y-145037615D01*
X227339135Y-144926067D01*
X227349727Y-144921680D01*
X227584759Y-144764637D01*
X227784637Y-144564759D01*
X227941680Y-144329727D01*
X228049853Y-144068574D01*
X228105000Y-143791335D01*
X228105000Y-143508665D01*
X228049853Y-143231426D01*
X227941680Y-142970273D01*
X227784637Y-142735241D01*
X227584759Y-142535363D01*
X227352241Y-142380000D01*
X227584759Y-142224637D01*
X227784637Y-142024759D01*
X227941680Y-141789727D01*
X228049853Y-141528574D01*
X228105000Y-141251335D01*
X228105000Y-140968665D01*
X228049853Y-140691426D01*
X227941680Y-140430273D01*
X227784637Y-140195241D01*
X227586039Y-139996643D01*
X227594482Y-139995812D01*
X227714180Y-139959502D01*
X227824494Y-139900537D01*
X227921185Y-139821185D01*
X228000537Y-139724494D01*
X228059502Y-139614180D01*
X228095812Y-139494482D01*
X228108072Y-139370000D01*
X228108072Y-138428665D01*
X232855000Y-138428665D01*
X232855000Y-138711335D01*
X232910147Y-138988574D01*
X233018320Y-139249727D01*
X233175363Y-139484759D01*
X233375241Y-139684637D01*
X233607759Y-139840000D01*
X233375241Y-139995363D01*
X233175363Y-140195241D01*
X233018320Y-140430273D01*
X232910147Y-140691426D01*
X232855000Y-140968665D01*
X232855000Y-141251335D01*
X232910147Y-141528574D01*
X233018320Y-141789727D01*
X233175363Y-142024759D01*
X233375241Y-142224637D01*
X233607759Y-142380000D01*
X233375241Y-142535363D01*
X233175363Y-142735241D01*
X233018320Y-142970273D01*
X232910147Y-143231426D01*
X232855000Y-143508665D01*
X232855000Y-143791335D01*
X232910147Y-144068574D01*
X233018320Y-144329727D01*
X233175363Y-144564759D01*
X233375241Y-144764637D01*
X233607759Y-144920000D01*
X233375241Y-145075363D01*
X233175363Y-145275241D01*
X233018320Y-145510273D01*
X232910147Y-145771426D01*
X232855000Y-146048665D01*
X232855000Y-146331335D01*
X232910147Y-146608574D01*
X233018320Y-146869727D01*
X233175363Y-147104759D01*
X233375241Y-147304637D01*
X233610273Y-147461680D01*
X233871426Y-147569853D01*
X234148665Y-147625000D01*
X234431335Y-147625000D01*
X234708574Y-147569853D01*
X234969727Y-147461680D01*
X235204759Y-147304637D01*
X235404637Y-147104759D01*
X235561680Y-146869727D01*
X235669853Y-146608574D01*
X235725000Y-146331335D01*
X235725000Y-146048665D01*
X235669853Y-145771426D01*
X235561680Y-145510273D01*
X235404637Y-145275241D01*
X235204759Y-145075363D01*
X234972241Y-144920000D01*
X235204759Y-144764637D01*
X235404637Y-144564759D01*
X235561680Y-144329727D01*
X235669853Y-144068574D01*
X235725000Y-143791335D01*
X235725000Y-143508665D01*
X235669853Y-143231426D01*
X235561680Y-142970273D01*
X235404637Y-142735241D01*
X235204759Y-142535363D01*
X234972241Y-142380000D01*
X235204759Y-142224637D01*
X235404637Y-142024759D01*
X235561680Y-141789727D01*
X235669853Y-141528574D01*
X235725000Y-141251335D01*
X235725000Y-140968665D01*
X235669853Y-140691426D01*
X235561680Y-140430273D01*
X235404637Y-140195241D01*
X235204759Y-139995363D01*
X234972241Y-139840000D01*
X235204759Y-139684637D01*
X235404637Y-139484759D01*
X235561680Y-139249727D01*
X235669853Y-138988574D01*
X235725000Y-138711335D01*
X235725000Y-138428665D01*
X235669853Y-138151426D01*
X235561680Y-137890273D01*
X235404637Y-137655241D01*
X235204759Y-137455363D01*
X234969727Y-137298320D01*
X234708574Y-137190147D01*
X234431335Y-137135000D01*
X234148665Y-137135000D01*
X233871426Y-137190147D01*
X233610273Y-137298320D01*
X233375241Y-137455363D01*
X233175363Y-137655241D01*
X233018320Y-137890273D01*
X232910147Y-138151426D01*
X232855000Y-138428665D01*
X228108072Y-138428665D01*
X228108072Y-137770000D01*
X228095812Y-137645518D01*
X228059502Y-137525820D01*
X228000537Y-137415506D01*
X227921185Y-137318815D01*
X227824494Y-137239463D01*
X227714180Y-137180498D01*
X227594482Y-137144188D01*
X227470000Y-137131928D01*
X225870000Y-137131928D01*
X225745518Y-137144188D01*
X225625820Y-137180498D01*
X225515506Y-137239463D01*
X225418815Y-137318815D01*
X225339463Y-137415506D01*
X225280498Y-137525820D01*
X225244188Y-137645518D01*
X225231928Y-137770000D01*
X201397000Y-137770000D01*
X201397000Y-133910000D01*
X202321928Y-133910000D01*
X202321928Y-135610000D01*
X202334188Y-135734482D01*
X202370498Y-135854180D01*
X202429463Y-135964494D01*
X202508815Y-136061185D01*
X202605506Y-136140537D01*
X202715820Y-136199502D01*
X202835518Y-136235812D01*
X202960000Y-136248072D01*
X204660000Y-136248072D01*
X204784482Y-136235812D01*
X204904180Y-136199502D01*
X205014494Y-136140537D01*
X205111185Y-136061185D01*
X205190537Y-135964494D01*
X205249502Y-135854180D01*
X205285812Y-135734482D01*
X205298072Y-135610000D01*
X205298072Y-133910000D01*
X205285812Y-133785518D01*
X205249502Y-133665820D01*
X205190537Y-133555506D01*
X205111185Y-133458815D01*
X205014494Y-133379463D01*
X204904180Y-133320498D01*
X204831620Y-133298487D01*
X204963475Y-133166632D01*
X205125990Y-132923411D01*
X205237932Y-132653158D01*
X205245298Y-132616122D01*
X209105825Y-132616122D01*
X209170425Y-132829094D01*
X209320469Y-133134329D01*
X209527178Y-133404427D01*
X209782609Y-133629008D01*
X210076946Y-133799442D01*
X210398877Y-133909179D01*
X210668000Y-133791600D01*
X210668000Y-132347000D01*
X210922000Y-132347000D01*
X210922000Y-133791600D01*
X211191123Y-133909179D01*
X211513054Y-133799442D01*
X211807391Y-133629008D01*
X212062822Y-133404427D01*
X212269531Y-133134329D01*
X212419575Y-132829094D01*
X212484175Y-132616122D01*
X212366125Y-132347000D01*
X210922000Y-132347000D01*
X210668000Y-132347000D01*
X209223875Y-132347000D01*
X209105825Y-132616122D01*
X205245298Y-132616122D01*
X205295000Y-132366260D01*
X205295000Y-132073740D01*
X205245299Y-131823878D01*
X209105825Y-131823878D01*
X209223875Y-132093000D01*
X210668000Y-132093000D01*
X210668000Y-130648400D01*
X210922000Y-130648400D01*
X210922000Y-132093000D01*
X212366125Y-132093000D01*
X212484175Y-131823878D01*
X212419575Y-131610906D01*
X212269531Y-131305671D01*
X212127435Y-131120000D01*
X219216928Y-131120000D01*
X219216928Y-133320000D01*
X219229188Y-133444482D01*
X219265498Y-133564180D01*
X219324463Y-133674494D01*
X219403815Y-133771185D01*
X219500506Y-133850537D01*
X219610820Y-133909502D01*
X219730518Y-133945812D01*
X219855000Y-133958072D01*
X222055000Y-133958072D01*
X222179482Y-133945812D01*
X222299180Y-133909502D01*
X222409494Y-133850537D01*
X222506185Y-133771185D01*
X222585537Y-133674494D01*
X222644502Y-133564180D01*
X222680812Y-133444482D01*
X222693072Y-133320000D01*
X222693072Y-131120000D01*
X222680812Y-130995518D01*
X222644502Y-130875820D01*
X222585537Y-130765506D01*
X222506185Y-130668815D01*
X222409494Y-130589463D01*
X222299180Y-130530498D01*
X222179482Y-130494188D01*
X222055000Y-130481928D01*
X219855000Y-130481928D01*
X219730518Y-130494188D01*
X219610820Y-130530498D01*
X219500506Y-130589463D01*
X219403815Y-130668815D01*
X219324463Y-130765506D01*
X219265498Y-130875820D01*
X219229188Y-130995518D01*
X219216928Y-131120000D01*
X212127435Y-131120000D01*
X212062822Y-131035573D01*
X211807391Y-130810992D01*
X211513054Y-130640558D01*
X211191123Y-130530821D01*
X210922000Y-130648400D01*
X210668000Y-130648400D01*
X210398877Y-130530821D01*
X210076946Y-130640558D01*
X209782609Y-130810992D01*
X209527178Y-131035573D01*
X209320469Y-131305671D01*
X209170425Y-131610906D01*
X209105825Y-131823878D01*
X205245299Y-131823878D01*
X205237932Y-131786842D01*
X205125990Y-131516589D01*
X204963475Y-131273368D01*
X204756632Y-131066525D01*
X204582240Y-130950000D01*
X204756632Y-130833475D01*
X204963475Y-130626632D01*
X205125990Y-130383411D01*
X205237932Y-130113158D01*
X205295000Y-129826260D01*
X205295000Y-129533740D01*
X205237932Y-129246842D01*
X205125990Y-128976589D01*
X204963475Y-128733368D01*
X204756632Y-128526525D01*
X204574466Y-128404805D01*
X204691355Y-128335178D01*
X204907588Y-128140269D01*
X205081641Y-127906920D01*
X205206825Y-127644099D01*
X205251476Y-127496890D01*
X205130155Y-127267000D01*
X203937000Y-127267000D01*
X203937000Y-127287000D01*
X203683000Y-127287000D01*
X203683000Y-127267000D01*
X202489845Y-127267000D01*
X202368524Y-127496890D01*
X202413175Y-127644099D01*
X202538359Y-127906920D01*
X202712412Y-128140269D01*
X202928645Y-128335178D01*
X203045534Y-128404805D01*
X202863368Y-128526525D01*
X202656525Y-128733368D01*
X202494010Y-128976589D01*
X202382068Y-129246842D01*
X202325000Y-129533740D01*
X202325000Y-129826260D01*
X202382068Y-130113158D01*
X202494010Y-130383411D01*
X202656525Y-130626632D01*
X202863368Y-130833475D01*
X203037760Y-130950000D01*
X202863368Y-131066525D01*
X202656525Y-131273368D01*
X202494010Y-131516589D01*
X202382068Y-131786842D01*
X202325000Y-132073740D01*
X202325000Y-132366260D01*
X202382068Y-132653158D01*
X202494010Y-132923411D01*
X202656525Y-133166632D01*
X202788380Y-133298487D01*
X202715820Y-133320498D01*
X202605506Y-133379463D01*
X202508815Y-133458815D01*
X202429463Y-133555506D01*
X202370498Y-133665820D01*
X202334188Y-133785518D01*
X202321928Y-133910000D01*
X201397000Y-133910000D01*
X201397000Y-126783110D01*
X202368524Y-126783110D01*
X202489845Y-127013000D01*
X203683000Y-127013000D01*
X203683000Y-125819186D01*
X203937000Y-125819186D01*
X203937000Y-127013000D01*
X205130155Y-127013000D01*
X205251476Y-126783110D01*
X205206825Y-126635901D01*
X205081641Y-126373080D01*
X204907588Y-126139731D01*
X204691355Y-125944822D01*
X204441252Y-125795843D01*
X204166891Y-125698519D01*
X203937000Y-125819186D01*
X203683000Y-125819186D01*
X203453109Y-125698519D01*
X203178748Y-125795843D01*
X202928645Y-125944822D01*
X202712412Y-126139731D01*
X202538359Y-126373080D01*
X202413175Y-126635901D01*
X202368524Y-126783110D01*
X201397000Y-126783110D01*
X201397000Y-114860000D01*
X202321928Y-114860000D01*
X202325000Y-115424250D01*
X202483750Y-115583000D01*
X203683000Y-115583000D01*
X203683000Y-114383750D01*
X203937000Y-114383750D01*
X203937000Y-115583000D01*
X205136250Y-115583000D01*
X205295000Y-115424250D01*
X205298072Y-114860000D01*
X205285812Y-114735518D01*
X205249502Y-114615820D01*
X205190537Y-114505506D01*
X205111185Y-114408815D01*
X205014494Y-114329463D01*
X204904180Y-114270498D01*
X204784482Y-114234188D01*
X204660000Y-114221928D01*
X204095750Y-114225000D01*
X203937000Y-114383750D01*
X203683000Y-114383750D01*
X203524250Y-114225000D01*
X202960000Y-114221928D01*
X202835518Y-114234188D01*
X202715820Y-114270498D01*
X202605506Y-114329463D01*
X202508815Y-114408815D01*
X202429463Y-114505506D01*
X202370498Y-114615820D01*
X202334188Y-114735518D01*
X202321928Y-114860000D01*
X201397000Y-114860000D01*
X201397000Y-106400000D01*
X202321928Y-106400000D01*
X202334188Y-106524482D01*
X202370498Y-106644180D01*
X202429463Y-106754494D01*
X202508815Y-106851185D01*
X202605506Y-106930537D01*
X202715820Y-106989502D01*
X202788380Y-107011513D01*
X202656525Y-107143368D01*
X202494010Y-107386589D01*
X202382068Y-107656842D01*
X202325000Y-107943740D01*
X202325000Y-108236260D01*
X202382068Y-108523158D01*
X202494010Y-108793411D01*
X202656525Y-109036632D01*
X202863368Y-109243475D01*
X203037760Y-109360000D01*
X202863368Y-109476525D01*
X202656525Y-109683368D01*
X202494010Y-109926589D01*
X202382068Y-110196842D01*
X202325000Y-110483740D01*
X202325000Y-110776260D01*
X202382068Y-111063158D01*
X202494010Y-111333411D01*
X202656525Y-111576632D01*
X202863368Y-111783475D01*
X203106589Y-111945990D01*
X203376842Y-112057932D01*
X203663740Y-112115000D01*
X203956260Y-112115000D01*
X204243158Y-112057932D01*
X204513411Y-111945990D01*
X204756632Y-111783475D01*
X204963475Y-111576632D01*
X205038065Y-111465000D01*
X206308982Y-111465000D01*
X206350000Y-111469040D01*
X206391018Y-111465000D01*
X206391019Y-111465000D01*
X206513689Y-111452918D01*
X206671087Y-111405172D01*
X206816146Y-111327636D01*
X206943291Y-111223291D01*
X206969446Y-111191421D01*
X207715868Y-110445000D01*
X207726863Y-110445000D01*
X207936483Y-110403304D01*
X208133940Y-110321515D01*
X208311647Y-110202775D01*
X208462775Y-110051647D01*
X208581515Y-109873940D01*
X208663304Y-109676483D01*
X208705000Y-109466863D01*
X208705000Y-109253137D01*
X208663466Y-109044334D01*
X210868570Y-111249438D01*
X210868575Y-111249442D01*
X211615000Y-111995868D01*
X211615000Y-112006863D01*
X211656696Y-112216483D01*
X211738485Y-112413940D01*
X211765001Y-112453623D01*
X211765000Y-112970000D01*
X208296018Y-112970000D01*
X208255000Y-112965960D01*
X208213982Y-112970000D01*
X208213981Y-112970000D01*
X208091311Y-112982082D01*
X207933913Y-113029828D01*
X207788854Y-113107364D01*
X207712532Y-113170000D01*
X207661709Y-113211709D01*
X207635562Y-113243569D01*
X207058573Y-113820559D01*
X207026710Y-113846709D01*
X206954404Y-113934814D01*
X206922364Y-113973855D01*
X206844828Y-114118914D01*
X206797082Y-114276312D01*
X206780960Y-114440000D01*
X206785001Y-114481028D01*
X206785000Y-115999131D01*
X205369133Y-117415000D01*
X205038065Y-117415000D01*
X204963475Y-117303368D01*
X204831620Y-117171513D01*
X204904180Y-117149502D01*
X205014494Y-117090537D01*
X205111185Y-117011185D01*
X205190537Y-116914494D01*
X205249502Y-116804180D01*
X205285812Y-116684482D01*
X205298072Y-116560000D01*
X205295000Y-115995750D01*
X205136250Y-115837000D01*
X203937000Y-115837000D01*
X203937000Y-115857000D01*
X203683000Y-115857000D01*
X203683000Y-115837000D01*
X202483750Y-115837000D01*
X202325000Y-115995750D01*
X202321928Y-116560000D01*
X202334188Y-116684482D01*
X202370498Y-116804180D01*
X202429463Y-116914494D01*
X202508815Y-117011185D01*
X202605506Y-117090537D01*
X202715820Y-117149502D01*
X202788380Y-117171513D01*
X202656525Y-117303368D01*
X202494010Y-117546589D01*
X202382068Y-117816842D01*
X202325000Y-118103740D01*
X202325000Y-118396260D01*
X202382068Y-118683158D01*
X202494010Y-118953411D01*
X202656525Y-119196632D01*
X202863368Y-119403475D01*
X203037760Y-119520000D01*
X202863368Y-119636525D01*
X202656525Y-119843368D01*
X202494010Y-120086589D01*
X202382068Y-120356842D01*
X202325000Y-120643740D01*
X202325000Y-120936260D01*
X202382068Y-121223158D01*
X202494010Y-121493411D01*
X202656525Y-121736632D01*
X202863368Y-121943475D01*
X203106589Y-122105990D01*
X203376842Y-122217932D01*
X203663740Y-122275000D01*
X203956260Y-122275000D01*
X204243158Y-122217932D01*
X204513411Y-122105990D01*
X204756632Y-121943475D01*
X204963475Y-121736632D01*
X205038065Y-121625000D01*
X206308982Y-121625000D01*
X206350000Y-121629040D01*
X206391018Y-121625000D01*
X206391019Y-121625000D01*
X206513689Y-121612918D01*
X206671087Y-121565172D01*
X206816146Y-121487636D01*
X206943291Y-121383291D01*
X206969446Y-121351421D01*
X207715868Y-120605000D01*
X207726863Y-120605000D01*
X207936483Y-120563304D01*
X208133940Y-120481515D01*
X208311647Y-120362775D01*
X208462775Y-120211647D01*
X208581515Y-120033940D01*
X208663304Y-119836483D01*
X208705000Y-119626863D01*
X208705000Y-119413137D01*
X208663304Y-119203517D01*
X208581515Y-119006060D01*
X208462775Y-118828353D01*
X208311647Y-118677225D01*
X208133940Y-118558485D01*
X207936483Y-118476696D01*
X207726863Y-118435000D01*
X207513137Y-118435000D01*
X207303517Y-118476696D01*
X207106060Y-118558485D01*
X206928353Y-118677225D01*
X206777225Y-118828353D01*
X206658485Y-119006060D01*
X206576696Y-119203517D01*
X206535000Y-119413137D01*
X206535000Y-119424132D01*
X206004133Y-119955000D01*
X205038065Y-119955000D01*
X204963475Y-119843368D01*
X204756632Y-119636525D01*
X204582240Y-119520000D01*
X204756632Y-119403475D01*
X204963475Y-119196632D01*
X205038065Y-119085000D01*
X205673982Y-119085000D01*
X205715000Y-119089040D01*
X205756018Y-119085000D01*
X205756019Y-119085000D01*
X205878689Y-119072918D01*
X206036087Y-119025172D01*
X206181146Y-118947636D01*
X206308291Y-118843291D01*
X206334446Y-118811421D01*
X208181433Y-116964436D01*
X208213291Y-116938291D01*
X208317636Y-116811146D01*
X208395172Y-116666087D01*
X208442918Y-116508689D01*
X208455000Y-116386019D01*
X208455000Y-116386018D01*
X208459040Y-116345000D01*
X208455000Y-116303982D01*
X208455000Y-114785868D01*
X208600868Y-114640000D01*
X211765001Y-114640000D01*
X211765000Y-120236377D01*
X211738485Y-120276060D01*
X211656696Y-120473517D01*
X211615000Y-120683137D01*
X211615000Y-120896863D01*
X211656696Y-121106483D01*
X211738485Y-121303940D01*
X211765001Y-121343624D01*
X211765000Y-125316377D01*
X211738485Y-125356060D01*
X211656696Y-125553517D01*
X211615000Y-125763137D01*
X211615000Y-125976863D01*
X211656696Y-126186483D01*
X211738485Y-126383940D01*
X211857225Y-126561647D01*
X212008353Y-126712775D01*
X212186060Y-126831515D01*
X212383517Y-126913304D01*
X212593137Y-126955000D01*
X212806863Y-126955000D01*
X213016483Y-126913304D01*
X213213940Y-126831515D01*
X213391647Y-126712775D01*
X213542775Y-126561647D01*
X213661515Y-126383940D01*
X213743304Y-126186483D01*
X213785000Y-125976863D01*
X213785000Y-125763137D01*
X213743304Y-125553517D01*
X213661515Y-125356060D01*
X213635000Y-125316377D01*
X213635000Y-124003439D01*
X219800000Y-124003439D01*
X219800000Y-124256561D01*
X219849381Y-124504821D01*
X219946247Y-124738676D01*
X220086875Y-124949140D01*
X220265860Y-125128125D01*
X220476324Y-125268753D01*
X220710179Y-125365619D01*
X220958439Y-125415000D01*
X221211561Y-125415000D01*
X221459821Y-125365619D01*
X221693676Y-125268753D01*
X221904140Y-125128125D01*
X222016738Y-125015527D01*
X227979078Y-125015527D01*
X228032466Y-125244201D01*
X228262374Y-125350095D01*
X228508524Y-125409102D01*
X228761455Y-125418952D01*
X229011449Y-125379270D01*
X229248896Y-125291578D01*
X229337534Y-125244201D01*
X229390922Y-125015527D01*
X228685000Y-124309605D01*
X227979078Y-125015527D01*
X222016738Y-125015527D01*
X222083125Y-124949140D01*
X222223753Y-124738676D01*
X222320619Y-124504821D01*
X222370000Y-124256561D01*
X222370000Y-124206455D01*
X227396048Y-124206455D01*
X227435730Y-124456449D01*
X227523422Y-124693896D01*
X227570799Y-124782534D01*
X227799473Y-124835922D01*
X228505395Y-124130000D01*
X228864605Y-124130000D01*
X229570527Y-124835922D01*
X229799201Y-124782534D01*
X229905095Y-124552626D01*
X229964102Y-124306476D01*
X229973952Y-124053545D01*
X229934270Y-123803551D01*
X229846578Y-123566104D01*
X229799201Y-123477466D01*
X229570527Y-123424078D01*
X228864605Y-124130000D01*
X228505395Y-124130000D01*
X227799473Y-123424078D01*
X227570799Y-123477466D01*
X227464905Y-123707374D01*
X227405898Y-123953524D01*
X227396048Y-124206455D01*
X222370000Y-124206455D01*
X222370000Y-124003439D01*
X222320619Y-123755179D01*
X222223753Y-123521324D01*
X222083125Y-123310860D01*
X222016738Y-123244473D01*
X227979078Y-123244473D01*
X228685000Y-123950395D01*
X229390922Y-123244473D01*
X229337534Y-123015799D01*
X229107626Y-122909905D01*
X228861476Y-122850898D01*
X228608545Y-122841048D01*
X228358551Y-122880730D01*
X228121104Y-122968422D01*
X228032466Y-123015799D01*
X227979078Y-123244473D01*
X222016738Y-123244473D01*
X221904140Y-123131875D01*
X221693676Y-122991247D01*
X221459821Y-122894381D01*
X221211561Y-122845000D01*
X220958439Y-122845000D01*
X220710179Y-122894381D01*
X220476324Y-122991247D01*
X220265860Y-123131875D01*
X220086875Y-123310860D01*
X219946247Y-123521324D01*
X219849381Y-123755179D01*
X219800000Y-124003439D01*
X213635000Y-124003439D01*
X213635000Y-121343623D01*
X213661515Y-121303940D01*
X213743304Y-121106483D01*
X213785000Y-120896863D01*
X213785000Y-120683137D01*
X213743304Y-120473517D01*
X213716995Y-120410000D01*
X253021928Y-120410000D01*
X253025000Y-121774250D01*
X253057856Y-121807106D01*
X253024887Y-121973998D01*
X253025116Y-122148328D01*
X253058039Y-122312711D01*
X253025000Y-122345750D01*
X253021928Y-123710000D01*
X253034188Y-123834482D01*
X253070498Y-123954180D01*
X253129463Y-124064494D01*
X253208815Y-124161185D01*
X253305506Y-124240537D01*
X253415820Y-124299502D01*
X253535518Y-124335812D01*
X253660000Y-124348072D01*
X254324250Y-124345000D01*
X254483000Y-124186250D01*
X254483000Y-123859052D01*
X254506164Y-123882216D01*
X254610000Y-123879991D01*
X254713836Y-123882216D01*
X254737000Y-123859052D01*
X254737000Y-124186250D01*
X254895750Y-124345000D01*
X255560000Y-124348072D01*
X255684482Y-124335812D01*
X255804180Y-124299502D01*
X255914494Y-124240537D01*
X256011185Y-124161185D01*
X256090537Y-124064494D01*
X256149502Y-123954180D01*
X256185812Y-123834482D01*
X256198072Y-123710000D01*
X256195000Y-122345750D01*
X256162144Y-122312894D01*
X256195113Y-122146002D01*
X256194884Y-121971672D01*
X256161961Y-121807289D01*
X256195000Y-121774250D01*
X256198072Y-120410000D01*
X256185812Y-120285518D01*
X256149502Y-120165820D01*
X256090537Y-120055506D01*
X256011185Y-119958815D01*
X255914494Y-119879463D01*
X255804180Y-119820498D01*
X255684482Y-119784188D01*
X255560000Y-119771928D01*
X254895750Y-119775000D01*
X254737000Y-119933750D01*
X254737000Y-120260948D01*
X254713836Y-120237784D01*
X254610000Y-120240009D01*
X254506164Y-120237784D01*
X254483000Y-120260948D01*
X254483000Y-119933750D01*
X254324250Y-119775000D01*
X253660000Y-119771928D01*
X253535518Y-119784188D01*
X253415820Y-119820498D01*
X253305506Y-119879463D01*
X253208815Y-119958815D01*
X253129463Y-120055506D01*
X253070498Y-120165820D01*
X253034188Y-120285518D01*
X253021928Y-120410000D01*
X213716995Y-120410000D01*
X213661515Y-120276060D01*
X213635000Y-120236377D01*
X213635000Y-114400000D01*
X219004068Y-114400000D01*
X219050000Y-114404524D01*
X219095932Y-114400000D01*
X219233292Y-114386471D01*
X219409540Y-114333007D01*
X219571972Y-114246186D01*
X219714344Y-114129344D01*
X219743630Y-114093659D01*
X221122289Y-112715000D01*
X221211561Y-112715000D01*
X221459821Y-112665619D01*
X221693676Y-112568753D01*
X221904140Y-112428125D01*
X222083125Y-112249140D01*
X222223753Y-112038676D01*
X222320619Y-111804821D01*
X222370000Y-111556561D01*
X222370000Y-111535000D01*
X234556928Y-111535000D01*
X234556928Y-113535000D01*
X234569188Y-113659482D01*
X234605498Y-113779180D01*
X234664463Y-113889494D01*
X234743815Y-113986185D01*
X234840506Y-114065537D01*
X234950820Y-114124502D01*
X235070518Y-114160812D01*
X235195000Y-114173072D01*
X237195000Y-114173072D01*
X237319482Y-114160812D01*
X237439180Y-114124502D01*
X237549494Y-114065537D01*
X237646185Y-113986185D01*
X237725537Y-113889494D01*
X237784502Y-113779180D01*
X237817496Y-113670413D01*
X240239192Y-113670413D01*
X240334956Y-113934814D01*
X240624571Y-114075704D01*
X240936108Y-114157384D01*
X241257595Y-114176718D01*
X241576675Y-114132961D01*
X241881088Y-114027795D01*
X242055044Y-113934814D01*
X242150808Y-113670413D01*
X241195000Y-112714605D01*
X240239192Y-113670413D01*
X237817496Y-113670413D01*
X237820812Y-113659482D01*
X237833072Y-113535000D01*
X237833072Y-112597595D01*
X239553282Y-112597595D01*
X239597039Y-112916675D01*
X239702205Y-113221088D01*
X239795186Y-113395044D01*
X240059587Y-113490808D01*
X241015395Y-112535000D01*
X241374605Y-112535000D01*
X242330413Y-113490808D01*
X242594814Y-113395044D01*
X242735704Y-113105429D01*
X242817384Y-112793892D01*
X242836718Y-112472405D01*
X242792961Y-112153325D01*
X242687795Y-111848912D01*
X242594814Y-111674956D01*
X242330413Y-111579192D01*
X241374605Y-112535000D01*
X241015395Y-112535000D01*
X240059587Y-111579192D01*
X239795186Y-111674956D01*
X239654296Y-111964571D01*
X239572616Y-112276108D01*
X239553282Y-112597595D01*
X237833072Y-112597595D01*
X237833072Y-111535000D01*
X237820812Y-111410518D01*
X237817497Y-111399587D01*
X240239192Y-111399587D01*
X241195000Y-112355395D01*
X242150808Y-111399587D01*
X242055044Y-111135186D01*
X241765429Y-110994296D01*
X241453892Y-110912616D01*
X241132405Y-110893282D01*
X240813325Y-110937039D01*
X240508912Y-111042205D01*
X240334956Y-111135186D01*
X240239192Y-111399587D01*
X237817497Y-111399587D01*
X237784502Y-111290820D01*
X237725537Y-111180506D01*
X237646185Y-111083815D01*
X237549494Y-111004463D01*
X237439180Y-110945498D01*
X237319482Y-110909188D01*
X237195000Y-110896928D01*
X235195000Y-110896928D01*
X235070518Y-110909188D01*
X234950820Y-110945498D01*
X234840506Y-111004463D01*
X234743815Y-111083815D01*
X234664463Y-111180506D01*
X234605498Y-111290820D01*
X234569188Y-111410518D01*
X234556928Y-111535000D01*
X222370000Y-111535000D01*
X222370000Y-111303439D01*
X222320619Y-111055179D01*
X222223753Y-110821324D01*
X222083125Y-110610860D01*
X221904140Y-110431875D01*
X221693676Y-110291247D01*
X221459821Y-110194381D01*
X221211561Y-110145000D01*
X220958439Y-110145000D01*
X220710179Y-110194381D01*
X220476324Y-110291247D01*
X220265860Y-110431875D01*
X220086875Y-110610860D01*
X219946247Y-110821324D01*
X219849381Y-111055179D01*
X219800000Y-111303439D01*
X219800000Y-111392711D01*
X218662711Y-112530000D01*
X213635000Y-112530000D01*
X213635000Y-112453623D01*
X213661515Y-112413940D01*
X213743304Y-112216483D01*
X213785000Y-112006863D01*
X213785000Y-111793137D01*
X213743304Y-111583517D01*
X213661515Y-111386060D01*
X213542775Y-111208353D01*
X213391647Y-111057225D01*
X213213940Y-110938485D01*
X213016483Y-110856696D01*
X212806863Y-110815000D01*
X212795868Y-110815000D01*
X212049442Y-110068575D01*
X212049438Y-110068570D01*
X209509446Y-107528579D01*
X209483291Y-107496709D01*
X209356146Y-107392364D01*
X209211087Y-107314828D01*
X209053689Y-107267082D01*
X208931019Y-107255000D01*
X208931018Y-107255000D01*
X208890000Y-107250960D01*
X208848982Y-107255000D01*
X205038065Y-107255000D01*
X204963475Y-107143368D01*
X204831620Y-107011513D01*
X204904180Y-106989502D01*
X205014494Y-106930537D01*
X205111185Y-106851185D01*
X205190537Y-106754494D01*
X205249502Y-106644180D01*
X205285812Y-106524482D01*
X205298072Y-106400000D01*
X205295000Y-105835750D01*
X205136250Y-105677000D01*
X203937000Y-105677000D01*
X203937000Y-105697000D01*
X203683000Y-105697000D01*
X203683000Y-105677000D01*
X202483750Y-105677000D01*
X202325000Y-105835750D01*
X202321928Y-106400000D01*
X201397000Y-106400000D01*
X201397000Y-104700000D01*
X202321928Y-104700000D01*
X202325000Y-105264250D01*
X202483750Y-105423000D01*
X203683000Y-105423000D01*
X203683000Y-104223750D01*
X203937000Y-104223750D01*
X203937000Y-105423000D01*
X205136250Y-105423000D01*
X205295000Y-105264250D01*
X205298072Y-104700000D01*
X205285812Y-104575518D01*
X205249502Y-104455820D01*
X205190537Y-104345506D01*
X205111185Y-104248815D01*
X205014494Y-104169463D01*
X204904180Y-104110498D01*
X204784482Y-104074188D01*
X204660000Y-104061928D01*
X204095750Y-104065000D01*
X203937000Y-104223750D01*
X203683000Y-104223750D01*
X203524250Y-104065000D01*
X202960000Y-104061928D01*
X202835518Y-104074188D01*
X202715820Y-104110498D01*
X202605506Y-104169463D01*
X202508815Y-104248815D01*
X202429463Y-104345506D01*
X202370498Y-104455820D01*
X202334188Y-104575518D01*
X202321928Y-104700000D01*
X201397000Y-104700000D01*
X201397000Y-101867000D01*
X206350000Y-101867000D01*
X206374776Y-101864560D01*
X206398601Y-101857333D01*
X206420557Y-101845597D01*
X206439803Y-101829803D01*
X206455597Y-101810557D01*
X206467333Y-101788601D01*
X206474560Y-101764776D01*
X206477000Y-101740000D01*
X206477000Y-101281423D01*
X207665107Y-102469531D01*
X207699076Y-102510922D01*
X207740467Y-102544891D01*
X207740471Y-102544895D01*
X207761627Y-102562257D01*
X207864288Y-102646509D01*
X208052778Y-102747259D01*
X208195259Y-102790480D01*
X208257300Y-102809300D01*
X208277076Y-102811248D01*
X208416704Y-102825000D01*
X208416711Y-102825000D01*
X208469997Y-102830248D01*
X208523283Y-102825000D01*
X221775001Y-102825000D01*
X221775000Y-105496714D01*
X221769752Y-105550000D01*
X221775000Y-105603286D01*
X221775000Y-105603293D01*
X221790700Y-105762696D01*
X221852741Y-105967219D01*
X221953491Y-106155710D01*
X222089078Y-106320922D01*
X222130474Y-106354895D01*
X225395109Y-109619531D01*
X225429078Y-109660922D01*
X225470469Y-109694891D01*
X225470473Y-109694895D01*
X225487831Y-109709140D01*
X225594290Y-109796509D01*
X225782780Y-109897259D01*
X225925261Y-109940480D01*
X225987302Y-109959300D01*
X226007078Y-109961248D01*
X226146706Y-109975000D01*
X226146713Y-109975000D01*
X226199999Y-109980248D01*
X226253285Y-109975000D01*
X227995877Y-109975000D01*
X228076324Y-110028753D01*
X228310179Y-110125619D01*
X228558439Y-110175000D01*
X228811561Y-110175000D01*
X229059821Y-110125619D01*
X229293676Y-110028753D01*
X229504140Y-109888125D01*
X229683125Y-109709140D01*
X229823753Y-109498676D01*
X229920619Y-109264821D01*
X229970000Y-109016561D01*
X229970000Y-108763439D01*
X229920619Y-108515179D01*
X229823753Y-108281324D01*
X229683125Y-108070860D01*
X229504140Y-107891875D01*
X229293676Y-107751247D01*
X229059821Y-107654381D01*
X228811561Y-107605000D01*
X228558439Y-107605000D01*
X228310179Y-107654381D01*
X228076324Y-107751247D01*
X227995877Y-107805000D01*
X226649422Y-107805000D01*
X223945000Y-105100579D01*
X223945000Y-102858816D01*
X227040000Y-102858816D01*
X227040000Y-103161184D01*
X227098989Y-103457743D01*
X227214701Y-103737095D01*
X227382688Y-103988505D01*
X227596495Y-104202312D01*
X227847905Y-104370299D01*
X228127257Y-104486011D01*
X228423816Y-104545000D01*
X228726184Y-104545000D01*
X229022743Y-104486011D01*
X229302095Y-104370299D01*
X229553505Y-104202312D01*
X229619944Y-104135873D01*
X229625498Y-104154180D01*
X229684463Y-104264494D01*
X229763815Y-104361185D01*
X229860506Y-104440537D01*
X229970820Y-104499502D01*
X230090518Y-104535812D01*
X230215000Y-104548072D01*
X230829250Y-104545000D01*
X230988000Y-104386250D01*
X230988000Y-103137000D01*
X231242000Y-103137000D01*
X231242000Y-104386250D01*
X231400750Y-104545000D01*
X232015000Y-104548072D01*
X232139482Y-104535812D01*
X232259180Y-104499502D01*
X232369494Y-104440537D01*
X232466185Y-104361185D01*
X232545537Y-104264494D01*
X232604502Y-104154180D01*
X232640812Y-104034482D01*
X232653072Y-103910000D01*
X232650000Y-103295750D01*
X232491250Y-103137000D01*
X231242000Y-103137000D01*
X230988000Y-103137000D01*
X230968000Y-103137000D01*
X230968000Y-102883000D01*
X230988000Y-102883000D01*
X230988000Y-101633750D01*
X231242000Y-101633750D01*
X231242000Y-102883000D01*
X232491250Y-102883000D01*
X232650000Y-102724250D01*
X232653072Y-102110000D01*
X232640812Y-101985518D01*
X232604502Y-101865820D01*
X232545537Y-101755506D01*
X232466185Y-101658815D01*
X232369494Y-101579463D01*
X232259180Y-101520498D01*
X232139482Y-101484188D01*
X232015000Y-101471928D01*
X231400750Y-101475000D01*
X231242000Y-101633750D01*
X230988000Y-101633750D01*
X230829250Y-101475000D01*
X230215000Y-101471928D01*
X230090518Y-101484188D01*
X229970820Y-101520498D01*
X229860506Y-101579463D01*
X229763815Y-101658815D01*
X229684463Y-101755506D01*
X229625498Y-101865820D01*
X229619944Y-101884127D01*
X229553505Y-101817688D01*
X229302095Y-101649701D01*
X229022743Y-101533989D01*
X228726184Y-101475000D01*
X228423816Y-101475000D01*
X228127257Y-101533989D01*
X227847905Y-101649701D01*
X227596495Y-101817688D01*
X227382688Y-102031495D01*
X227214701Y-102282905D01*
X227098989Y-102562257D01*
X227040000Y-102858816D01*
X223945000Y-102858816D01*
X223945000Y-101793294D01*
X223950249Y-101740000D01*
X223945000Y-101686706D01*
X223945000Y-101633137D01*
X223934549Y-101580596D01*
X223929300Y-101527303D01*
X223913755Y-101476058D01*
X223903304Y-101423517D01*
X223882804Y-101374026D01*
X223867259Y-101322780D01*
X223842015Y-101275552D01*
X223821515Y-101226060D01*
X223791752Y-101181517D01*
X223766509Y-101134290D01*
X223732538Y-101092897D01*
X223702775Y-101048353D01*
X223664891Y-101010469D01*
X223630922Y-100969078D01*
X223589531Y-100935109D01*
X223551647Y-100897225D01*
X223507103Y-100867462D01*
X223465710Y-100833491D01*
X223418483Y-100808248D01*
X223373940Y-100778485D01*
X223324448Y-100757985D01*
X223277220Y-100732741D01*
X223225974Y-100717196D01*
X223176483Y-100696696D01*
X223123942Y-100686245D01*
X223072697Y-100670700D01*
X223019404Y-100665451D01*
X222966863Y-100655000D01*
X222913294Y-100655000D01*
X222860000Y-100649751D01*
X222806707Y-100655000D01*
X208919420Y-100655000D01*
X208522492Y-100258072D01*
X209220000Y-100258072D01*
X209344482Y-100245812D01*
X209464180Y-100209502D01*
X209574494Y-100150537D01*
X209671185Y-100071185D01*
X209750537Y-99974494D01*
X209809502Y-99864180D01*
X209831513Y-99791620D01*
X209963368Y-99923475D01*
X210206589Y-100085990D01*
X210476842Y-100197932D01*
X210763740Y-100255000D01*
X211056260Y-100255000D01*
X211343158Y-100197932D01*
X211613411Y-100085990D01*
X211856632Y-99923475D01*
X212063475Y-99716632D01*
X212180000Y-99542240D01*
X212296525Y-99716632D01*
X212503368Y-99923475D01*
X212746589Y-100085990D01*
X213016842Y-100197932D01*
X213303740Y-100255000D01*
X213596260Y-100255000D01*
X213883158Y-100197932D01*
X214153411Y-100085990D01*
X214396632Y-99923475D01*
X214603475Y-99716632D01*
X214720000Y-99542240D01*
X214836525Y-99716632D01*
X215043368Y-99923475D01*
X215286589Y-100085990D01*
X215556842Y-100197932D01*
X215843740Y-100255000D01*
X216136260Y-100255000D01*
X216423158Y-100197932D01*
X216693411Y-100085990D01*
X216936632Y-99923475D01*
X217143475Y-99716632D01*
X217265195Y-99534466D01*
X217334822Y-99651355D01*
X217529731Y-99867588D01*
X217763080Y-100041641D01*
X218025901Y-100166825D01*
X218173110Y-100211476D01*
X218403000Y-100090155D01*
X218403000Y-98897000D01*
X218383000Y-98897000D01*
X218383000Y-98643000D01*
X218403000Y-98643000D01*
X218403000Y-98623000D01*
X218657000Y-98623000D01*
X218657000Y-98643000D01*
X218677000Y-98643000D01*
X218677000Y-98897000D01*
X218657000Y-98897000D01*
X218657000Y-100090155D01*
X218886890Y-100211476D01*
X219034099Y-100166825D01*
X219296920Y-100041641D01*
X219530269Y-99867588D01*
X219725178Y-99651355D01*
X219794805Y-99534466D01*
X219916525Y-99716632D01*
X220123368Y-99923475D01*
X220366589Y-100085990D01*
X220636842Y-100197932D01*
X220923740Y-100255000D01*
X221216260Y-100255000D01*
X221503158Y-100197932D01*
X221773411Y-100085990D01*
X222016632Y-99923475D01*
X222223475Y-99716632D01*
X222340000Y-99542240D01*
X222456525Y-99716632D01*
X222663368Y-99923475D01*
X222906589Y-100085990D01*
X223176842Y-100197932D01*
X223463740Y-100255000D01*
X223756260Y-100255000D01*
X224043158Y-100197932D01*
X224313411Y-100085990D01*
X224556632Y-99923475D01*
X224763475Y-99716632D01*
X224880000Y-99542240D01*
X224996525Y-99716632D01*
X225203368Y-99923475D01*
X225446589Y-100085990D01*
X225716842Y-100197932D01*
X226003740Y-100255000D01*
X226296260Y-100255000D01*
X226583158Y-100197932D01*
X226853411Y-100085990D01*
X227096632Y-99923475D01*
X227303475Y-99716632D01*
X227420000Y-99542240D01*
X227536525Y-99716632D01*
X227743368Y-99923475D01*
X227986589Y-100085990D01*
X228256842Y-100197932D01*
X228543740Y-100255000D01*
X228836260Y-100255000D01*
X229123158Y-100197932D01*
X229393411Y-100085990D01*
X229636632Y-99923475D01*
X229843475Y-99716632D01*
X229960000Y-99542240D01*
X230076525Y-99716632D01*
X230283368Y-99923475D01*
X230526589Y-100085990D01*
X230796842Y-100197932D01*
X231083740Y-100255000D01*
X231376260Y-100255000D01*
X231663158Y-100197932D01*
X231933411Y-100085990D01*
X232176632Y-99923475D01*
X232383475Y-99716632D01*
X232500000Y-99542240D01*
X232616525Y-99716632D01*
X232823368Y-99923475D01*
X233066589Y-100085990D01*
X233336842Y-100197932D01*
X233623740Y-100255000D01*
X233916260Y-100255000D01*
X234203158Y-100197932D01*
X234473411Y-100085990D01*
X234716632Y-99923475D01*
X234923475Y-99716632D01*
X235040000Y-99542240D01*
X235156525Y-99716632D01*
X235363368Y-99923475D01*
X235606589Y-100085990D01*
X235876842Y-100197932D01*
X236163740Y-100255000D01*
X236456260Y-100255000D01*
X236743158Y-100197932D01*
X237013411Y-100085990D01*
X237256632Y-99923475D01*
X237463475Y-99716632D01*
X237585195Y-99534466D01*
X237654822Y-99651355D01*
X237849731Y-99867588D01*
X238083080Y-100041641D01*
X238345901Y-100166825D01*
X238493110Y-100211476D01*
X238723000Y-100090155D01*
X238723000Y-98897000D01*
X238703000Y-98897000D01*
X238703000Y-98643000D01*
X238723000Y-98643000D01*
X238723000Y-98623000D01*
X238977000Y-98623000D01*
X238977000Y-98643000D01*
X238997000Y-98643000D01*
X238997000Y-98897000D01*
X238977000Y-98897000D01*
X238977000Y-100090155D01*
X239206890Y-100211476D01*
X239354099Y-100166825D01*
X239616920Y-100041641D01*
X239850269Y-99867588D01*
X240045178Y-99651355D01*
X240114805Y-99534466D01*
X240236525Y-99716632D01*
X240443368Y-99923475D01*
X240686589Y-100085990D01*
X240956842Y-100197932D01*
X241243740Y-100255000D01*
X241536260Y-100255000D01*
X241823158Y-100197932D01*
X242093411Y-100085990D01*
X242336632Y-99923475D01*
X242543475Y-99716632D01*
X242660000Y-99542240D01*
X242776525Y-99716632D01*
X242983368Y-99923475D01*
X243226589Y-100085990D01*
X243496842Y-100197932D01*
X243783740Y-100255000D01*
X244076260Y-100255000D01*
X244363158Y-100197932D01*
X244633411Y-100085990D01*
X244876632Y-99923475D01*
X245083475Y-99716632D01*
X245200000Y-99542240D01*
X245316525Y-99716632D01*
X245523368Y-99923475D01*
X245766589Y-100085990D01*
X246036842Y-100197932D01*
X246323740Y-100255000D01*
X246616260Y-100255000D01*
X246903158Y-100197932D01*
X247173411Y-100085990D01*
X247416632Y-99923475D01*
X247623475Y-99716632D01*
X247740000Y-99542240D01*
X247856525Y-99716632D01*
X248063368Y-99923475D01*
X248306589Y-100085990D01*
X248576842Y-100197932D01*
X248863740Y-100255000D01*
X249156260Y-100255000D01*
X249443158Y-100197932D01*
X249713411Y-100085990D01*
X249956632Y-99923475D01*
X250163475Y-99716632D01*
X250280000Y-99542240D01*
X250396525Y-99716632D01*
X250603368Y-99923475D01*
X250846589Y-100085990D01*
X251116842Y-100197932D01*
X251403740Y-100255000D01*
X251696260Y-100255000D01*
X251983158Y-100197932D01*
X252253411Y-100085990D01*
X252496632Y-99923475D01*
X252703475Y-99716632D01*
X252820000Y-99542240D01*
X252936525Y-99716632D01*
X253143368Y-99923475D01*
X253386589Y-100085990D01*
X253656842Y-100197932D01*
X253943740Y-100255000D01*
X254236260Y-100255000D01*
X254523158Y-100197932D01*
X254793411Y-100085990D01*
X255036632Y-99923475D01*
X255243475Y-99716632D01*
X255365195Y-99534466D01*
X255434822Y-99651355D01*
X255629731Y-99867588D01*
X255863080Y-100041641D01*
X256125901Y-100166825D01*
X256273110Y-100211476D01*
X256503000Y-100090155D01*
X256503000Y-98897000D01*
X256757000Y-98897000D01*
X256757000Y-100090155D01*
X256986890Y-100211476D01*
X257134099Y-100166825D01*
X257396920Y-100041641D01*
X257630269Y-99867588D01*
X257825178Y-99651355D01*
X257974157Y-99401252D01*
X258071481Y-99126891D01*
X257950814Y-98897000D01*
X256757000Y-98897000D01*
X256503000Y-98897000D01*
X256483000Y-98897000D01*
X256483000Y-98643000D01*
X256503000Y-98643000D01*
X256503000Y-98623000D01*
X256757000Y-98623000D01*
X256757000Y-98643000D01*
X257950814Y-98643000D01*
X258071481Y-98413109D01*
X257974157Y-98138748D01*
X257825178Y-97888645D01*
X257630269Y-97672412D01*
X257400594Y-97501100D01*
X257576632Y-97383475D01*
X257783475Y-97176632D01*
X257945990Y-96933411D01*
X258057932Y-96663158D01*
X258115000Y-96376260D01*
X258115000Y-96083740D01*
X258057932Y-95796842D01*
X257945990Y-95526589D01*
X257939583Y-95517000D01*
X258293000Y-95517000D01*
X258293000Y-101740000D01*
G37*
X258293000Y-101740000D02*
X258295440Y-101764776D01*
X258302667Y-101788601D01*
X258314403Y-101810557D01*
X258330197Y-101829803D01*
X258349443Y-101845597D01*
X258371399Y-101857333D01*
X258395224Y-101864560D01*
X258420000Y-101867000D01*
X263373000Y-101867000D01*
X263373000Y-142253000D01*
X257150000Y-142253000D01*
X257125224Y-142255440D01*
X257101399Y-142262667D01*
X257079443Y-142274403D01*
X257060197Y-142290197D01*
X257044403Y-142309443D01*
X257032667Y-142331399D01*
X257025440Y-142355224D01*
X257023000Y-142380000D01*
X257023000Y-148603000D01*
X246032732Y-148603000D01*
X246038647Y-148595747D01*
X246072998Y-148544045D01*
X246108081Y-148492807D01*
X246112630Y-148484394D01*
X246228993Y-148265546D01*
X246252653Y-148208141D01*
X246277108Y-148151084D01*
X246279936Y-148141947D01*
X246351576Y-147904666D01*
X246363630Y-147843787D01*
X246376544Y-147783034D01*
X246377544Y-147773522D01*
X246401731Y-147526844D01*
X246401731Y-147526837D01*
X246405000Y-147493647D01*
X246405000Y-138200000D01*
X256881928Y-138200000D01*
X256894188Y-138324482D01*
X256930498Y-138444180D01*
X256989463Y-138554494D01*
X257068815Y-138651185D01*
X257165506Y-138730537D01*
X257275820Y-138789502D01*
X257395518Y-138825812D01*
X257520000Y-138838072D01*
X258134250Y-138835000D01*
X258293000Y-138676250D01*
X258293000Y-137427000D01*
X257043750Y-137427000D01*
X256885000Y-137585750D01*
X256881928Y-138200000D01*
X246405000Y-138200000D01*
X246405000Y-137380000D01*
X247541928Y-137380000D01*
X247554188Y-137504482D01*
X247590498Y-137624180D01*
X247649463Y-137734494D01*
X247728815Y-137831185D01*
X247825506Y-137910537D01*
X247935820Y-137969502D01*
X248055518Y-138005812D01*
X248180000Y-138018072D01*
X249244250Y-138015000D01*
X249403000Y-137856250D01*
X249403000Y-136157000D01*
X247703750Y-136157000D01*
X247545000Y-136315750D01*
X247541928Y-137380000D01*
X246405000Y-137380000D01*
X246405000Y-134680000D01*
X247541928Y-134680000D01*
X247545000Y-135744250D01*
X247703750Y-135903000D01*
X249403000Y-135903000D01*
X249403000Y-134203750D01*
X249657000Y-134203750D01*
X249657000Y-135903000D01*
X249677000Y-135903000D01*
X249677000Y-136157000D01*
X249657000Y-136157000D01*
X249657000Y-137856250D01*
X249815750Y-138015000D01*
X250880000Y-138018072D01*
X251004482Y-138005812D01*
X251124180Y-137969502D01*
X251234494Y-137910537D01*
X251331185Y-137831185D01*
X251410537Y-137734494D01*
X251469502Y-137624180D01*
X251505812Y-137504482D01*
X251518072Y-137380000D01*
X251515000Y-136315750D01*
X251356252Y-136157002D01*
X251505000Y-136157002D01*
X251505000Y-136225505D01*
X251581282Y-136609003D01*
X251730915Y-136970250D01*
X251948149Y-137295364D01*
X252224636Y-137571851D01*
X252549750Y-137789085D01*
X252910997Y-137938718D01*
X253294495Y-138015000D01*
X253685505Y-138015000D01*
X254069003Y-137938718D01*
X254430250Y-137789085D01*
X254755364Y-137571851D01*
X255031851Y-137295364D01*
X255249085Y-136970250D01*
X255398718Y-136609003D01*
X255440291Y-136400000D01*
X256881928Y-136400000D01*
X256885000Y-137014250D01*
X257043750Y-137173000D01*
X258293000Y-137173000D01*
X258293000Y-135923750D01*
X258547000Y-135923750D01*
X258547000Y-137173000D01*
X258567000Y-137173000D01*
X258567000Y-137427000D01*
X258547000Y-137427000D01*
X258547000Y-138676250D01*
X258705750Y-138835000D01*
X259320000Y-138838072D01*
X259444482Y-138825812D01*
X259564180Y-138789502D01*
X259674494Y-138730537D01*
X259771185Y-138651185D01*
X259850537Y-138554494D01*
X259909502Y-138444180D01*
X259915056Y-138425873D01*
X259981495Y-138492312D01*
X260232905Y-138660299D01*
X260512257Y-138776011D01*
X260808816Y-138835000D01*
X261111184Y-138835000D01*
X261407743Y-138776011D01*
X261687095Y-138660299D01*
X261938505Y-138492312D01*
X262152312Y-138278505D01*
X262320299Y-138027095D01*
X262436011Y-137747743D01*
X262495000Y-137451184D01*
X262495000Y-137148816D01*
X262436011Y-136852257D01*
X262320299Y-136572905D01*
X262152312Y-136321495D01*
X261938505Y-136107688D01*
X261687095Y-135939701D01*
X261407743Y-135823989D01*
X261111184Y-135765000D01*
X260808816Y-135765000D01*
X260512257Y-135823989D01*
X260232905Y-135939701D01*
X259981495Y-136107688D01*
X259915056Y-136174127D01*
X259909502Y-136155820D01*
X259850537Y-136045506D01*
X259771185Y-135948815D01*
X259674494Y-135869463D01*
X259564180Y-135810498D01*
X259444482Y-135774188D01*
X259320000Y-135761928D01*
X258705750Y-135765000D01*
X258547000Y-135923750D01*
X258293000Y-135923750D01*
X258134250Y-135765000D01*
X257520000Y-135761928D01*
X257395518Y-135774188D01*
X257275820Y-135810498D01*
X257165506Y-135869463D01*
X257068815Y-135948815D01*
X256989463Y-136045506D01*
X256930498Y-136155820D01*
X256894188Y-136275518D01*
X256881928Y-136400000D01*
X255440291Y-136400000D01*
X255475000Y-136225505D01*
X255475000Y-135834495D01*
X255398718Y-135450997D01*
X255249085Y-135089750D01*
X255031851Y-134764636D01*
X254755364Y-134488149D01*
X254430250Y-134270915D01*
X254069003Y-134121282D01*
X253685505Y-134045000D01*
X253294495Y-134045000D01*
X252910997Y-134121282D01*
X252549750Y-134270915D01*
X252224636Y-134488149D01*
X251948149Y-134764636D01*
X251730915Y-135089750D01*
X251581282Y-135450997D01*
X251505000Y-135834495D01*
X251505000Y-135902998D01*
X251356252Y-135902998D01*
X251515000Y-135744250D01*
X251518072Y-134680000D01*
X251505812Y-134555518D01*
X251469502Y-134435820D01*
X251410537Y-134325506D01*
X251331185Y-134228815D01*
X251234494Y-134149463D01*
X251124180Y-134090498D01*
X251004482Y-134054188D01*
X250880000Y-134041928D01*
X249815750Y-134045000D01*
X249657000Y-134203750D01*
X249403000Y-134203750D01*
X249244250Y-134045000D01*
X248180000Y-134041928D01*
X248055518Y-134054188D01*
X247935820Y-134090498D01*
X247825506Y-134149463D01*
X247728815Y-134228815D01*
X247649463Y-134325506D01*
X247590498Y-134435820D01*
X247554188Y-134555518D01*
X247541928Y-134680000D01*
X246405000Y-134680000D01*
X246405000Y-131585000D01*
X254154752Y-131585000D01*
X254175700Y-131797697D01*
X254237742Y-132002220D01*
X254338492Y-132190709D01*
X254474078Y-132355922D01*
X254639291Y-132491508D01*
X254827780Y-132592258D01*
X255032303Y-132654300D01*
X255245000Y-132675248D01*
X255457697Y-132654300D01*
X255662220Y-132592258D01*
X255850709Y-132491508D01*
X255974526Y-132389895D01*
X259224895Y-129139527D01*
X259224900Y-129139521D01*
X259690000Y-128674421D01*
X260155109Y-129139531D01*
X260189078Y-129180922D01*
X260230469Y-129214891D01*
X260230473Y-129214895D01*
X260269706Y-129247092D01*
X260354290Y-129316509D01*
X260542780Y-129417259D01*
X260665113Y-129454368D01*
X260747302Y-129479300D01*
X260767078Y-129481248D01*
X260906706Y-129495000D01*
X260906713Y-129495000D01*
X260959999Y-129500248D01*
X261013285Y-129495000D01*
X262336863Y-129495000D01*
X262389404Y-129484549D01*
X262442697Y-129479300D01*
X262493942Y-129463755D01*
X262546483Y-129453304D01*
X262595974Y-129432804D01*
X262647220Y-129417259D01*
X262694448Y-129392015D01*
X262743940Y-129371515D01*
X262788483Y-129341752D01*
X262835710Y-129316509D01*
X262877103Y-129282538D01*
X262921647Y-129252775D01*
X262959531Y-129214891D01*
X263000922Y-129180922D01*
X263034891Y-129139531D01*
X263072775Y-129101647D01*
X263102538Y-129057103D01*
X263136509Y-129015710D01*
X263161752Y-128968483D01*
X263191515Y-128923940D01*
X263212015Y-128874448D01*
X263237259Y-128827220D01*
X263252804Y-128775974D01*
X263273304Y-128726483D01*
X263283755Y-128673942D01*
X263299300Y-128622697D01*
X263304549Y-128569404D01*
X263315000Y-128516863D01*
X263315000Y-128463294D01*
X263320249Y-128410000D01*
X263315000Y-128356706D01*
X263315000Y-128303137D01*
X263304549Y-128250596D01*
X263299300Y-128197303D01*
X263283755Y-128146058D01*
X263273304Y-128093517D01*
X263252804Y-128044026D01*
X263237259Y-127992780D01*
X263212015Y-127945552D01*
X263191515Y-127896060D01*
X263161752Y-127851517D01*
X263136509Y-127804290D01*
X263102538Y-127762897D01*
X263072775Y-127718353D01*
X263034891Y-127680469D01*
X263000922Y-127639078D01*
X262959531Y-127605109D01*
X262921647Y-127567225D01*
X262877103Y-127537462D01*
X262835710Y-127503491D01*
X262788483Y-127478248D01*
X262743940Y-127448485D01*
X262694448Y-127427985D01*
X262647220Y-127402741D01*
X262595974Y-127387196D01*
X262546483Y-127366696D01*
X262493942Y-127356245D01*
X262442697Y-127340700D01*
X262389404Y-127335451D01*
X262336863Y-127325000D01*
X261409422Y-127325000D01*
X260775000Y-126690579D01*
X260775000Y-120683137D01*
X260764549Y-120630596D01*
X260759300Y-120577303D01*
X260743755Y-120526058D01*
X260733304Y-120473517D01*
X260712804Y-120424026D01*
X260697259Y-120372780D01*
X260672015Y-120325552D01*
X260651515Y-120276060D01*
X260621752Y-120231517D01*
X260596509Y-120184290D01*
X260562538Y-120142897D01*
X260532775Y-120098353D01*
X260494891Y-120060469D01*
X260460922Y-120019078D01*
X260419531Y-119985109D01*
X260381647Y-119947225D01*
X260337103Y-119917462D01*
X260295710Y-119883491D01*
X260248484Y-119858248D01*
X260203940Y-119828485D01*
X260154444Y-119807983D01*
X260107219Y-119782741D01*
X260055977Y-119767197D01*
X260006483Y-119746696D01*
X259953939Y-119736244D01*
X259902696Y-119720700D01*
X259849405Y-119715451D01*
X259796863Y-119705000D01*
X259743293Y-119705000D01*
X259690000Y-119699751D01*
X259636706Y-119705000D01*
X259583137Y-119705000D01*
X259530596Y-119715451D01*
X259477303Y-119720700D01*
X259426058Y-119736245D01*
X259373517Y-119746696D01*
X259324026Y-119767196D01*
X259272780Y-119782741D01*
X259225552Y-119807985D01*
X259176060Y-119828485D01*
X259131517Y-119858248D01*
X259084290Y-119883491D01*
X259042897Y-119917462D01*
X258998353Y-119947225D01*
X258960469Y-119985109D01*
X258919078Y-120019078D01*
X258885109Y-120060469D01*
X258847225Y-120098353D01*
X258817462Y-120142897D01*
X258783491Y-120184290D01*
X258758248Y-120231516D01*
X258728485Y-120276060D01*
X258707983Y-120325556D01*
X258682741Y-120372781D01*
X258667197Y-120424023D01*
X258646696Y-120473517D01*
X258636244Y-120526061D01*
X258620700Y-120577304D01*
X258615451Y-120630595D01*
X258605000Y-120683137D01*
X258605000Y-120736707D01*
X258605001Y-126690578D01*
X257690479Y-127605100D01*
X257690473Y-127605105D01*
X254440105Y-130855474D01*
X254338492Y-130979291D01*
X254237742Y-131167780D01*
X254175700Y-131372303D01*
X254154752Y-131585000D01*
X246405000Y-131585000D01*
X246405000Y-130916353D01*
X246401607Y-130881904D01*
X246401607Y-130865423D01*
X246400607Y-130855911D01*
X246372978Y-130609595D01*
X246360072Y-130548876D01*
X246348011Y-130487966D01*
X246345183Y-130478830D01*
X246270238Y-130242572D01*
X246245786Y-130185521D01*
X246222121Y-130128106D01*
X246217572Y-130119692D01*
X246098164Y-129902490D01*
X246063062Y-129851225D01*
X246028730Y-129799552D01*
X246022634Y-129792182D01*
X245863312Y-129602310D01*
X245818954Y-129558872D01*
X245775209Y-129514820D01*
X245767797Y-129508775D01*
X245574630Y-129353463D01*
X245522643Y-129319444D01*
X245471205Y-129284749D01*
X245462761Y-129280258D01*
X245243106Y-129165427D01*
X245185554Y-129142175D01*
X245128312Y-129118112D01*
X245119156Y-129115348D01*
X245119151Y-129115346D01*
X245119146Y-129115345D01*
X244881380Y-129045365D01*
X244820349Y-129033723D01*
X244759575Y-129021248D01*
X244750061Y-129020314D01*
X244750057Y-129020314D01*
X244503217Y-128997850D01*
X244441135Y-128998284D01*
X244379052Y-128997850D01*
X244369534Y-128998783D01*
X244123030Y-129024691D01*
X244062176Y-129037183D01*
X244001226Y-129048810D01*
X243992076Y-129051572D01*
X243992072Y-129051573D01*
X243992069Y-129051574D01*
X243992070Y-129051574D01*
X243755294Y-129124869D01*
X243698084Y-129148918D01*
X243640498Y-129172184D01*
X243632053Y-129176674D01*
X243414023Y-129294562D01*
X243362532Y-129329293D01*
X243310600Y-129363277D01*
X243303188Y-129369321D01*
X243112209Y-129527314D01*
X243068462Y-129571367D01*
X243024104Y-129614806D01*
X243018008Y-129622175D01*
X242861353Y-129814253D01*
X242827002Y-129865956D01*
X242791919Y-129917193D01*
X242787370Y-129925607D01*
X242671007Y-130144454D01*
X242647347Y-130201859D01*
X242622892Y-130258916D01*
X242620064Y-130268053D01*
X242548424Y-130505334D01*
X242536370Y-130566213D01*
X242523456Y-130626966D01*
X242522456Y-130636478D01*
X242498269Y-130883156D01*
X242498269Y-130883164D01*
X242495000Y-130916354D01*
X242495001Y-147493647D01*
X242498394Y-147528095D01*
X242498394Y-147544577D01*
X242499393Y-147554089D01*
X242527022Y-147800405D01*
X242539930Y-147861130D01*
X242551989Y-147922034D01*
X242554817Y-147931170D01*
X242629762Y-148167428D01*
X242654214Y-148224479D01*
X242677879Y-148281894D01*
X242682428Y-148290308D01*
X242801836Y-148507510D01*
X242836926Y-148558757D01*
X242866321Y-148603000D01*
X207747000Y-148603000D01*
X207747000Y-146539039D01*
X225278096Y-146539039D01*
X225318754Y-146673087D01*
X225438963Y-146927420D01*
X225606481Y-147153414D01*
X225814869Y-147342385D01*
X226056119Y-147487070D01*
X226320960Y-147581909D01*
X226543000Y-147460624D01*
X226543000Y-146317000D01*
X226797000Y-146317000D01*
X226797000Y-147460624D01*
X227019040Y-147581909D01*
X227283881Y-147487070D01*
X227525131Y-147342385D01*
X227733519Y-147153414D01*
X227901037Y-146927420D01*
X228021246Y-146673087D01*
X228061904Y-146539039D01*
X227939915Y-146317000D01*
X226797000Y-146317000D01*
X226543000Y-146317000D01*
X225400085Y-146317000D01*
X225278096Y-146539039D01*
X207747000Y-146539039D01*
X207747000Y-142380000D01*
X207744560Y-142355224D01*
X207737333Y-142331399D01*
X207725597Y-142309443D01*
X207709803Y-142290197D01*
X207690557Y-142274403D01*
X207668601Y-142262667D01*
X207644776Y-142255440D01*
X207620000Y-142253000D01*
X201397000Y-142253000D01*
X201397000Y-137770000D01*
X225231928Y-137770000D01*
X225231928Y-139370000D01*
X225244188Y-139494482D01*
X225280498Y-139614180D01*
X225339463Y-139724494D01*
X225418815Y-139821185D01*
X225515506Y-139900537D01*
X225625820Y-139959502D01*
X225745518Y-139995812D01*
X225753961Y-139996643D01*
X225555363Y-140195241D01*
X225398320Y-140430273D01*
X225290147Y-140691426D01*
X225235000Y-140968665D01*
X225235000Y-141251335D01*
X225290147Y-141528574D01*
X225398320Y-141789727D01*
X225555363Y-142024759D01*
X225755241Y-142224637D01*
X225987759Y-142380000D01*
X225755241Y-142535363D01*
X225555363Y-142735241D01*
X225398320Y-142970273D01*
X225290147Y-143231426D01*
X225235000Y-143508665D01*
X225235000Y-143791335D01*
X225290147Y-144068574D01*
X225398320Y-144329727D01*
X225555363Y-144564759D01*
X225755241Y-144764637D01*
X225990273Y-144921680D01*
X226000865Y-144926067D01*
X225814869Y-145037615D01*
X225606481Y-145226586D01*
X225438963Y-145452580D01*
X225318754Y-145706913D01*
X225278096Y-145840961D01*
X225400085Y-146063000D01*
X226543000Y-146063000D01*
X226543000Y-146043000D01*
X226797000Y-146043000D01*
X226797000Y-146063000D01*
X227939915Y-146063000D01*
X228061904Y-145840961D01*
X228021246Y-145706913D01*
X227901037Y-145452580D01*
X227733519Y-145226586D01*
X227525131Y-145037615D01*
X227339135Y-144926067D01*
X227349727Y-144921680D01*
X227584759Y-144764637D01*
X227784637Y-144564759D01*
X227941680Y-144329727D01*
X228049853Y-144068574D01*
X228105000Y-143791335D01*
X228105000Y-143508665D01*
X228049853Y-143231426D01*
X227941680Y-142970273D01*
X227784637Y-142735241D01*
X227584759Y-142535363D01*
X227352241Y-142380000D01*
X227584759Y-142224637D01*
X227784637Y-142024759D01*
X227941680Y-141789727D01*
X228049853Y-141528574D01*
X228105000Y-141251335D01*
X228105000Y-140968665D01*
X228049853Y-140691426D01*
X227941680Y-140430273D01*
X227784637Y-140195241D01*
X227586039Y-139996643D01*
X227594482Y-139995812D01*
X227714180Y-139959502D01*
X227824494Y-139900537D01*
X227921185Y-139821185D01*
X228000537Y-139724494D01*
X228059502Y-139614180D01*
X228095812Y-139494482D01*
X228108072Y-139370000D01*
X228108072Y-138428665D01*
X232855000Y-138428665D01*
X232855000Y-138711335D01*
X232910147Y-138988574D01*
X233018320Y-139249727D01*
X233175363Y-139484759D01*
X233375241Y-139684637D01*
X233607759Y-139840000D01*
X233375241Y-139995363D01*
X233175363Y-140195241D01*
X233018320Y-140430273D01*
X232910147Y-140691426D01*
X232855000Y-140968665D01*
X232855000Y-141251335D01*
X232910147Y-141528574D01*
X233018320Y-141789727D01*
X233175363Y-142024759D01*
X233375241Y-142224637D01*
X233607759Y-142380000D01*
X233375241Y-142535363D01*
X233175363Y-142735241D01*
X233018320Y-142970273D01*
X232910147Y-143231426D01*
X232855000Y-143508665D01*
X232855000Y-143791335D01*
X232910147Y-144068574D01*
X233018320Y-144329727D01*
X233175363Y-144564759D01*
X233375241Y-144764637D01*
X233607759Y-144920000D01*
X233375241Y-145075363D01*
X233175363Y-145275241D01*
X233018320Y-145510273D01*
X232910147Y-145771426D01*
X232855000Y-146048665D01*
X232855000Y-146331335D01*
X232910147Y-146608574D01*
X233018320Y-146869727D01*
X233175363Y-147104759D01*
X233375241Y-147304637D01*
X233610273Y-147461680D01*
X233871426Y-147569853D01*
X234148665Y-147625000D01*
X234431335Y-147625000D01*
X234708574Y-147569853D01*
X234969727Y-147461680D01*
X235204759Y-147304637D01*
X235404637Y-147104759D01*
X235561680Y-146869727D01*
X235669853Y-146608574D01*
X235725000Y-146331335D01*
X235725000Y-146048665D01*
X235669853Y-145771426D01*
X235561680Y-145510273D01*
X235404637Y-145275241D01*
X235204759Y-145075363D01*
X234972241Y-144920000D01*
X235204759Y-144764637D01*
X235404637Y-144564759D01*
X235561680Y-144329727D01*
X235669853Y-144068574D01*
X235725000Y-143791335D01*
X235725000Y-143508665D01*
X235669853Y-143231426D01*
X235561680Y-142970273D01*
X235404637Y-142735241D01*
X235204759Y-142535363D01*
X234972241Y-142380000D01*
X235204759Y-142224637D01*
X235404637Y-142024759D01*
X235561680Y-141789727D01*
X235669853Y-141528574D01*
X235725000Y-141251335D01*
X235725000Y-140968665D01*
X235669853Y-140691426D01*
X235561680Y-140430273D01*
X235404637Y-140195241D01*
X235204759Y-139995363D01*
X234972241Y-139840000D01*
X235204759Y-139684637D01*
X235404637Y-139484759D01*
X235561680Y-139249727D01*
X235669853Y-138988574D01*
X235725000Y-138711335D01*
X235725000Y-138428665D01*
X235669853Y-138151426D01*
X235561680Y-137890273D01*
X235404637Y-137655241D01*
X235204759Y-137455363D01*
X234969727Y-137298320D01*
X234708574Y-137190147D01*
X234431335Y-137135000D01*
X234148665Y-137135000D01*
X233871426Y-137190147D01*
X233610273Y-137298320D01*
X233375241Y-137455363D01*
X233175363Y-137655241D01*
X233018320Y-137890273D01*
X232910147Y-138151426D01*
X232855000Y-138428665D01*
X228108072Y-138428665D01*
X228108072Y-137770000D01*
X228095812Y-137645518D01*
X228059502Y-137525820D01*
X228000537Y-137415506D01*
X227921185Y-137318815D01*
X227824494Y-137239463D01*
X227714180Y-137180498D01*
X227594482Y-137144188D01*
X227470000Y-137131928D01*
X225870000Y-137131928D01*
X225745518Y-137144188D01*
X225625820Y-137180498D01*
X225515506Y-137239463D01*
X225418815Y-137318815D01*
X225339463Y-137415506D01*
X225280498Y-137525820D01*
X225244188Y-137645518D01*
X225231928Y-137770000D01*
X201397000Y-137770000D01*
X201397000Y-133910000D01*
X202321928Y-133910000D01*
X202321928Y-135610000D01*
X202334188Y-135734482D01*
X202370498Y-135854180D01*
X202429463Y-135964494D01*
X202508815Y-136061185D01*
X202605506Y-136140537D01*
X202715820Y-136199502D01*
X202835518Y-136235812D01*
X202960000Y-136248072D01*
X204660000Y-136248072D01*
X204784482Y-136235812D01*
X204904180Y-136199502D01*
X205014494Y-136140537D01*
X205111185Y-136061185D01*
X205190537Y-135964494D01*
X205249502Y-135854180D01*
X205285812Y-135734482D01*
X205298072Y-135610000D01*
X205298072Y-133910000D01*
X205285812Y-133785518D01*
X205249502Y-133665820D01*
X205190537Y-133555506D01*
X205111185Y-133458815D01*
X205014494Y-133379463D01*
X204904180Y-133320498D01*
X204831620Y-133298487D01*
X204963475Y-133166632D01*
X205125990Y-132923411D01*
X205237932Y-132653158D01*
X205245298Y-132616122D01*
X209105825Y-132616122D01*
X209170425Y-132829094D01*
X209320469Y-133134329D01*
X209527178Y-133404427D01*
X209782609Y-133629008D01*
X210076946Y-133799442D01*
X210398877Y-133909179D01*
X210668000Y-133791600D01*
X210668000Y-132347000D01*
X210922000Y-132347000D01*
X210922000Y-133791600D01*
X211191123Y-133909179D01*
X211513054Y-133799442D01*
X211807391Y-133629008D01*
X212062822Y-133404427D01*
X212269531Y-133134329D01*
X212419575Y-132829094D01*
X212484175Y-132616122D01*
X212366125Y-132347000D01*
X210922000Y-132347000D01*
X210668000Y-132347000D01*
X209223875Y-132347000D01*
X209105825Y-132616122D01*
X205245298Y-132616122D01*
X205295000Y-132366260D01*
X205295000Y-132073740D01*
X205245299Y-131823878D01*
X209105825Y-131823878D01*
X209223875Y-132093000D01*
X210668000Y-132093000D01*
X210668000Y-130648400D01*
X210922000Y-130648400D01*
X210922000Y-132093000D01*
X212366125Y-132093000D01*
X212484175Y-131823878D01*
X212419575Y-131610906D01*
X212269531Y-131305671D01*
X212127435Y-131120000D01*
X219216928Y-131120000D01*
X219216928Y-133320000D01*
X219229188Y-133444482D01*
X219265498Y-133564180D01*
X219324463Y-133674494D01*
X219403815Y-133771185D01*
X219500506Y-133850537D01*
X219610820Y-133909502D01*
X219730518Y-133945812D01*
X219855000Y-133958072D01*
X222055000Y-133958072D01*
X222179482Y-133945812D01*
X222299180Y-133909502D01*
X222409494Y-133850537D01*
X222506185Y-133771185D01*
X222585537Y-133674494D01*
X222644502Y-133564180D01*
X222680812Y-133444482D01*
X222693072Y-133320000D01*
X222693072Y-131120000D01*
X222680812Y-130995518D01*
X222644502Y-130875820D01*
X222585537Y-130765506D01*
X222506185Y-130668815D01*
X222409494Y-130589463D01*
X222299180Y-130530498D01*
X222179482Y-130494188D01*
X222055000Y-130481928D01*
X219855000Y-130481928D01*
X219730518Y-130494188D01*
X219610820Y-130530498D01*
X219500506Y-130589463D01*
X219403815Y-130668815D01*
X219324463Y-130765506D01*
X219265498Y-130875820D01*
X219229188Y-130995518D01*
X219216928Y-131120000D01*
X212127435Y-131120000D01*
X212062822Y-131035573D01*
X211807391Y-130810992D01*
X211513054Y-130640558D01*
X211191123Y-130530821D01*
X210922000Y-130648400D01*
X210668000Y-130648400D01*
X210398877Y-130530821D01*
X210076946Y-130640558D01*
X209782609Y-130810992D01*
X209527178Y-131035573D01*
X209320469Y-131305671D01*
X209170425Y-131610906D01*
X209105825Y-131823878D01*
X205245299Y-131823878D01*
X205237932Y-131786842D01*
X205125990Y-131516589D01*
X204963475Y-131273368D01*
X204756632Y-131066525D01*
X204582240Y-130950000D01*
X204756632Y-130833475D01*
X204963475Y-130626632D01*
X205125990Y-130383411D01*
X205237932Y-130113158D01*
X205295000Y-129826260D01*
X205295000Y-129533740D01*
X205237932Y-129246842D01*
X205125990Y-128976589D01*
X204963475Y-128733368D01*
X204756632Y-128526525D01*
X204574466Y-128404805D01*
X204691355Y-128335178D01*
X204907588Y-128140269D01*
X205081641Y-127906920D01*
X205206825Y-127644099D01*
X205251476Y-127496890D01*
X205130155Y-127267000D01*
X203937000Y-127267000D01*
X203937000Y-127287000D01*
X203683000Y-127287000D01*
X203683000Y-127267000D01*
X202489845Y-127267000D01*
X202368524Y-127496890D01*
X202413175Y-127644099D01*
X202538359Y-127906920D01*
X202712412Y-128140269D01*
X202928645Y-128335178D01*
X203045534Y-128404805D01*
X202863368Y-128526525D01*
X202656525Y-128733368D01*
X202494010Y-128976589D01*
X202382068Y-129246842D01*
X202325000Y-129533740D01*
X202325000Y-129826260D01*
X202382068Y-130113158D01*
X202494010Y-130383411D01*
X202656525Y-130626632D01*
X202863368Y-130833475D01*
X203037760Y-130950000D01*
X202863368Y-131066525D01*
X202656525Y-131273368D01*
X202494010Y-131516589D01*
X202382068Y-131786842D01*
X202325000Y-132073740D01*
X202325000Y-132366260D01*
X202382068Y-132653158D01*
X202494010Y-132923411D01*
X202656525Y-133166632D01*
X202788380Y-133298487D01*
X202715820Y-133320498D01*
X202605506Y-133379463D01*
X202508815Y-133458815D01*
X202429463Y-133555506D01*
X202370498Y-133665820D01*
X202334188Y-133785518D01*
X202321928Y-133910000D01*
X201397000Y-133910000D01*
X201397000Y-126783110D01*
X202368524Y-126783110D01*
X202489845Y-127013000D01*
X203683000Y-127013000D01*
X203683000Y-125819186D01*
X203937000Y-125819186D01*
X203937000Y-127013000D01*
X205130155Y-127013000D01*
X205251476Y-126783110D01*
X205206825Y-126635901D01*
X205081641Y-126373080D01*
X204907588Y-126139731D01*
X204691355Y-125944822D01*
X204441252Y-125795843D01*
X204166891Y-125698519D01*
X203937000Y-125819186D01*
X203683000Y-125819186D01*
X203453109Y-125698519D01*
X203178748Y-125795843D01*
X202928645Y-125944822D01*
X202712412Y-126139731D01*
X202538359Y-126373080D01*
X202413175Y-126635901D01*
X202368524Y-126783110D01*
X201397000Y-126783110D01*
X201397000Y-114860000D01*
X202321928Y-114860000D01*
X202325000Y-115424250D01*
X202483750Y-115583000D01*
X203683000Y-115583000D01*
X203683000Y-114383750D01*
X203937000Y-114383750D01*
X203937000Y-115583000D01*
X205136250Y-115583000D01*
X205295000Y-115424250D01*
X205298072Y-114860000D01*
X205285812Y-114735518D01*
X205249502Y-114615820D01*
X205190537Y-114505506D01*
X205111185Y-114408815D01*
X205014494Y-114329463D01*
X204904180Y-114270498D01*
X204784482Y-114234188D01*
X204660000Y-114221928D01*
X204095750Y-114225000D01*
X203937000Y-114383750D01*
X203683000Y-114383750D01*
X203524250Y-114225000D01*
X202960000Y-114221928D01*
X202835518Y-114234188D01*
X202715820Y-114270498D01*
X202605506Y-114329463D01*
X202508815Y-114408815D01*
X202429463Y-114505506D01*
X202370498Y-114615820D01*
X202334188Y-114735518D01*
X202321928Y-114860000D01*
X201397000Y-114860000D01*
X201397000Y-106400000D01*
X202321928Y-106400000D01*
X202334188Y-106524482D01*
X202370498Y-106644180D01*
X202429463Y-106754494D01*
X202508815Y-106851185D01*
X202605506Y-106930537D01*
X202715820Y-106989502D01*
X202788380Y-107011513D01*
X202656525Y-107143368D01*
X202494010Y-107386589D01*
X202382068Y-107656842D01*
X202325000Y-107943740D01*
X202325000Y-108236260D01*
X202382068Y-108523158D01*
X202494010Y-108793411D01*
X202656525Y-109036632D01*
X202863368Y-109243475D01*
X203037760Y-109360000D01*
X202863368Y-109476525D01*
X202656525Y-109683368D01*
X202494010Y-109926589D01*
X202382068Y-110196842D01*
X202325000Y-110483740D01*
X202325000Y-110776260D01*
X202382068Y-111063158D01*
X202494010Y-111333411D01*
X202656525Y-111576632D01*
X202863368Y-111783475D01*
X203106589Y-111945990D01*
X203376842Y-112057932D01*
X203663740Y-112115000D01*
X203956260Y-112115000D01*
X204243158Y-112057932D01*
X204513411Y-111945990D01*
X204756632Y-111783475D01*
X204963475Y-111576632D01*
X205038065Y-111465000D01*
X206308982Y-111465000D01*
X206350000Y-111469040D01*
X206391018Y-111465000D01*
X206391019Y-111465000D01*
X206513689Y-111452918D01*
X206671087Y-111405172D01*
X206816146Y-111327636D01*
X206943291Y-111223291D01*
X206969446Y-111191421D01*
X207715868Y-110445000D01*
X207726863Y-110445000D01*
X207936483Y-110403304D01*
X208133940Y-110321515D01*
X208311647Y-110202775D01*
X208462775Y-110051647D01*
X208581515Y-109873940D01*
X208663304Y-109676483D01*
X208705000Y-109466863D01*
X208705000Y-109253137D01*
X208663466Y-109044334D01*
X210868570Y-111249438D01*
X210868575Y-111249442D01*
X211615000Y-111995868D01*
X211615000Y-112006863D01*
X211656696Y-112216483D01*
X211738485Y-112413940D01*
X211765001Y-112453623D01*
X211765000Y-112970000D01*
X208296018Y-112970000D01*
X208255000Y-112965960D01*
X208213982Y-112970000D01*
X208213981Y-112970000D01*
X208091311Y-112982082D01*
X207933913Y-113029828D01*
X207788854Y-113107364D01*
X207712532Y-113170000D01*
X207661709Y-113211709D01*
X207635562Y-113243569D01*
X207058573Y-113820559D01*
X207026710Y-113846709D01*
X206954404Y-113934814D01*
X206922364Y-113973855D01*
X206844828Y-114118914D01*
X206797082Y-114276312D01*
X206780960Y-114440000D01*
X206785001Y-114481028D01*
X206785000Y-115999131D01*
X205369133Y-117415000D01*
X205038065Y-117415000D01*
X204963475Y-117303368D01*
X204831620Y-117171513D01*
X204904180Y-117149502D01*
X205014494Y-117090537D01*
X205111185Y-117011185D01*
X205190537Y-116914494D01*
X205249502Y-116804180D01*
X205285812Y-116684482D01*
X205298072Y-116560000D01*
X205295000Y-115995750D01*
X205136250Y-115837000D01*
X203937000Y-115837000D01*
X203937000Y-115857000D01*
X203683000Y-115857000D01*
X203683000Y-115837000D01*
X202483750Y-115837000D01*
X202325000Y-115995750D01*
X202321928Y-116560000D01*
X202334188Y-116684482D01*
X202370498Y-116804180D01*
X202429463Y-116914494D01*
X202508815Y-117011185D01*
X202605506Y-117090537D01*
X202715820Y-117149502D01*
X202788380Y-117171513D01*
X202656525Y-117303368D01*
X202494010Y-117546589D01*
X202382068Y-117816842D01*
X202325000Y-118103740D01*
X202325000Y-118396260D01*
X202382068Y-118683158D01*
X202494010Y-118953411D01*
X202656525Y-119196632D01*
X202863368Y-119403475D01*
X203037760Y-119520000D01*
X202863368Y-119636525D01*
X202656525Y-119843368D01*
X202494010Y-120086589D01*
X202382068Y-120356842D01*
X202325000Y-120643740D01*
X202325000Y-120936260D01*
X202382068Y-121223158D01*
X202494010Y-121493411D01*
X202656525Y-121736632D01*
X202863368Y-121943475D01*
X203106589Y-122105990D01*
X203376842Y-122217932D01*
X203663740Y-122275000D01*
X203956260Y-122275000D01*
X204243158Y-122217932D01*
X204513411Y-122105990D01*
X204756632Y-121943475D01*
X204963475Y-121736632D01*
X205038065Y-121625000D01*
X206308982Y-121625000D01*
X206350000Y-121629040D01*
X206391018Y-121625000D01*
X206391019Y-121625000D01*
X206513689Y-121612918D01*
X206671087Y-121565172D01*
X206816146Y-121487636D01*
X206943291Y-121383291D01*
X206969446Y-121351421D01*
X207715868Y-120605000D01*
X207726863Y-120605000D01*
X207936483Y-120563304D01*
X208133940Y-120481515D01*
X208311647Y-120362775D01*
X208462775Y-120211647D01*
X208581515Y-120033940D01*
X208663304Y-119836483D01*
X208705000Y-119626863D01*
X208705000Y-119413137D01*
X208663304Y-119203517D01*
X208581515Y-119006060D01*
X208462775Y-118828353D01*
X208311647Y-118677225D01*
X208133940Y-118558485D01*
X207936483Y-118476696D01*
X207726863Y-118435000D01*
X207513137Y-118435000D01*
X207303517Y-118476696D01*
X207106060Y-118558485D01*
X206928353Y-118677225D01*
X206777225Y-118828353D01*
X206658485Y-119006060D01*
X206576696Y-119203517D01*
X206535000Y-119413137D01*
X206535000Y-119424132D01*
X206004133Y-119955000D01*
X205038065Y-119955000D01*
X204963475Y-119843368D01*
X204756632Y-119636525D01*
X204582240Y-119520000D01*
X204756632Y-119403475D01*
X204963475Y-119196632D01*
X205038065Y-119085000D01*
X205673982Y-119085000D01*
X205715000Y-119089040D01*
X205756018Y-119085000D01*
X205756019Y-119085000D01*
X205878689Y-119072918D01*
X206036087Y-119025172D01*
X206181146Y-118947636D01*
X206308291Y-118843291D01*
X206334446Y-118811421D01*
X208181433Y-116964436D01*
X208213291Y-116938291D01*
X208317636Y-116811146D01*
X208395172Y-116666087D01*
X208442918Y-116508689D01*
X208455000Y-116386019D01*
X208455000Y-116386018D01*
X208459040Y-116345000D01*
X208455000Y-116303982D01*
X208455000Y-114785868D01*
X208600868Y-114640000D01*
X211765001Y-114640000D01*
X211765000Y-120236377D01*
X211738485Y-120276060D01*
X211656696Y-120473517D01*
X211615000Y-120683137D01*
X211615000Y-120896863D01*
X211656696Y-121106483D01*
X211738485Y-121303940D01*
X211765001Y-121343624D01*
X211765000Y-125316377D01*
X211738485Y-125356060D01*
X211656696Y-125553517D01*
X211615000Y-125763137D01*
X211615000Y-125976863D01*
X211656696Y-126186483D01*
X211738485Y-126383940D01*
X211857225Y-126561647D01*
X212008353Y-126712775D01*
X212186060Y-126831515D01*
X212383517Y-126913304D01*
X212593137Y-126955000D01*
X212806863Y-126955000D01*
X213016483Y-126913304D01*
X213213940Y-126831515D01*
X213391647Y-126712775D01*
X213542775Y-126561647D01*
X213661515Y-126383940D01*
X213743304Y-126186483D01*
X213785000Y-125976863D01*
X213785000Y-125763137D01*
X213743304Y-125553517D01*
X213661515Y-125356060D01*
X213635000Y-125316377D01*
X213635000Y-124003439D01*
X219800000Y-124003439D01*
X219800000Y-124256561D01*
X219849381Y-124504821D01*
X219946247Y-124738676D01*
X220086875Y-124949140D01*
X220265860Y-125128125D01*
X220476324Y-125268753D01*
X220710179Y-125365619D01*
X220958439Y-125415000D01*
X221211561Y-125415000D01*
X221459821Y-125365619D01*
X221693676Y-125268753D01*
X221904140Y-125128125D01*
X222016738Y-125015527D01*
X227979078Y-125015527D01*
X228032466Y-125244201D01*
X228262374Y-125350095D01*
X228508524Y-125409102D01*
X228761455Y-125418952D01*
X229011449Y-125379270D01*
X229248896Y-125291578D01*
X229337534Y-125244201D01*
X229390922Y-125015527D01*
X228685000Y-124309605D01*
X227979078Y-125015527D01*
X222016738Y-125015527D01*
X222083125Y-124949140D01*
X222223753Y-124738676D01*
X222320619Y-124504821D01*
X222370000Y-124256561D01*
X222370000Y-124206455D01*
X227396048Y-124206455D01*
X227435730Y-124456449D01*
X227523422Y-124693896D01*
X227570799Y-124782534D01*
X227799473Y-124835922D01*
X228505395Y-124130000D01*
X228864605Y-124130000D01*
X229570527Y-124835922D01*
X229799201Y-124782534D01*
X229905095Y-124552626D01*
X229964102Y-124306476D01*
X229973952Y-124053545D01*
X229934270Y-123803551D01*
X229846578Y-123566104D01*
X229799201Y-123477466D01*
X229570527Y-123424078D01*
X228864605Y-124130000D01*
X228505395Y-124130000D01*
X227799473Y-123424078D01*
X227570799Y-123477466D01*
X227464905Y-123707374D01*
X227405898Y-123953524D01*
X227396048Y-124206455D01*
X222370000Y-124206455D01*
X222370000Y-124003439D01*
X222320619Y-123755179D01*
X222223753Y-123521324D01*
X222083125Y-123310860D01*
X222016738Y-123244473D01*
X227979078Y-123244473D01*
X228685000Y-123950395D01*
X229390922Y-123244473D01*
X229337534Y-123015799D01*
X229107626Y-122909905D01*
X228861476Y-122850898D01*
X228608545Y-122841048D01*
X228358551Y-122880730D01*
X228121104Y-122968422D01*
X228032466Y-123015799D01*
X227979078Y-123244473D01*
X222016738Y-123244473D01*
X221904140Y-123131875D01*
X221693676Y-122991247D01*
X221459821Y-122894381D01*
X221211561Y-122845000D01*
X220958439Y-122845000D01*
X220710179Y-122894381D01*
X220476324Y-122991247D01*
X220265860Y-123131875D01*
X220086875Y-123310860D01*
X219946247Y-123521324D01*
X219849381Y-123755179D01*
X219800000Y-124003439D01*
X213635000Y-124003439D01*
X213635000Y-121343623D01*
X213661515Y-121303940D01*
X213743304Y-121106483D01*
X213785000Y-120896863D01*
X213785000Y-120683137D01*
X213743304Y-120473517D01*
X213716995Y-120410000D01*
X253021928Y-120410000D01*
X253025000Y-121774250D01*
X253057856Y-121807106D01*
X253024887Y-121973998D01*
X253025116Y-122148328D01*
X253058039Y-122312711D01*
X253025000Y-122345750D01*
X253021928Y-123710000D01*
X253034188Y-123834482D01*
X253070498Y-123954180D01*
X253129463Y-124064494D01*
X253208815Y-124161185D01*
X253305506Y-124240537D01*
X253415820Y-124299502D01*
X253535518Y-124335812D01*
X253660000Y-124348072D01*
X254324250Y-124345000D01*
X254483000Y-124186250D01*
X254483000Y-123859052D01*
X254506164Y-123882216D01*
X254610000Y-123879991D01*
X254713836Y-123882216D01*
X254737000Y-123859052D01*
X254737000Y-124186250D01*
X254895750Y-124345000D01*
X255560000Y-124348072D01*
X255684482Y-124335812D01*
X255804180Y-124299502D01*
X255914494Y-124240537D01*
X256011185Y-124161185D01*
X256090537Y-124064494D01*
X256149502Y-123954180D01*
X256185812Y-123834482D01*
X256198072Y-123710000D01*
X256195000Y-122345750D01*
X256162144Y-122312894D01*
X256195113Y-122146002D01*
X256194884Y-121971672D01*
X256161961Y-121807289D01*
X256195000Y-121774250D01*
X256198072Y-120410000D01*
X256185812Y-120285518D01*
X256149502Y-120165820D01*
X256090537Y-120055506D01*
X256011185Y-119958815D01*
X255914494Y-119879463D01*
X255804180Y-119820498D01*
X255684482Y-119784188D01*
X255560000Y-119771928D01*
X254895750Y-119775000D01*
X254737000Y-119933750D01*
X254737000Y-120260948D01*
X254713836Y-120237784D01*
X254610000Y-120240009D01*
X254506164Y-120237784D01*
X254483000Y-120260948D01*
X254483000Y-119933750D01*
X254324250Y-119775000D01*
X253660000Y-119771928D01*
X253535518Y-119784188D01*
X253415820Y-119820498D01*
X253305506Y-119879463D01*
X253208815Y-119958815D01*
X253129463Y-120055506D01*
X253070498Y-120165820D01*
X253034188Y-120285518D01*
X253021928Y-120410000D01*
X213716995Y-120410000D01*
X213661515Y-120276060D01*
X213635000Y-120236377D01*
X213635000Y-114400000D01*
X219004068Y-114400000D01*
X219050000Y-114404524D01*
X219095932Y-114400000D01*
X219233292Y-114386471D01*
X219409540Y-114333007D01*
X219571972Y-114246186D01*
X219714344Y-114129344D01*
X219743630Y-114093659D01*
X221122289Y-112715000D01*
X221211561Y-112715000D01*
X221459821Y-112665619D01*
X221693676Y-112568753D01*
X221904140Y-112428125D01*
X222083125Y-112249140D01*
X222223753Y-112038676D01*
X222320619Y-111804821D01*
X222370000Y-111556561D01*
X222370000Y-111535000D01*
X234556928Y-111535000D01*
X234556928Y-113535000D01*
X234569188Y-113659482D01*
X234605498Y-113779180D01*
X234664463Y-113889494D01*
X234743815Y-113986185D01*
X234840506Y-114065537D01*
X234950820Y-114124502D01*
X235070518Y-114160812D01*
X235195000Y-114173072D01*
X237195000Y-114173072D01*
X237319482Y-114160812D01*
X237439180Y-114124502D01*
X237549494Y-114065537D01*
X237646185Y-113986185D01*
X237725537Y-113889494D01*
X237784502Y-113779180D01*
X237817496Y-113670413D01*
X240239192Y-113670413D01*
X240334956Y-113934814D01*
X240624571Y-114075704D01*
X240936108Y-114157384D01*
X241257595Y-114176718D01*
X241576675Y-114132961D01*
X241881088Y-114027795D01*
X242055044Y-113934814D01*
X242150808Y-113670413D01*
X241195000Y-112714605D01*
X240239192Y-113670413D01*
X237817496Y-113670413D01*
X237820812Y-113659482D01*
X237833072Y-113535000D01*
X237833072Y-112597595D01*
X239553282Y-112597595D01*
X239597039Y-112916675D01*
X239702205Y-113221088D01*
X239795186Y-113395044D01*
X240059587Y-113490808D01*
X241015395Y-112535000D01*
X241374605Y-112535000D01*
X242330413Y-113490808D01*
X242594814Y-113395044D01*
X242735704Y-113105429D01*
X242817384Y-112793892D01*
X242836718Y-112472405D01*
X242792961Y-112153325D01*
X242687795Y-111848912D01*
X242594814Y-111674956D01*
X242330413Y-111579192D01*
X241374605Y-112535000D01*
X241015395Y-112535000D01*
X240059587Y-111579192D01*
X239795186Y-111674956D01*
X239654296Y-111964571D01*
X239572616Y-112276108D01*
X239553282Y-112597595D01*
X237833072Y-112597595D01*
X237833072Y-111535000D01*
X237820812Y-111410518D01*
X237817497Y-111399587D01*
X240239192Y-111399587D01*
X241195000Y-112355395D01*
X242150808Y-111399587D01*
X242055044Y-111135186D01*
X241765429Y-110994296D01*
X241453892Y-110912616D01*
X241132405Y-110893282D01*
X240813325Y-110937039D01*
X240508912Y-111042205D01*
X240334956Y-111135186D01*
X240239192Y-111399587D01*
X237817497Y-111399587D01*
X237784502Y-111290820D01*
X237725537Y-111180506D01*
X237646185Y-111083815D01*
X237549494Y-111004463D01*
X237439180Y-110945498D01*
X237319482Y-110909188D01*
X237195000Y-110896928D01*
X235195000Y-110896928D01*
X235070518Y-110909188D01*
X234950820Y-110945498D01*
X234840506Y-111004463D01*
X234743815Y-111083815D01*
X234664463Y-111180506D01*
X234605498Y-111290820D01*
X234569188Y-111410518D01*
X234556928Y-111535000D01*
X222370000Y-111535000D01*
X222370000Y-111303439D01*
X222320619Y-111055179D01*
X222223753Y-110821324D01*
X222083125Y-110610860D01*
X221904140Y-110431875D01*
X221693676Y-110291247D01*
X221459821Y-110194381D01*
X221211561Y-110145000D01*
X220958439Y-110145000D01*
X220710179Y-110194381D01*
X220476324Y-110291247D01*
X220265860Y-110431875D01*
X220086875Y-110610860D01*
X219946247Y-110821324D01*
X219849381Y-111055179D01*
X219800000Y-111303439D01*
X219800000Y-111392711D01*
X218662711Y-112530000D01*
X213635000Y-112530000D01*
X213635000Y-112453623D01*
X213661515Y-112413940D01*
X213743304Y-112216483D01*
X213785000Y-112006863D01*
X213785000Y-111793137D01*
X213743304Y-111583517D01*
X213661515Y-111386060D01*
X213542775Y-111208353D01*
X213391647Y-111057225D01*
X213213940Y-110938485D01*
X213016483Y-110856696D01*
X212806863Y-110815000D01*
X212795868Y-110815000D01*
X212049442Y-110068575D01*
X212049438Y-110068570D01*
X209509446Y-107528579D01*
X209483291Y-107496709D01*
X209356146Y-107392364D01*
X209211087Y-107314828D01*
X209053689Y-107267082D01*
X208931019Y-107255000D01*
X208931018Y-107255000D01*
X208890000Y-107250960D01*
X208848982Y-107255000D01*
X205038065Y-107255000D01*
X204963475Y-107143368D01*
X204831620Y-107011513D01*
X204904180Y-106989502D01*
X205014494Y-106930537D01*
X205111185Y-106851185D01*
X205190537Y-106754494D01*
X205249502Y-106644180D01*
X205285812Y-106524482D01*
X205298072Y-106400000D01*
X205295000Y-105835750D01*
X205136250Y-105677000D01*
X203937000Y-105677000D01*
X203937000Y-105697000D01*
X203683000Y-105697000D01*
X203683000Y-105677000D01*
X202483750Y-105677000D01*
X202325000Y-105835750D01*
X202321928Y-106400000D01*
X201397000Y-106400000D01*
X201397000Y-104700000D01*
X202321928Y-104700000D01*
X202325000Y-105264250D01*
X202483750Y-105423000D01*
X203683000Y-105423000D01*
X203683000Y-104223750D01*
X203937000Y-104223750D01*
X203937000Y-105423000D01*
X205136250Y-105423000D01*
X205295000Y-105264250D01*
X205298072Y-104700000D01*
X205285812Y-104575518D01*
X205249502Y-104455820D01*
X205190537Y-104345506D01*
X205111185Y-104248815D01*
X205014494Y-104169463D01*
X204904180Y-104110498D01*
X204784482Y-104074188D01*
X204660000Y-104061928D01*
X204095750Y-104065000D01*
X203937000Y-104223750D01*
X203683000Y-104223750D01*
X203524250Y-104065000D01*
X202960000Y-104061928D01*
X202835518Y-104074188D01*
X202715820Y-104110498D01*
X202605506Y-104169463D01*
X202508815Y-104248815D01*
X202429463Y-104345506D01*
X202370498Y-104455820D01*
X202334188Y-104575518D01*
X202321928Y-104700000D01*
X201397000Y-104700000D01*
X201397000Y-101867000D01*
X206350000Y-101867000D01*
X206374776Y-101864560D01*
X206398601Y-101857333D01*
X206420557Y-101845597D01*
X206439803Y-101829803D01*
X206455597Y-101810557D01*
X206467333Y-101788601D01*
X206474560Y-101764776D01*
X206477000Y-101740000D01*
X206477000Y-101281423D01*
X207665107Y-102469531D01*
X207699076Y-102510922D01*
X207740467Y-102544891D01*
X207740471Y-102544895D01*
X207761627Y-102562257D01*
X207864288Y-102646509D01*
X208052778Y-102747259D01*
X208195259Y-102790480D01*
X208257300Y-102809300D01*
X208277076Y-102811248D01*
X208416704Y-102825000D01*
X208416711Y-102825000D01*
X208469997Y-102830248D01*
X208523283Y-102825000D01*
X221775001Y-102825000D01*
X221775000Y-105496714D01*
X221769752Y-105550000D01*
X221775000Y-105603286D01*
X221775000Y-105603293D01*
X221790700Y-105762696D01*
X221852741Y-105967219D01*
X221953491Y-106155710D01*
X222089078Y-106320922D01*
X222130474Y-106354895D01*
X225395109Y-109619531D01*
X225429078Y-109660922D01*
X225470469Y-109694891D01*
X225470473Y-109694895D01*
X225487831Y-109709140D01*
X225594290Y-109796509D01*
X225782780Y-109897259D01*
X225925261Y-109940480D01*
X225987302Y-109959300D01*
X226007078Y-109961248D01*
X226146706Y-109975000D01*
X226146713Y-109975000D01*
X226199999Y-109980248D01*
X226253285Y-109975000D01*
X227995877Y-109975000D01*
X228076324Y-110028753D01*
X228310179Y-110125619D01*
X228558439Y-110175000D01*
X228811561Y-110175000D01*
X229059821Y-110125619D01*
X229293676Y-110028753D01*
X229504140Y-109888125D01*
X229683125Y-109709140D01*
X229823753Y-109498676D01*
X229920619Y-109264821D01*
X229970000Y-109016561D01*
X229970000Y-108763439D01*
X229920619Y-108515179D01*
X229823753Y-108281324D01*
X229683125Y-108070860D01*
X229504140Y-107891875D01*
X229293676Y-107751247D01*
X229059821Y-107654381D01*
X228811561Y-107605000D01*
X228558439Y-107605000D01*
X228310179Y-107654381D01*
X228076324Y-107751247D01*
X227995877Y-107805000D01*
X226649422Y-107805000D01*
X223945000Y-105100579D01*
X223945000Y-102858816D01*
X227040000Y-102858816D01*
X227040000Y-103161184D01*
X227098989Y-103457743D01*
X227214701Y-103737095D01*
X227382688Y-103988505D01*
X227596495Y-104202312D01*
X227847905Y-104370299D01*
X228127257Y-104486011D01*
X228423816Y-104545000D01*
X228726184Y-104545000D01*
X229022743Y-104486011D01*
X229302095Y-104370299D01*
X229553505Y-104202312D01*
X229619944Y-104135873D01*
X229625498Y-104154180D01*
X229684463Y-104264494D01*
X229763815Y-104361185D01*
X229860506Y-104440537D01*
X229970820Y-104499502D01*
X230090518Y-104535812D01*
X230215000Y-104548072D01*
X230829250Y-104545000D01*
X230988000Y-104386250D01*
X230988000Y-103137000D01*
X231242000Y-103137000D01*
X231242000Y-104386250D01*
X231400750Y-104545000D01*
X232015000Y-104548072D01*
X232139482Y-104535812D01*
X232259180Y-104499502D01*
X232369494Y-104440537D01*
X232466185Y-104361185D01*
X232545537Y-104264494D01*
X232604502Y-104154180D01*
X232640812Y-104034482D01*
X232653072Y-103910000D01*
X232650000Y-103295750D01*
X232491250Y-103137000D01*
X231242000Y-103137000D01*
X230988000Y-103137000D01*
X230968000Y-103137000D01*
X230968000Y-102883000D01*
X230988000Y-102883000D01*
X230988000Y-101633750D01*
X231242000Y-101633750D01*
X231242000Y-102883000D01*
X232491250Y-102883000D01*
X232650000Y-102724250D01*
X232653072Y-102110000D01*
X232640812Y-101985518D01*
X232604502Y-101865820D01*
X232545537Y-101755506D01*
X232466185Y-101658815D01*
X232369494Y-101579463D01*
X232259180Y-101520498D01*
X232139482Y-101484188D01*
X232015000Y-101471928D01*
X231400750Y-101475000D01*
X231242000Y-101633750D01*
X230988000Y-101633750D01*
X230829250Y-101475000D01*
X230215000Y-101471928D01*
X230090518Y-101484188D01*
X229970820Y-101520498D01*
X229860506Y-101579463D01*
X229763815Y-101658815D01*
X229684463Y-101755506D01*
X229625498Y-101865820D01*
X229619944Y-101884127D01*
X229553505Y-101817688D01*
X229302095Y-101649701D01*
X229022743Y-101533989D01*
X228726184Y-101475000D01*
X228423816Y-101475000D01*
X228127257Y-101533989D01*
X227847905Y-101649701D01*
X227596495Y-101817688D01*
X227382688Y-102031495D01*
X227214701Y-102282905D01*
X227098989Y-102562257D01*
X227040000Y-102858816D01*
X223945000Y-102858816D01*
X223945000Y-101793294D01*
X223950249Y-101740000D01*
X223945000Y-101686706D01*
X223945000Y-101633137D01*
X223934549Y-101580596D01*
X223929300Y-101527303D01*
X223913755Y-101476058D01*
X223903304Y-101423517D01*
X223882804Y-101374026D01*
X223867259Y-101322780D01*
X223842015Y-101275552D01*
X223821515Y-101226060D01*
X223791752Y-101181517D01*
X223766509Y-101134290D01*
X223732538Y-101092897D01*
X223702775Y-101048353D01*
X223664891Y-101010469D01*
X223630922Y-100969078D01*
X223589531Y-100935109D01*
X223551647Y-100897225D01*
X223507103Y-100867462D01*
X223465710Y-100833491D01*
X223418483Y-100808248D01*
X223373940Y-100778485D01*
X223324448Y-100757985D01*
X223277220Y-100732741D01*
X223225974Y-100717196D01*
X223176483Y-100696696D01*
X223123942Y-100686245D01*
X223072697Y-100670700D01*
X223019404Y-100665451D01*
X222966863Y-100655000D01*
X222913294Y-100655000D01*
X222860000Y-100649751D01*
X222806707Y-100655000D01*
X208919420Y-100655000D01*
X208522492Y-100258072D01*
X209220000Y-100258072D01*
X209344482Y-100245812D01*
X209464180Y-100209502D01*
X209574494Y-100150537D01*
X209671185Y-100071185D01*
X209750537Y-99974494D01*
X209809502Y-99864180D01*
X209831513Y-99791620D01*
X209963368Y-99923475D01*
X210206589Y-100085990D01*
X210476842Y-100197932D01*
X210763740Y-100255000D01*
X211056260Y-100255000D01*
X211343158Y-100197932D01*
X211613411Y-100085990D01*
X211856632Y-99923475D01*
X212063475Y-99716632D01*
X212180000Y-99542240D01*
X212296525Y-99716632D01*
X212503368Y-99923475D01*
X212746589Y-100085990D01*
X213016842Y-100197932D01*
X213303740Y-100255000D01*
X213596260Y-100255000D01*
X213883158Y-100197932D01*
X214153411Y-100085990D01*
X214396632Y-99923475D01*
X214603475Y-99716632D01*
X214720000Y-99542240D01*
X214836525Y-99716632D01*
X215043368Y-99923475D01*
X215286589Y-100085990D01*
X215556842Y-100197932D01*
X215843740Y-100255000D01*
X216136260Y-100255000D01*
X216423158Y-100197932D01*
X216693411Y-100085990D01*
X216936632Y-99923475D01*
X217143475Y-99716632D01*
X217265195Y-99534466D01*
X217334822Y-99651355D01*
X217529731Y-99867588D01*
X217763080Y-100041641D01*
X218025901Y-100166825D01*
X218173110Y-100211476D01*
X218403000Y-100090155D01*
X218403000Y-98897000D01*
X218383000Y-98897000D01*
X218383000Y-98643000D01*
X218403000Y-98643000D01*
X218403000Y-98623000D01*
X218657000Y-98623000D01*
X218657000Y-98643000D01*
X218677000Y-98643000D01*
X218677000Y-98897000D01*
X218657000Y-98897000D01*
X218657000Y-100090155D01*
X218886890Y-100211476D01*
X219034099Y-100166825D01*
X219296920Y-100041641D01*
X219530269Y-99867588D01*
X219725178Y-99651355D01*
X219794805Y-99534466D01*
X219916525Y-99716632D01*
X220123368Y-99923475D01*
X220366589Y-100085990D01*
X220636842Y-100197932D01*
X220923740Y-100255000D01*
X221216260Y-100255000D01*
X221503158Y-100197932D01*
X221773411Y-100085990D01*
X222016632Y-99923475D01*
X222223475Y-99716632D01*
X222340000Y-99542240D01*
X222456525Y-99716632D01*
X222663368Y-99923475D01*
X222906589Y-100085990D01*
X223176842Y-100197932D01*
X223463740Y-100255000D01*
X223756260Y-100255000D01*
X224043158Y-100197932D01*
X224313411Y-100085990D01*
X224556632Y-99923475D01*
X224763475Y-99716632D01*
X224880000Y-99542240D01*
X224996525Y-99716632D01*
X225203368Y-99923475D01*
X225446589Y-100085990D01*
X225716842Y-100197932D01*
X226003740Y-100255000D01*
X226296260Y-100255000D01*
X226583158Y-100197932D01*
X226853411Y-100085990D01*
X227096632Y-99923475D01*
X227303475Y-99716632D01*
X227420000Y-99542240D01*
X227536525Y-99716632D01*
X227743368Y-99923475D01*
X227986589Y-100085990D01*
X228256842Y-100197932D01*
X228543740Y-100255000D01*
X228836260Y-100255000D01*
X229123158Y-100197932D01*
X229393411Y-100085990D01*
X229636632Y-99923475D01*
X229843475Y-99716632D01*
X229960000Y-99542240D01*
X230076525Y-99716632D01*
X230283368Y-99923475D01*
X230526589Y-100085990D01*
X230796842Y-100197932D01*
X231083740Y-100255000D01*
X231376260Y-100255000D01*
X231663158Y-100197932D01*
X231933411Y-100085990D01*
X232176632Y-99923475D01*
X232383475Y-99716632D01*
X232500000Y-99542240D01*
X232616525Y-99716632D01*
X232823368Y-99923475D01*
X233066589Y-100085990D01*
X233336842Y-100197932D01*
X233623740Y-100255000D01*
X233916260Y-100255000D01*
X234203158Y-100197932D01*
X234473411Y-100085990D01*
X234716632Y-99923475D01*
X234923475Y-99716632D01*
X235040000Y-99542240D01*
X235156525Y-99716632D01*
X235363368Y-99923475D01*
X235606589Y-100085990D01*
X235876842Y-100197932D01*
X236163740Y-100255000D01*
X236456260Y-100255000D01*
X236743158Y-100197932D01*
X237013411Y-100085990D01*
X237256632Y-99923475D01*
X237463475Y-99716632D01*
X237585195Y-99534466D01*
X237654822Y-99651355D01*
X237849731Y-99867588D01*
X238083080Y-100041641D01*
X238345901Y-100166825D01*
X238493110Y-100211476D01*
X238723000Y-100090155D01*
X238723000Y-98897000D01*
X238703000Y-98897000D01*
X238703000Y-98643000D01*
X238723000Y-98643000D01*
X238723000Y-98623000D01*
X238977000Y-98623000D01*
X238977000Y-98643000D01*
X238997000Y-98643000D01*
X238997000Y-98897000D01*
X238977000Y-98897000D01*
X238977000Y-100090155D01*
X239206890Y-100211476D01*
X239354099Y-100166825D01*
X239616920Y-100041641D01*
X239850269Y-99867588D01*
X240045178Y-99651355D01*
X240114805Y-99534466D01*
X240236525Y-99716632D01*
X240443368Y-99923475D01*
X240686589Y-100085990D01*
X240956842Y-100197932D01*
X241243740Y-100255000D01*
X241536260Y-100255000D01*
X241823158Y-100197932D01*
X242093411Y-100085990D01*
X242336632Y-99923475D01*
X242543475Y-99716632D01*
X242660000Y-99542240D01*
X242776525Y-99716632D01*
X242983368Y-99923475D01*
X243226589Y-100085990D01*
X243496842Y-100197932D01*
X243783740Y-100255000D01*
X244076260Y-100255000D01*
X244363158Y-100197932D01*
X244633411Y-100085990D01*
X244876632Y-99923475D01*
X245083475Y-99716632D01*
X245200000Y-99542240D01*
X245316525Y-99716632D01*
X245523368Y-99923475D01*
X245766589Y-100085990D01*
X246036842Y-100197932D01*
X246323740Y-100255000D01*
X246616260Y-100255000D01*
X246903158Y-100197932D01*
X247173411Y-100085990D01*
X247416632Y-99923475D01*
X247623475Y-99716632D01*
X247740000Y-99542240D01*
X247856525Y-99716632D01*
X248063368Y-99923475D01*
X248306589Y-100085990D01*
X248576842Y-100197932D01*
X248863740Y-100255000D01*
X249156260Y-100255000D01*
X249443158Y-100197932D01*
X249713411Y-100085990D01*
X249956632Y-99923475D01*
X250163475Y-99716632D01*
X250280000Y-99542240D01*
X250396525Y-99716632D01*
X250603368Y-99923475D01*
X250846589Y-100085990D01*
X251116842Y-100197932D01*
X251403740Y-100255000D01*
X251696260Y-100255000D01*
X251983158Y-100197932D01*
X252253411Y-100085990D01*
X252496632Y-99923475D01*
X252703475Y-99716632D01*
X252820000Y-99542240D01*
X252936525Y-99716632D01*
X253143368Y-99923475D01*
X253386589Y-100085990D01*
X253656842Y-100197932D01*
X253943740Y-100255000D01*
X254236260Y-100255000D01*
X254523158Y-100197932D01*
X254793411Y-100085990D01*
X255036632Y-99923475D01*
X255243475Y-99716632D01*
X255365195Y-99534466D01*
X255434822Y-99651355D01*
X255629731Y-99867588D01*
X255863080Y-100041641D01*
X256125901Y-100166825D01*
X256273110Y-100211476D01*
X256503000Y-100090155D01*
X256503000Y-98897000D01*
X256757000Y-98897000D01*
X256757000Y-100090155D01*
X256986890Y-100211476D01*
X257134099Y-100166825D01*
X257396920Y-100041641D01*
X257630269Y-99867588D01*
X257825178Y-99651355D01*
X257974157Y-99401252D01*
X258071481Y-99126891D01*
X257950814Y-98897000D01*
X256757000Y-98897000D01*
X256503000Y-98897000D01*
X256483000Y-98897000D01*
X256483000Y-98643000D01*
X256503000Y-98643000D01*
X256503000Y-98623000D01*
X256757000Y-98623000D01*
X256757000Y-98643000D01*
X257950814Y-98643000D01*
X258071481Y-98413109D01*
X257974157Y-98138748D01*
X257825178Y-97888645D01*
X257630269Y-97672412D01*
X257400594Y-97501100D01*
X257576632Y-97383475D01*
X257783475Y-97176632D01*
X257945990Y-96933411D01*
X258057932Y-96663158D01*
X258115000Y-96376260D01*
X258115000Y-96083740D01*
X258057932Y-95796842D01*
X257945990Y-95526589D01*
X257939583Y-95517000D01*
X258293000Y-95517000D01*
X258293000Y-101740000D01*
G36*
X254083948Y-122060000D02*
G01*
X254210948Y-122187000D01*
X253829110Y-122187000D01*
X253719081Y-122076971D01*
X253736052Y-122060000D01*
X253719081Y-122043029D01*
X253829110Y-121933000D01*
X254210948Y-121933000D01*
X254083948Y-122060000D01*
G37*
X254083948Y-122060000D02*
X254210948Y-122187000D01*
X253829110Y-122187000D01*
X253719081Y-122076971D01*
X253736052Y-122060000D01*
X253719081Y-122043029D01*
X253829110Y-121933000D01*
X254210948Y-121933000D01*
X254083948Y-122060000D01*
G36*
X255500919Y-122043029D02*
G01*
X255483948Y-122060000D01*
X255500919Y-122076971D01*
X255390890Y-122187000D01*
X255009052Y-122187000D01*
X255136052Y-122060000D01*
X255009052Y-121933000D01*
X255390890Y-121933000D01*
X255500919Y-122043029D01*
G37*
X255500919Y-122043029D02*
X255483948Y-122060000D01*
X255500919Y-122076971D01*
X255390890Y-122187000D01*
X255009052Y-122187000D01*
X255136052Y-122060000D01*
X255009052Y-121933000D01*
X255390890Y-121933000D01*
X255500919Y-122043029D01*
G36*
X217376525Y-97176632D02*
G01*
X217583368Y-97383475D01*
X217759406Y-97501100D01*
X217529731Y-97672412D01*
X217334822Y-97888645D01*
X217265195Y-98005534D01*
X217143475Y-97823368D01*
X216936632Y-97616525D01*
X216762240Y-97500000D01*
X216936632Y-97383475D01*
X217143475Y-97176632D01*
X217260000Y-97002240D01*
X217376525Y-97176632D01*
G37*
X217376525Y-97176632D02*
X217583368Y-97383475D01*
X217759406Y-97501100D01*
X217529731Y-97672412D01*
X217334822Y-97888645D01*
X217265195Y-98005534D01*
X217143475Y-97823368D01*
X216936632Y-97616525D01*
X216762240Y-97500000D01*
X216936632Y-97383475D01*
X217143475Y-97176632D01*
X217260000Y-97002240D01*
X217376525Y-97176632D01*
G36*
X219916525Y-97176632D02*
G01*
X220123368Y-97383475D01*
X220297760Y-97500000D01*
X220123368Y-97616525D01*
X219916525Y-97823368D01*
X219794805Y-98005534D01*
X219725178Y-97888645D01*
X219530269Y-97672412D01*
X219300594Y-97501100D01*
X219476632Y-97383475D01*
X219683475Y-97176632D01*
X219800000Y-97002240D01*
X219916525Y-97176632D01*
G37*
X219916525Y-97176632D02*
X220123368Y-97383475D01*
X220297760Y-97500000D01*
X220123368Y-97616525D01*
X219916525Y-97823368D01*
X219794805Y-98005534D01*
X219725178Y-97888645D01*
X219530269Y-97672412D01*
X219300594Y-97501100D01*
X219476632Y-97383475D01*
X219683475Y-97176632D01*
X219800000Y-97002240D01*
X219916525Y-97176632D01*
G36*
X232616525Y-97176632D02*
G01*
X232823368Y-97383475D01*
X232997760Y-97500000D01*
X232823368Y-97616525D01*
X232616525Y-97823368D01*
X232500000Y-97997760D01*
X232383475Y-97823368D01*
X232176632Y-97616525D01*
X232000594Y-97498900D01*
X232230269Y-97327588D01*
X232425178Y-97111355D01*
X232494805Y-96994466D01*
X232616525Y-97176632D01*
G37*
X232616525Y-97176632D02*
X232823368Y-97383475D01*
X232997760Y-97500000D01*
X232823368Y-97616525D01*
X232616525Y-97823368D01*
X232500000Y-97997760D01*
X232383475Y-97823368D01*
X232176632Y-97616525D01*
X232000594Y-97498900D01*
X232230269Y-97327588D01*
X232425178Y-97111355D01*
X232494805Y-96994466D01*
X232616525Y-97176632D01*
G36*
X222414822Y-97111355D02*
G01*
X222609731Y-97327588D01*
X222839406Y-97498900D01*
X222663368Y-97616525D01*
X222456525Y-97823368D01*
X222340000Y-97997760D01*
X222223475Y-97823368D01*
X222016632Y-97616525D01*
X221842240Y-97500000D01*
X222016632Y-97383475D01*
X222223475Y-97176632D01*
X222345195Y-96994466D01*
X222414822Y-97111355D01*
G37*
X222414822Y-97111355D02*
X222609731Y-97327588D01*
X222839406Y-97498900D01*
X222663368Y-97616525D01*
X222456525Y-97823368D01*
X222340000Y-97997760D01*
X222223475Y-97823368D01*
X222016632Y-97616525D01*
X221842240Y-97500000D01*
X222016632Y-97383475D01*
X222223475Y-97176632D01*
X222345195Y-96994466D01*
X222414822Y-97111355D01*
G36*
X214836525Y-97176632D02*
G01*
X215043368Y-97383475D01*
X215217760Y-97500000D01*
X215043368Y-97616525D01*
X214836525Y-97823368D01*
X214720000Y-97997760D01*
X214603475Y-97823368D01*
X214396632Y-97616525D01*
X214220594Y-97498900D01*
X214450269Y-97327588D01*
X214645178Y-97111355D01*
X214714805Y-96994466D01*
X214836525Y-97176632D01*
G37*
X214836525Y-97176632D02*
X215043368Y-97383475D01*
X215217760Y-97500000D01*
X215043368Y-97616525D01*
X214836525Y-97823368D01*
X214720000Y-97997760D01*
X214603475Y-97823368D01*
X214396632Y-97616525D01*
X214220594Y-97498900D01*
X214450269Y-97327588D01*
X214645178Y-97111355D01*
X214714805Y-96994466D01*
X214836525Y-97176632D01*
G36*
X249137000Y-96103000D02*
G01*
X249157000Y-96103000D01*
X249157000Y-96357000D01*
X249137000Y-96357000D01*
X249137000Y-96377000D01*
X248883000Y-96377000D01*
X248883000Y-96357000D01*
X248863000Y-96357000D01*
X248863000Y-96103000D01*
X248883000Y-96103000D01*
X248883000Y-96083000D01*
X249137000Y-96083000D01*
X249137000Y-96103000D01*
G37*
X249137000Y-96103000D02*
X249157000Y-96103000D01*
X249157000Y-96357000D01*
X249137000Y-96357000D01*
X249137000Y-96377000D01*
X248883000Y-96377000D01*
X248883000Y-96357000D01*
X248863000Y-96357000D01*
X248863000Y-96103000D01*
X248883000Y-96103000D01*
X248883000Y-96083000D01*
X249137000Y-96083000D01*
X249137000Y-96103000D01*
G36*
X244057000Y-96103000D02*
G01*
X244077000Y-96103000D01*
X244077000Y-96357000D01*
X244057000Y-96357000D01*
X244057000Y-96377000D01*
X243803000Y-96377000D01*
X243803000Y-96357000D01*
X243783000Y-96357000D01*
X243783000Y-96103000D01*
X243803000Y-96103000D01*
X243803000Y-96083000D01*
X244057000Y-96083000D01*
X244057000Y-96103000D01*
G37*
X244057000Y-96103000D02*
X244077000Y-96103000D01*
X244077000Y-96357000D01*
X244057000Y-96357000D01*
X244057000Y-96377000D01*
X243803000Y-96377000D01*
X243803000Y-96357000D01*
X243783000Y-96357000D01*
X243783000Y-96103000D01*
X243803000Y-96103000D01*
X243803000Y-96083000D01*
X244057000Y-96083000D01*
X244057000Y-96103000D01*
G36*
X231357000Y-96103000D02*
G01*
X231377000Y-96103000D01*
X231377000Y-96357000D01*
X231357000Y-96357000D01*
X231357000Y-96377000D01*
X231103000Y-96377000D01*
X231103000Y-96357000D01*
X231083000Y-96357000D01*
X231083000Y-96103000D01*
X231103000Y-96103000D01*
X231103000Y-96083000D01*
X231357000Y-96083000D01*
X231357000Y-96103000D01*
G37*
X231357000Y-96103000D02*
X231377000Y-96103000D01*
X231377000Y-96357000D01*
X231357000Y-96357000D01*
X231357000Y-96377000D01*
X231103000Y-96377000D01*
X231103000Y-96357000D01*
X231083000Y-96357000D01*
X231083000Y-96103000D01*
X231103000Y-96103000D01*
X231103000Y-96083000D01*
X231357000Y-96083000D01*
X231357000Y-96103000D01*
G36*
X223737000Y-96103000D02*
G01*
X223757000Y-96103000D01*
X223757000Y-96357000D01*
X223737000Y-96357000D01*
X223737000Y-96377000D01*
X223483000Y-96377000D01*
X223483000Y-96357000D01*
X223463000Y-96357000D01*
X223463000Y-96103000D01*
X223483000Y-96103000D01*
X223483000Y-96083000D01*
X223737000Y-96083000D01*
X223737000Y-96103000D01*
G37*
X223737000Y-96103000D02*
X223757000Y-96103000D01*
X223757000Y-96357000D01*
X223737000Y-96357000D01*
X223737000Y-96377000D01*
X223483000Y-96377000D01*
X223483000Y-96357000D01*
X223463000Y-96357000D01*
X223463000Y-96103000D01*
X223483000Y-96103000D01*
X223483000Y-96083000D01*
X223737000Y-96083000D01*
X223737000Y-96103000D01*
G36*
X213577000Y-96103000D02*
G01*
X213597000Y-96103000D01*
X213597000Y-96357000D01*
X213577000Y-96357000D01*
X213577000Y-96377000D01*
X213323000Y-96377000D01*
X213323000Y-96357000D01*
X213303000Y-96357000D01*
X213303000Y-96103000D01*
X213323000Y-96103000D01*
X213323000Y-96083000D01*
X213577000Y-96083000D01*
X213577000Y-96103000D01*
G37*
X213577000Y-96103000D02*
X213597000Y-96103000D01*
X213597000Y-96357000D01*
X213577000Y-96357000D01*
X213577000Y-96377000D01*
X213323000Y-96377000D01*
X213323000Y-96357000D01*
X213303000Y-96357000D01*
X213303000Y-96103000D01*
X213323000Y-96103000D01*
X213323000Y-96083000D01*
X213577000Y-96083000D01*
X213577000Y-96103000D01*
M02*
