M48
; DRILL file {KiCad (5.1.5)-3} date 3/15/2020 10:37:19 PM
; FORMAT={-:-/ absolute / inch / decimal}
; #@! TF.CreationDate,2020-03-15T22:37:19-07:00
; #@! TF.GenerationSoftware,Kicad,Pcbnew,(5.1.5)-3
; #@! TF.FileFunction,Plated,1,2,PTH
FMAT,2
INCH
T1C0.0079
T2C0.0236
T3C0.0300
T4C0.0315
T5C0.0354
T6C0.0394
T7C0.0433
T8C0.0669
%
G90
G05
T1
X9.9965Y-4.7504
X9.9965Y-4.8055
X9.9965Y-4.8606
X10.0516Y-4.7504
X10.0516Y-4.8055
X10.0516Y-4.8606
T2
X8.174Y-4.3055
X8.174Y-4.7055
X8.374Y-4.4055
X8.374Y-4.7555
X8.374Y-4.9555
X8.774Y-4.0055
X8.774Y-5.5805
X8.974Y-5.3555
X9.524Y-5.1805
X9.524Y-5.3055
X9.924Y-4.6055
X10.074Y-5.0555
X10.224Y-4.7555
X10.324Y-4.5055
X10.324Y-4.7805
X10.324Y-5.0555
T3
X8.7041Y-4.387
X8.7041Y-4.887
X9.0033Y-4.287
X9.0033Y-4.887
T4
X8.924Y-5.4555
X8.924Y-5.5555
X8.924Y-5.6555
X8.924Y-5.7555
X9.224Y-5.4555
X9.224Y-5.5555
X9.224Y-5.6555
X9.224Y-5.7555
T5
X8.999Y-4.0555
X9.099Y-4.0555
X10.174Y-5.4055
X10.274Y-5.4055
T6
X8.024Y-4.1555
X8.024Y-4.2555
X8.024Y-4.3555
X8.024Y-5.0055
X8.024Y-5.1055
X8.024Y-5.2055
X8.024Y-5.3055
X8.024Y-4.5555
X8.024Y-4.6555
X8.024Y-4.7555
X8.2035Y-3.7886
X8.2035Y-3.8886
X8.3035Y-3.7886
X8.3035Y-3.8886
X8.4035Y-3.7886
X8.4035Y-3.8886
X8.5035Y-3.7886
X8.5035Y-3.8886
X8.6035Y-3.7886
X8.6035Y-3.8886
X8.7035Y-3.7886
X8.7035Y-3.8886
X8.8035Y-3.7886
X8.8035Y-3.8886
X8.9035Y-3.7886
X8.9035Y-3.8886
X9.0035Y-3.7886
X9.0035Y-3.8886
X9.1035Y-3.7886
X9.1035Y-3.8886
X9.2035Y-3.7886
X9.2035Y-3.8886
X9.3035Y-3.7886
X9.3035Y-3.8886
X9.4035Y-3.7886
X9.4035Y-3.8886
X9.5035Y-3.7886
X9.5035Y-3.8886
X9.6035Y-3.7886
X9.6035Y-3.8886
X9.7035Y-3.7886
X9.7035Y-3.8886
X9.8035Y-3.7886
X9.8035Y-3.8886
X9.9035Y-3.7886
X9.9035Y-3.8886
X10.0035Y-3.7886
X10.0035Y-3.8886
X10.1035Y-3.7886
X10.1035Y-3.8886
X9.299Y-4.4305
X9.4959Y-4.4305
T7
X8.299Y-5.2055
X8.699Y-5.2055
T8
X9.824Y-5.3555
X9.9799Y-5.3555
T0
M30
