G04 #@! TF.GenerationSoftware,KiCad,Pcbnew,(5.1.5)-3*
G04 #@! TF.CreationDate,2020-03-15T22:36:38-07:00*
G04 #@! TF.ProjectId,pihat,70696861-742e-46b6-9963-61645f706362,rev?*
G04 #@! TF.SameCoordinates,Original*
G04 #@! TF.FileFunction,Soldermask,Bot*
G04 #@! TF.FilePolarity,Negative*
%FSLAX46Y46*%
G04 Gerber Fmt 4.6, Leading zero omitted, Abs format (unit mm)*
G04 Created by KiCad (PCBNEW (5.1.5)-3) date 2020-03-15 22:36:38*
%MOMM*%
%LPD*%
G04 APERTURE LIST*
%ADD10C,1.300000*%
%ADD11O,1.600000X1.600000*%
%ADD12R,1.600000X1.600000*%
%ADD13C,2.000000*%
%ADD14R,2.000000X2.000000*%
%ADD15O,1.700000X1.700000*%
%ADD16R,1.700000X1.700000*%
%ADD17C,2.700000*%
%ADD18C,0.150000*%
%ADD19R,2.200000X2.200000*%
%ADD20O,2.200000X2.200000*%
%ADD21R,1.800000X1.800000*%
%ADD22C,1.800000*%
G04 APERTURE END LIST*
D10*
X228685000Y-108890000D03*
X221085000Y-111430000D03*
X228685000Y-124130000D03*
X221085000Y-124130000D03*
D11*
X234290000Y-138570000D03*
X226670000Y-146190000D03*
X234290000Y-141110000D03*
X226670000Y-143650000D03*
X234290000Y-143650000D03*
X226670000Y-141110000D03*
X234290000Y-146190000D03*
D12*
X226670000Y-138570000D03*
D13*
X241195000Y-112535000D03*
D14*
X236195000Y-112535000D03*
D15*
X203810000Y-127140000D03*
X203810000Y-129680000D03*
X203810000Y-132220000D03*
D16*
X203810000Y-134760000D03*
D17*
X203500000Y-97500000D03*
D15*
X203810000Y-120790000D03*
X203810000Y-118250000D03*
D16*
X203810000Y-115710000D03*
D15*
X203810000Y-110630000D03*
X203810000Y-108090000D03*
D16*
X203810000Y-105550000D03*
X208370000Y-98770000D03*
D15*
X208370000Y-96230000D03*
X210910000Y-98770000D03*
X210910000Y-96230000D03*
X213450000Y-98770000D03*
X213450000Y-96230000D03*
X215990000Y-98770000D03*
X215990000Y-96230000D03*
X218530000Y-98770000D03*
X218530000Y-96230000D03*
X221070000Y-98770000D03*
X221070000Y-96230000D03*
X223610000Y-98770000D03*
X223610000Y-96230000D03*
X226150000Y-98770000D03*
X226150000Y-96230000D03*
X228690000Y-98770000D03*
X228690000Y-96230000D03*
X231230000Y-98770000D03*
X231230000Y-96230000D03*
X233770000Y-98770000D03*
X233770000Y-96230000D03*
X236310000Y-98770000D03*
X236310000Y-96230000D03*
X238850000Y-98770000D03*
X238850000Y-96230000D03*
X241390000Y-98770000D03*
X241390000Y-96230000D03*
X243930000Y-98770000D03*
X243930000Y-96230000D03*
X246470000Y-98770000D03*
X246470000Y-96230000D03*
X249010000Y-98770000D03*
X249010000Y-96230000D03*
X251550000Y-98770000D03*
X251550000Y-96230000D03*
X254090000Y-98770000D03*
X254090000Y-96230000D03*
X256630000Y-98770000D03*
X256630000Y-96230000D03*
D17*
X261500000Y-146500000D03*
X203500000Y-146500000D03*
X261500000Y-97500000D03*
D18*
G36*
X250654503Y-134681204D02*
G01*
X250678772Y-134684804D01*
X250702570Y-134690765D01*
X250725670Y-134699030D01*
X250747849Y-134709520D01*
X250768892Y-134722133D01*
X250788598Y-134736748D01*
X250806776Y-134753224D01*
X250823252Y-134771402D01*
X250837867Y-134791108D01*
X250850480Y-134812151D01*
X250860970Y-134834330D01*
X250869235Y-134857430D01*
X250875196Y-134881228D01*
X250878796Y-134905497D01*
X250880000Y-134930001D01*
X250880000Y-137129999D01*
X250878796Y-137154503D01*
X250875196Y-137178772D01*
X250869235Y-137202570D01*
X250860970Y-137225670D01*
X250850480Y-137247849D01*
X250837867Y-137268892D01*
X250823252Y-137288598D01*
X250806776Y-137306776D01*
X250788598Y-137323252D01*
X250768892Y-137337867D01*
X250747849Y-137350480D01*
X250725670Y-137360970D01*
X250702570Y-137369235D01*
X250678772Y-137375196D01*
X250654503Y-137378796D01*
X250629999Y-137380000D01*
X248430001Y-137380000D01*
X248405497Y-137378796D01*
X248381228Y-137375196D01*
X248357430Y-137369235D01*
X248334330Y-137360970D01*
X248312151Y-137350480D01*
X248291108Y-137337867D01*
X248271402Y-137323252D01*
X248253224Y-137306776D01*
X248236748Y-137288598D01*
X248222133Y-137268892D01*
X248209520Y-137247849D01*
X248199030Y-137225670D01*
X248190765Y-137202570D01*
X248184804Y-137178772D01*
X248181204Y-137154503D01*
X248180000Y-137129999D01*
X248180000Y-134930001D01*
X248181204Y-134905497D01*
X248184804Y-134881228D01*
X248190765Y-134857430D01*
X248199030Y-134834330D01*
X248209520Y-134812151D01*
X248222133Y-134791108D01*
X248236748Y-134771402D01*
X248253224Y-134753224D01*
X248271402Y-134736748D01*
X248291108Y-134722133D01*
X248312151Y-134709520D01*
X248334330Y-134699030D01*
X248357430Y-134690765D01*
X248381228Y-134684804D01*
X248405497Y-134681204D01*
X248430001Y-134680000D01*
X250629999Y-134680000D01*
X250654503Y-134681204D01*
G37*
D17*
X253490000Y-136030000D03*
D19*
X220955000Y-132220000D03*
D20*
X210795000Y-132220000D03*
D21*
X258420000Y-137300000D03*
D22*
X260960000Y-137300000D03*
D21*
X231115000Y-103010000D03*
D22*
X228575000Y-103010000D03*
M02*
